G04 #@! TF.GenerationSoftware,KiCad,Pcbnew,10.0.5*
G04 #@! TF.CreationDate,2026-08-11T08:47:26+09:00*
G04 #@! TF.ProjectId,OBD_CAN_ESP32_V2,4f42445f-4341-44e5-9f45-535033325f56,rev?*
G04 #@! TF.SameCoordinates,Original*
G04 #@! TF.FileFunction,Copper,L1,Top*
G04 #@! TF.FilePolarity,Positive*
%FSLAX46Y46*%
G04 Gerber Fmt 4.6, Leading zero omitted, Abs format (unit mm)*
G04 Created by KiCad (PCBNEW 10.0.5) date 2026-08-11 08:47:26*
%MOMM*%
%LPD*%
G01*
G04 APERTURE LIST*
G04 Aperture macros list*
%AMRoundRect*
0 Rectangle with rounded corners*
0 $1 Rounding radius*
0 $2 $3 $4 $5 $6 $7 $8 $9 X,Y pos of 4 corners*
0 Add a 4 corners polygon primitive as box body*
4,1,4,$2,$3,$4,$5,$6,$7,$8,$9,$2,$3,0*
0 Add four circle primitives for the rounded corners*
1,1,$1+$1,$2,$3*
1,1,$1+$1,$4,$5*
1,1,$1+$1,$6,$7*
1,1,$1+$1,$8,$9*
0 Add four rect primitives between the rounded corners*
20,1,$1+$1,$2,$3,$4,$5,0*
20,1,$1+$1,$4,$5,$6,$7,0*
20,1,$1+$1,$6,$7,$8,$9,0*
20,1,$1+$1,$8,$9,$2,$3,0*%
G04 Aperture macros list end*
G04 #@! TA.AperFunction,SMDPad,CuDef*
%ADD10RoundRect,0.225000X-0.225000X-0.250000X0.225000X-0.250000X0.225000X0.250000X-0.225000X0.250000X0*%
G04 #@! TD*
G04 #@! TA.AperFunction,SMDPad,CuDef*
%ADD11RoundRect,0.250000X-0.600000X-2.600000X0.600000X-2.600000X0.600000X2.600000X-0.600000X2.600000X0*%
G04 #@! TD*
G04 #@! TA.AperFunction,ComponentPad*
%ADD12R,1.700000X1.700000*%
G04 #@! TD*
G04 #@! TA.AperFunction,ComponentPad*
%ADD13C,1.700000*%
G04 #@! TD*
G04 #@! TA.AperFunction,SMDPad,CuDef*
%ADD14RoundRect,0.250000X-0.262500X-0.450000X0.262500X-0.450000X0.262500X0.450000X-0.262500X0.450000X0*%
G04 #@! TD*
G04 #@! TA.AperFunction,SMDPad,CuDef*
%ADD15RoundRect,0.250000X0.475000X-0.250000X0.475000X0.250000X-0.475000X0.250000X-0.475000X-0.250000X0*%
G04 #@! TD*
G04 #@! TA.AperFunction,SMDPad,CuDef*
%ADD16RoundRect,0.150000X-0.650000X-0.150000X0.650000X-0.150000X0.650000X0.150000X-0.650000X0.150000X0*%
G04 #@! TD*
G04 #@! TA.AperFunction,HeatsinkPad*
%ADD17C,0.500000*%
G04 #@! TD*
G04 #@! TA.AperFunction,HeatsinkPad*
%ADD18R,2.410000X3.100000*%
G04 #@! TD*
G04 #@! TA.AperFunction,SMDPad,CuDef*
%ADD19RoundRect,0.225000X-0.225000X-0.375000X0.225000X-0.375000X0.225000X0.375000X-0.225000X0.375000X0*%
G04 #@! TD*
G04 #@! TA.AperFunction,SMDPad,CuDef*
%ADD20RoundRect,0.250000X-0.400000X-1.450000X0.400000X-1.450000X0.400000X1.450000X-0.400000X1.450000X0*%
G04 #@! TD*
G04 #@! TA.AperFunction,SMDPad,CuDef*
%ADD21RoundRect,0.250000X-0.325000X-0.650000X0.325000X-0.650000X0.325000X0.650000X-0.325000X0.650000X0*%
G04 #@! TD*
G04 #@! TA.AperFunction,SMDPad,CuDef*
%ADD22RoundRect,0.250000X-0.325000X-1.100000X0.325000X-1.100000X0.325000X1.100000X-0.325000X1.100000X0*%
G04 #@! TD*
G04 #@! TA.AperFunction,SMDPad,CuDef*
%ADD23RoundRect,0.200000X-0.200000X-0.275000X0.200000X-0.275000X0.200000X0.275000X-0.200000X0.275000X0*%
G04 #@! TD*
G04 #@! TA.AperFunction,SMDPad,CuDef*
%ADD24RoundRect,0.250000X-0.250000X-0.475000X0.250000X-0.475000X0.250000X0.475000X-0.250000X0.475000X0*%
G04 #@! TD*
G04 #@! TA.AperFunction,SMDPad,CuDef*
%ADD25RoundRect,0.250000X0.450000X-0.262500X0.450000X0.262500X-0.450000X0.262500X-0.450000X-0.262500X0*%
G04 #@! TD*
G04 #@! TA.AperFunction,SMDPad,CuDef*
%ADD26RoundRect,0.250000X0.650000X-1.000000X0.650000X1.000000X-0.650000X1.000000X-0.650000X-1.000000X0*%
G04 #@! TD*
G04 #@! TA.AperFunction,SMDPad,CuDef*
%ADD27RoundRect,0.150000X-0.587500X-0.150000X0.587500X-0.150000X0.587500X0.150000X-0.587500X0.150000X0*%
G04 #@! TD*
G04 #@! TA.AperFunction,SMDPad,CuDef*
%ADD28RoundRect,0.150000X-0.150000X0.825000X-0.150000X-0.825000X0.150000X-0.825000X0.150000X0.825000X0*%
G04 #@! TD*
G04 #@! TA.AperFunction,ComponentPad*
%ADD29RoundRect,0.250000X-0.725000X0.600000X-0.725000X-0.600000X0.725000X-0.600000X0.725000X0.600000X0*%
G04 #@! TD*
G04 #@! TA.AperFunction,ComponentPad*
%ADD30O,1.950000X1.700000*%
G04 #@! TD*
G04 #@! TA.AperFunction,ViaPad*
%ADD31C,0.600000*%
G04 #@! TD*
G04 #@! TA.AperFunction,Conductor*
%ADD32C,0.200000*%
G04 #@! TD*
G04 #@! TA.AperFunction,Conductor*
%ADD33C,0.250000*%
G04 #@! TD*
G04 APERTURE END LIST*
D10*
X86225000Y-97030000D03*
X87775000Y-97030000D03*
D11*
X95880000Y-102000000D03*
X100380000Y-102000000D03*
D12*
X61000000Y-93980000D03*
D13*
X63540000Y-93980000D03*
X66080000Y-93980000D03*
X68620000Y-93980000D03*
X71160000Y-93980000D03*
X73700000Y-93980000D03*
X76240000Y-93980000D03*
X78780000Y-93980000D03*
X81320000Y-93980000D03*
X83860000Y-93980000D03*
X86400000Y-93980000D03*
X88940000Y-93980000D03*
X91480000Y-93980000D03*
X94020000Y-93980000D03*
X96560000Y-93980000D03*
X99100000Y-93980000D03*
X101640000Y-93980000D03*
X104180000Y-93980000D03*
X106720000Y-93980000D03*
X109260000Y-93980000D03*
X111800000Y-93980000D03*
X114340000Y-93980000D03*
D14*
X66087500Y-111000000D03*
X67912500Y-111000000D03*
D15*
X62480000Y-101950000D03*
X62480000Y-100050000D03*
D16*
X84350000Y-98661000D03*
X84350000Y-99931000D03*
X84350000Y-101201000D03*
X84350000Y-102471000D03*
X89650000Y-102471000D03*
X89650000Y-101201000D03*
X89650000Y-99931000D03*
X89650000Y-98661000D03*
D17*
X86045000Y-99266000D03*
X86045000Y-100566000D03*
X86045000Y-101866000D03*
D18*
X87000000Y-100566000D03*
D17*
X87955000Y-99266000D03*
X87955000Y-100566000D03*
X87955000Y-101866000D03*
D19*
X108350000Y-103000000D03*
X111650000Y-103000000D03*
D12*
X61000000Y-116840000D03*
D13*
X63540000Y-116840000D03*
X66080000Y-116840000D03*
X68620000Y-116840000D03*
X71160000Y-116840000D03*
X73700000Y-116840000D03*
X76240000Y-116840000D03*
X78780000Y-116840000D03*
X81320000Y-116840000D03*
X83860000Y-116840000D03*
X86400000Y-116840000D03*
X88940000Y-116840000D03*
X91480000Y-116840000D03*
X94020000Y-116840000D03*
X96560000Y-116840000D03*
X99100000Y-116840000D03*
X101640000Y-116840000D03*
X104180000Y-116840000D03*
X106720000Y-116840000D03*
X109260000Y-116840000D03*
X111800000Y-116840000D03*
X114340000Y-116840000D03*
D14*
X62267500Y-111000000D03*
X64092500Y-111000000D03*
D20*
X107775000Y-98250000D03*
X112225000Y-98250000D03*
D21*
X102525000Y-103000000D03*
X105475000Y-103000000D03*
D10*
X88225000Y-110000000D03*
X89775000Y-110000000D03*
D22*
X74445000Y-98000000D03*
X77395000Y-98000000D03*
D23*
X77175000Y-106000000D03*
X78825000Y-106000000D03*
X84175000Y-110000000D03*
X85825000Y-110000000D03*
D24*
X79130000Y-98000000D03*
X81030000Y-98000000D03*
D25*
X107000000Y-110912500D03*
X107000000Y-109087500D03*
D23*
X81175000Y-107000000D03*
X82825000Y-107000000D03*
D26*
X92870000Y-101800000D03*
X92870000Y-97800000D03*
D22*
X74525000Y-102000000D03*
X77475000Y-102000000D03*
D27*
X71062500Y-111050000D03*
X71062500Y-112950000D03*
X72937500Y-112000000D03*
D28*
X68905000Y-98525000D03*
X67635000Y-98525000D03*
X66365000Y-98525000D03*
X65095000Y-98525000D03*
X65095000Y-103475000D03*
X66365000Y-103475000D03*
X67635000Y-103475000D03*
X68905000Y-103475000D03*
D21*
X102525000Y-98000000D03*
X105475000Y-98000000D03*
D23*
X81175000Y-104102000D03*
X82825000Y-104102000D03*
D29*
X116500000Y-99000000D03*
D30*
X116500000Y-101500000D03*
X116500000Y-104000000D03*
X116500000Y-106500000D03*
X116500000Y-109000000D03*
X116500000Y-111500000D03*
D31*
X79509900Y-103060700D03*
X80020900Y-105776900D03*
X97698200Y-104741700D03*
X68132000Y-109735300D03*
X107700000Y-109580000D03*
X97941000Y-98118000D03*
X71875000Y-109270000D03*
X90775000Y-99718000D03*
X109000000Y-110330000D03*
X62770000Y-102161000D03*
X93001000Y-97402000D03*
X103813000Y-96720000D03*
X73711500Y-109360400D03*
X109023400Y-111568800D03*
X115499400Y-95103300D03*
X70567300Y-100213300D03*
X106924400Y-107982900D03*
X70999800Y-97695000D03*
X68047100Y-105629300D03*
X67613500Y-112314200D03*
X66022200Y-109531200D03*
X101065100Y-107995400D03*
X99366700Y-105659900D03*
D32*
X85981000Y-97030000D02*
X86225000Y-97030000D01*
X84350000Y-98661000D02*
X85981000Y-97030000D01*
X89350000Y-97030000D02*
X87775000Y-97030000D01*
X92870000Y-101800000D02*
X92870000Y-101175000D01*
X90600200Y-98280200D02*
X89350000Y-97030000D01*
X90600200Y-98280200D02*
X90030800Y-98280200D01*
X92870000Y-101175000D02*
X92870000Y-100550000D01*
X95055000Y-101175000D02*
X95880000Y-102000000D01*
X90030800Y-98280200D02*
X89650000Y-98661000D01*
X92870000Y-101175000D02*
X95055000Y-101175000D01*
X92870000Y-100550000D02*
X90600200Y-98280200D01*
X111800000Y-116840000D02*
X111430000Y-116840000D01*
X107140256Y-112550000D02*
X102525000Y-107934744D01*
X97698200Y-104741700D02*
X97698200Y-104681800D01*
X102525000Y-107934744D02*
X102525000Y-103000000D01*
X81175000Y-104102000D02*
X80551200Y-104102000D01*
X98766700Y-106545529D02*
X100816571Y-108595400D01*
X80551200Y-105246600D02*
X80020900Y-105776900D01*
X97698200Y-104681800D02*
X100380000Y-102000000D01*
X107510000Y-112550000D02*
X107140256Y-112550000D01*
X102525000Y-98000000D02*
X100380000Y-100145000D01*
X100380000Y-100145000D02*
X100380000Y-102000000D01*
X107510000Y-112550000D02*
X111800000Y-116840000D01*
X100380000Y-102000000D02*
X98766700Y-103613300D01*
X100380000Y-102000000D02*
X100380000Y-102059900D01*
X80551200Y-104102000D02*
X79509900Y-103060700D01*
X101864344Y-108595400D02*
X102525000Y-107934744D01*
X98766700Y-103613300D02*
X98766700Y-106545529D01*
X80551200Y-104102000D02*
X80551200Y-105246600D01*
X100816571Y-108595400D02*
X101864344Y-108595400D01*
X68132000Y-109735300D02*
X67352200Y-109735300D01*
X67352200Y-109735300D02*
X66087500Y-111000000D01*
D33*
X70040000Y-111640000D02*
X69990000Y-111390000D01*
X69990000Y-110490000D02*
X70040000Y-110440000D01*
X69990000Y-111390000D02*
X69990000Y-110490000D01*
D32*
X66365000Y-99042200D02*
X73711500Y-106388700D01*
X65784400Y-96969400D02*
X66365000Y-97550000D01*
X62480000Y-100050000D02*
X62480000Y-98958800D01*
X64469400Y-96969400D02*
X65784400Y-96969400D01*
X61000000Y-116840000D02*
X61000000Y-100439000D01*
X66365000Y-97550000D02*
X66365000Y-98525000D01*
X66365000Y-99042200D02*
X66365000Y-98525000D01*
X62480000Y-98958800D02*
X64469400Y-96969400D01*
X61388800Y-100050000D02*
X62480000Y-100050000D01*
X66365000Y-99500000D02*
X66365000Y-99042200D01*
X73711500Y-106388700D02*
X73711500Y-109360400D01*
X61000000Y-100439000D02*
X61388800Y-100050000D01*
X108350000Y-111850000D02*
X109023400Y-112523400D01*
X74445000Y-100007500D02*
X70773100Y-100007500D01*
X78153700Y-96549000D02*
X79130000Y-97525300D01*
X77954700Y-96350000D02*
X78153700Y-96549000D01*
X74445000Y-98000000D02*
X74445000Y-100007500D01*
X79571000Y-95131700D02*
X78153700Y-96549000D01*
X74445000Y-100007500D02*
X74445000Y-101920000D01*
X115499400Y-95103300D02*
X115471000Y-95131700D01*
X79130000Y-97525300D02*
X79130000Y-98000000D01*
X108350000Y-103000000D02*
X108350000Y-111850000D01*
X70773100Y-100007500D02*
X70567300Y-100213300D01*
X74445000Y-98000000D02*
X76095000Y-96350000D01*
X76095000Y-96350000D02*
X77954700Y-96350000D01*
X81061000Y-99931000D02*
X84350000Y-99931000D01*
X115471000Y-95131700D02*
X79571000Y-95131700D01*
X79130000Y-98000000D02*
X81061000Y-99931000D01*
X109023400Y-112523400D02*
X109023400Y-111568800D01*
X74445000Y-101920000D02*
X74525000Y-102000000D01*
X77175000Y-106000000D02*
X78685600Y-104489400D01*
X79289900Y-102387300D02*
X84266300Y-102387300D01*
X78685600Y-104489400D02*
X78685600Y-102991600D01*
X78685600Y-102991600D02*
X79289900Y-102387300D01*
X84266300Y-102387300D02*
X84350000Y-102471000D01*
X81175000Y-105752000D02*
X82825000Y-104102000D01*
X89820600Y-102471000D02*
X89650000Y-102471000D01*
X82825000Y-104102000D02*
X87181000Y-104102000D01*
X85495000Y-102416000D02*
X85495000Y-98716000D01*
X88809400Y-100601000D02*
X90490600Y-100601000D01*
X88505000Y-98716000D02*
X88505000Y-100297000D01*
X90750000Y-100860000D02*
X90750000Y-101542000D01*
X85495000Y-98716000D02*
X88505000Y-98716000D01*
X90490600Y-100601000D02*
X90750000Y-100860000D01*
X81175000Y-107000000D02*
X81175000Y-105752000D01*
X90750000Y-101542000D02*
X89820600Y-102471000D01*
X87181000Y-104102000D02*
X85495000Y-102416000D01*
X88505000Y-100297000D02*
X88809400Y-100601000D01*
X89479400Y-101201000D02*
X88500000Y-102180000D01*
X88500000Y-102180000D02*
X88500000Y-105675000D01*
X88500000Y-105675000D02*
X84175000Y-110000000D01*
X89650000Y-101201000D02*
X89479400Y-101201000D01*
X107600000Y-106990000D02*
X106765800Y-107824200D01*
X107600000Y-102401000D02*
X107600000Y-106990000D01*
X106924400Y-107982900D02*
X106765800Y-107824300D01*
X107901000Y-102100000D02*
X107600000Y-102401000D01*
X107000000Y-110912000D02*
X107000000Y-110912500D01*
X111650000Y-103000000D02*
X110750000Y-102100000D01*
X106000000Y-108590000D02*
X106000000Y-109912000D01*
X106000000Y-109912000D02*
X107000000Y-110912000D01*
X106765800Y-107824200D02*
X106000000Y-108590000D01*
X106765800Y-107824300D02*
X106765800Y-107824200D01*
X110750000Y-102100000D02*
X107901000Y-102100000D01*
X69735000Y-97695000D02*
X68905000Y-98525000D01*
X67798400Y-105380600D02*
X68047100Y-105629300D01*
X70999800Y-97695000D02*
X69735000Y-97695000D01*
X67798400Y-105254400D02*
X67798400Y-105380600D01*
X69105000Y-106561000D02*
X67798400Y-105254400D01*
X80970000Y-113950000D02*
X70118800Y-113950000D01*
X70118800Y-113950000D02*
X69105000Y-112936000D01*
X69105000Y-112936000D02*
X69105000Y-106561000D01*
X83860000Y-116840000D02*
X80970000Y-113950000D01*
X86400000Y-116840000D02*
X83110000Y-113550000D01*
X70284400Y-113550000D02*
X69505000Y-112771000D01*
X68305000Y-104491000D02*
X68305000Y-102081000D01*
X69505000Y-105691000D02*
X68305000Y-104491000D01*
X65095000Y-98870600D02*
X65095000Y-98525000D01*
X83110000Y-113550000D02*
X70284400Y-113550000D01*
X69505000Y-112771000D02*
X69505000Y-105691000D01*
X68305000Y-102081000D02*
X65095000Y-98870600D01*
X67635000Y-103475000D02*
X67500000Y-102500000D01*
X90814700Y-111050000D02*
X71062500Y-111050000D01*
X67300000Y-101700000D02*
X66800000Y-101600000D01*
X115460000Y-95850000D02*
X102545000Y-95850000D01*
X64400000Y-102600000D02*
X62400000Y-111000000D01*
X67613500Y-112314200D02*
X63581700Y-112314200D01*
X117775000Y-98165300D02*
X115460000Y-95850000D01*
X64600000Y-102200000D02*
X64400000Y-102600000D01*
X117775000Y-105225000D02*
X117775000Y-98165300D01*
X97030000Y-104835000D02*
X90814700Y-111050000D01*
X67500000Y-102500000D02*
X67500000Y-102000000D01*
X116500000Y-106500000D02*
X117775000Y-105225000D01*
X97030000Y-101365000D02*
X97030000Y-104835000D01*
X102545000Y-95850000D02*
X97030000Y-101365000D01*
X63581700Y-112314200D02*
X62267500Y-111000000D01*
X67500000Y-102000000D02*
X67300000Y-101700000D01*
X66800000Y-101600000D02*
X64600000Y-102200000D01*
X66365000Y-108728000D02*
X65792000Y-109300900D01*
X66365000Y-103475000D02*
X66365000Y-108728000D01*
X65792000Y-109300900D02*
X64092500Y-111000000D01*
X108784000Y-117990000D02*
X108110000Y-117316000D01*
X108110000Y-117316000D02*
X108110000Y-115890000D01*
X112276000Y-117990000D02*
X108784000Y-117990000D01*
X105170000Y-112950000D02*
X71062500Y-112950000D01*
X65792000Y-109301000D02*
X65792000Y-109300900D01*
X66022200Y-109531200D02*
X65792000Y-109301000D01*
X116500000Y-109000000D02*
X112950000Y-112550000D01*
X112950000Y-112550000D02*
X112950000Y-117316000D01*
X112950000Y-117316000D02*
X112276000Y-117990000D01*
X108110000Y-115890000D02*
X105170000Y-112950000D01*
X109775000Y-100250000D02*
X107775000Y-98250000D01*
X115250000Y-100250000D02*
X109775000Y-100250000D01*
X116500000Y-99000000D02*
X115250000Y-100250000D01*
X103715000Y-101800000D02*
X101965000Y-101800000D01*
X101650000Y-102115000D02*
X101650000Y-105682800D01*
X101065100Y-107995400D02*
X101065100Y-106267700D01*
X99389600Y-105682800D02*
X99366700Y-105659900D01*
X112225000Y-98250000D02*
X110225000Y-96250000D01*
X106500000Y-99015300D02*
X103715000Y-101800000D01*
X101965000Y-101800000D02*
X101650000Y-102115000D01*
X101650000Y-105682800D02*
X99389600Y-105682800D01*
X101065100Y-106267700D02*
X101650000Y-105682800D01*
X110225000Y-96250000D02*
X107140000Y-96250000D01*
X106500000Y-96890300D02*
X106500000Y-99015300D01*
X107140000Y-96250000D02*
X106500000Y-96890300D01*
X85825000Y-110000000D02*
X88225000Y-110000000D01*
G04 #@! TA.AperFunction,Conductor*
G36*
X56644182Y-88520185D02*
G01*
X56689937Y-88572989D01*
X56699881Y-88642147D01*
X56677461Y-88697385D01*
X56631132Y-88761151D01*
X56516760Y-88985616D01*
X56438910Y-89225214D01*
X56399500Y-89474038D01*
X56399500Y-89725961D01*
X56438910Y-89974785D01*
X56516760Y-90214383D01*
X56631132Y-90438848D01*
X56779201Y-90642649D01*
X56779205Y-90642654D01*
X56957345Y-90820794D01*
X56957350Y-90820798D01*
X57135117Y-90949952D01*
X57161155Y-90968870D01*
X57304184Y-91041747D01*
X57385616Y-91083239D01*
X57385618Y-91083239D01*
X57385621Y-91083241D01*
X57625215Y-91161090D01*
X57874038Y-91200500D01*
X57874039Y-91200500D01*
X58125961Y-91200500D01*
X58125962Y-91200500D01*
X58374785Y-91161090D01*
X58614379Y-91083241D01*
X58838845Y-90968870D01*
X59042656Y-90820793D01*
X59220793Y-90642656D01*
X59368870Y-90438845D01*
X59483241Y-90214379D01*
X59561090Y-89974785D01*
X59600500Y-89725962D01*
X59600500Y-89474038D01*
X59561090Y-89225215D01*
X59483241Y-88985621D01*
X59483239Y-88985618D01*
X59483239Y-88985616D01*
X59441747Y-88904184D01*
X59368870Y-88761155D01*
X59361602Y-88751152D01*
X59322539Y-88697385D01*
X59299059Y-88631579D01*
X59314884Y-88563525D01*
X59364990Y-88514830D01*
X59422857Y-88500500D01*
X114577143Y-88500500D01*
X114644182Y-88520185D01*
X114689937Y-88572989D01*
X114699881Y-88642147D01*
X114677461Y-88697385D01*
X114631132Y-88761151D01*
X114516760Y-88985616D01*
X114438910Y-89225214D01*
X114399500Y-89474038D01*
X114399500Y-89725961D01*
X114438910Y-89974785D01*
X114516760Y-90214383D01*
X114631132Y-90438848D01*
X114779201Y-90642649D01*
X114779205Y-90642654D01*
X114957345Y-90820794D01*
X114957350Y-90820798D01*
X115135117Y-90949952D01*
X115161155Y-90968870D01*
X115304184Y-91041747D01*
X115385616Y-91083239D01*
X115385618Y-91083239D01*
X115385621Y-91083241D01*
X115625215Y-91161090D01*
X115874038Y-91200500D01*
X115874039Y-91200500D01*
X116125961Y-91200500D01*
X116125962Y-91200500D01*
X116374785Y-91161090D01*
X116614379Y-91083241D01*
X116838845Y-90968870D01*
X117042656Y-90820793D01*
X117220793Y-90642656D01*
X117368870Y-90438845D01*
X117483241Y-90214379D01*
X117561090Y-89974785D01*
X117600500Y-89725962D01*
X117600500Y-89474038D01*
X117561090Y-89225215D01*
X117483241Y-88985621D01*
X117483239Y-88985618D01*
X117483239Y-88985616D01*
X117441747Y-88904184D01*
X117368870Y-88761155D01*
X117361602Y-88751152D01*
X117322539Y-88697385D01*
X117299059Y-88631579D01*
X117314884Y-88563525D01*
X117364990Y-88514830D01*
X117422857Y-88500500D01*
X118375500Y-88500500D01*
X118442539Y-88520185D01*
X118488294Y-88572989D01*
X118499500Y-88624500D01*
X118499500Y-123375500D01*
X118479815Y-123442539D01*
X118427011Y-123488294D01*
X118375500Y-123499500D01*
X117422857Y-123499500D01*
X117355818Y-123479815D01*
X117310063Y-123427011D01*
X117300119Y-123357853D01*
X117322539Y-123302615D01*
X117340183Y-123278329D01*
X117368870Y-123238845D01*
X117483241Y-123014379D01*
X117561090Y-122774785D01*
X117600500Y-122525962D01*
X117600500Y-122274038D01*
X117561090Y-122025215D01*
X117483241Y-121785621D01*
X117483239Y-121785618D01*
X117483239Y-121785616D01*
X117441747Y-121704184D01*
X117368870Y-121561155D01*
X117349952Y-121535117D01*
X117220798Y-121357350D01*
X117220794Y-121357345D01*
X117042654Y-121179205D01*
X117042649Y-121179201D01*
X116838848Y-121031132D01*
X116838847Y-121031131D01*
X116838845Y-121031130D01*
X116768747Y-120995413D01*
X116614383Y-120916760D01*
X116374785Y-120838910D01*
X116125962Y-120799500D01*
X115874038Y-120799500D01*
X115749626Y-120819205D01*
X115625214Y-120838910D01*
X115385616Y-120916760D01*
X115161151Y-121031132D01*
X114957350Y-121179201D01*
X114957345Y-121179205D01*
X114779205Y-121357345D01*
X114779201Y-121357350D01*
X114631132Y-121561151D01*
X114516760Y-121785616D01*
X114438910Y-122025214D01*
X114399500Y-122274038D01*
X114399500Y-122525961D01*
X114438910Y-122774785D01*
X114516760Y-123014383D01*
X114631132Y-123238848D01*
X114677461Y-123302615D01*
X114700941Y-123368421D01*
X114685116Y-123436475D01*
X114635010Y-123485170D01*
X114577143Y-123499500D01*
X59422857Y-123499500D01*
X59355818Y-123479815D01*
X59310063Y-123427011D01*
X59300119Y-123357853D01*
X59322539Y-123302615D01*
X59340183Y-123278329D01*
X59368870Y-123238845D01*
X59483241Y-123014379D01*
X59561090Y-122774785D01*
X59600500Y-122525962D01*
X59600500Y-122274038D01*
X59561090Y-122025215D01*
X59483241Y-121785621D01*
X59483239Y-121785618D01*
X59483239Y-121785616D01*
X59441747Y-121704184D01*
X59368870Y-121561155D01*
X59349952Y-121535117D01*
X59220798Y-121357350D01*
X59220794Y-121357345D01*
X59042654Y-121179205D01*
X59042649Y-121179201D01*
X58838848Y-121031132D01*
X58838847Y-121031131D01*
X58838845Y-121031130D01*
X58768747Y-120995413D01*
X58614383Y-120916760D01*
X58374785Y-120838910D01*
X58125962Y-120799500D01*
X57874038Y-120799500D01*
X57749626Y-120819205D01*
X57625214Y-120838910D01*
X57385616Y-120916760D01*
X57161151Y-121031132D01*
X56957350Y-121179201D01*
X56957345Y-121179205D01*
X56779205Y-121357345D01*
X56779201Y-121357350D01*
X56631132Y-121561151D01*
X56516760Y-121785616D01*
X56438910Y-122025214D01*
X56399500Y-122274038D01*
X56399500Y-122525961D01*
X56438910Y-122774785D01*
X56516760Y-123014383D01*
X56631132Y-123238848D01*
X56677461Y-123302615D01*
X56700941Y-123368421D01*
X56685116Y-123436475D01*
X56635010Y-123485170D01*
X56577143Y-123499500D01*
X55624500Y-123499500D01*
X55557461Y-123479815D01*
X55511706Y-123427011D01*
X55500500Y-123375500D01*
X55500500Y-119124000D01*
X55520185Y-119056961D01*
X55572989Y-119011206D01*
X55624500Y-119000000D01*
X60000000Y-119000000D01*
X60000000Y-118064500D01*
X60019685Y-117997461D01*
X60072489Y-117951706D01*
X60124000Y-117940500D01*
X61874676Y-117940500D01*
X61874677Y-117940499D01*
X61947740Y-117925966D01*
X62030601Y-117870601D01*
X62085966Y-117787740D01*
X62100500Y-117714674D01*
X62100500Y-116753389D01*
X62439500Y-116753389D01*
X62439500Y-116926611D01*
X62466598Y-117097701D01*
X62520127Y-117262445D01*
X62598768Y-117416788D01*
X62700586Y-117556928D01*
X62823072Y-117679414D01*
X62963212Y-117781232D01*
X63117555Y-117859873D01*
X63282299Y-117913402D01*
X63453389Y-117940500D01*
X63453390Y-117940500D01*
X63626610Y-117940500D01*
X63626611Y-117940500D01*
X63797701Y-117913402D01*
X63962445Y-117859873D01*
X64116788Y-117781232D01*
X64256928Y-117679414D01*
X64379414Y-117556928D01*
X64481232Y-117416788D01*
X64559873Y-117262445D01*
X64613402Y-117097701D01*
X64640500Y-116926611D01*
X64640500Y-116753389D01*
X64979500Y-116753389D01*
X64979500Y-116926611D01*
X65006598Y-117097701D01*
X65060127Y-117262445D01*
X65138768Y-117416788D01*
X65240586Y-117556928D01*
X65363072Y-117679414D01*
X65503212Y-117781232D01*
X65657555Y-117859873D01*
X65822299Y-117913402D01*
X65993389Y-117940500D01*
X65993390Y-117940500D01*
X66166610Y-117940500D01*
X66166611Y-117940500D01*
X66337701Y-117913402D01*
X66502445Y-117859873D01*
X66656788Y-117781232D01*
X66796928Y-117679414D01*
X66919414Y-117556928D01*
X67021232Y-117416788D01*
X67099873Y-117262445D01*
X67153402Y-117097701D01*
X67180500Y-116926611D01*
X67180500Y-116753389D01*
X67519500Y-116753389D01*
X67519500Y-116926611D01*
X67546598Y-117097701D01*
X67600127Y-117262445D01*
X67678768Y-117416788D01*
X67780586Y-117556928D01*
X67903072Y-117679414D01*
X68043212Y-117781232D01*
X68197555Y-117859873D01*
X68362299Y-117913402D01*
X68533389Y-117940500D01*
X68533390Y-117940500D01*
X68706610Y-117940500D01*
X68706611Y-117940500D01*
X68877701Y-117913402D01*
X69042445Y-117859873D01*
X69196788Y-117781232D01*
X69336928Y-117679414D01*
X69459414Y-117556928D01*
X69561232Y-117416788D01*
X69639873Y-117262445D01*
X69693402Y-117097701D01*
X69720500Y-116926611D01*
X69720500Y-116753389D01*
X70059500Y-116753389D01*
X70059500Y-116926611D01*
X70086598Y-117097701D01*
X70140127Y-117262445D01*
X70218768Y-117416788D01*
X70320586Y-117556928D01*
X70443072Y-117679414D01*
X70583212Y-117781232D01*
X70737555Y-117859873D01*
X70902299Y-117913402D01*
X71073389Y-117940500D01*
X71073390Y-117940500D01*
X71246610Y-117940500D01*
X71246611Y-117940500D01*
X71417701Y-117913402D01*
X71582445Y-117859873D01*
X71736788Y-117781232D01*
X71876928Y-117679414D01*
X71999414Y-117556928D01*
X72101232Y-117416788D01*
X72179873Y-117262445D01*
X72233402Y-117097701D01*
X72260500Y-116926611D01*
X72260500Y-116753389D01*
X72599500Y-116753389D01*
X72599500Y-116926611D01*
X72626598Y-117097701D01*
X72680127Y-117262445D01*
X72758768Y-117416788D01*
X72860586Y-117556928D01*
X72983072Y-117679414D01*
X73123212Y-117781232D01*
X73277555Y-117859873D01*
X73442299Y-117913402D01*
X73613389Y-117940500D01*
X73613390Y-117940500D01*
X73786610Y-117940500D01*
X73786611Y-117940500D01*
X73957701Y-117913402D01*
X74122445Y-117859873D01*
X74276788Y-117781232D01*
X74416928Y-117679414D01*
X74539414Y-117556928D01*
X74641232Y-117416788D01*
X74719873Y-117262445D01*
X74773402Y-117097701D01*
X74800500Y-116926611D01*
X74800500Y-116753389D01*
X75139500Y-116753389D01*
X75139500Y-116926611D01*
X75166598Y-117097701D01*
X75220127Y-117262445D01*
X75298768Y-117416788D01*
X75400586Y-117556928D01*
X75523072Y-117679414D01*
X75663212Y-117781232D01*
X75817555Y-117859873D01*
X75982299Y-117913402D01*
X76153389Y-117940500D01*
X76153390Y-117940500D01*
X76326610Y-117940500D01*
X76326611Y-117940500D01*
X76497701Y-117913402D01*
X76662445Y-117859873D01*
X76816788Y-117781232D01*
X76956928Y-117679414D01*
X77079414Y-117556928D01*
X77181232Y-117416788D01*
X77259873Y-117262445D01*
X77313402Y-117097701D01*
X77340500Y-116926611D01*
X77340500Y-116753389D01*
X77679500Y-116753389D01*
X77679500Y-116926611D01*
X77706598Y-117097701D01*
X77760127Y-117262445D01*
X77838768Y-117416788D01*
X77940586Y-117556928D01*
X78063072Y-117679414D01*
X78203212Y-117781232D01*
X78357555Y-117859873D01*
X78522299Y-117913402D01*
X78693389Y-117940500D01*
X78693390Y-117940500D01*
X78866610Y-117940500D01*
X78866611Y-117940500D01*
X79037701Y-117913402D01*
X79202445Y-117859873D01*
X79356788Y-117781232D01*
X79496928Y-117679414D01*
X79619414Y-117556928D01*
X79721232Y-117416788D01*
X79799873Y-117262445D01*
X79853402Y-117097701D01*
X79880500Y-116926611D01*
X79880500Y-116753389D01*
X80219500Y-116753389D01*
X80219500Y-116926611D01*
X80246598Y-117097701D01*
X80300127Y-117262445D01*
X80378768Y-117416788D01*
X80480586Y-117556928D01*
X80603072Y-117679414D01*
X80743212Y-117781232D01*
X80897555Y-117859873D01*
X81062299Y-117913402D01*
X81233389Y-117940500D01*
X81233390Y-117940500D01*
X81406610Y-117940500D01*
X81406611Y-117940500D01*
X81577701Y-117913402D01*
X81742445Y-117859873D01*
X81896788Y-117781232D01*
X82036928Y-117679414D01*
X82159414Y-117556928D01*
X82261232Y-117416788D01*
X82339873Y-117262445D01*
X82393402Y-117097701D01*
X82420500Y-116926611D01*
X82420500Y-116753389D01*
X82393402Y-116582299D01*
X82339873Y-116417555D01*
X82261232Y-116263212D01*
X82159414Y-116123072D01*
X82036928Y-116000586D01*
X81896788Y-115898768D01*
X81884015Y-115892260D01*
X81742447Y-115820128D01*
X81742446Y-115820127D01*
X81742445Y-115820127D01*
X81577701Y-115766598D01*
X81577699Y-115766597D01*
X81577698Y-115766597D01*
X81444279Y-115745466D01*
X81406611Y-115739500D01*
X81233389Y-115739500D01*
X81195721Y-115745466D01*
X81062302Y-115766597D01*
X80897552Y-115820128D01*
X80743211Y-115898768D01*
X80663256Y-115956859D01*
X80603072Y-116000586D01*
X80603070Y-116000588D01*
X80603069Y-116000588D01*
X80480588Y-116123069D01*
X80480588Y-116123070D01*
X80480586Y-116123072D01*
X80436859Y-116183256D01*
X80378768Y-116263211D01*
X80300128Y-116417552D01*
X80246597Y-116582302D01*
X80219500Y-116753389D01*
X79880500Y-116753389D01*
X79853402Y-116582299D01*
X79799873Y-116417555D01*
X79721232Y-116263212D01*
X79619414Y-116123072D01*
X79496928Y-116000586D01*
X79356788Y-115898768D01*
X79344015Y-115892260D01*
X79202447Y-115820128D01*
X79202446Y-115820127D01*
X79202445Y-115820127D01*
X79037701Y-115766598D01*
X79037699Y-115766597D01*
X79037698Y-115766597D01*
X78904279Y-115745466D01*
X78866611Y-115739500D01*
X78693389Y-115739500D01*
X78655721Y-115745466D01*
X78522302Y-115766597D01*
X78357552Y-115820128D01*
X78203211Y-115898768D01*
X78123256Y-115956859D01*
X78063072Y-116000586D01*
X78063070Y-116000588D01*
X78063069Y-116000588D01*
X77940588Y-116123069D01*
X77940588Y-116123070D01*
X77940586Y-116123072D01*
X77896859Y-116183256D01*
X77838768Y-116263211D01*
X77760128Y-116417552D01*
X77706597Y-116582302D01*
X77679500Y-116753389D01*
X77340500Y-116753389D01*
X77313402Y-116582299D01*
X77259873Y-116417555D01*
X77181232Y-116263212D01*
X77079414Y-116123072D01*
X76956928Y-116000586D01*
X76816788Y-115898768D01*
X76804015Y-115892260D01*
X76662447Y-115820128D01*
X76662446Y-115820127D01*
X76662445Y-115820127D01*
X76497701Y-115766598D01*
X76497699Y-115766597D01*
X76497698Y-115766597D01*
X76364279Y-115745466D01*
X76326611Y-115739500D01*
X76153389Y-115739500D01*
X76115721Y-115745466D01*
X75982302Y-115766597D01*
X75817552Y-115820128D01*
X75663211Y-115898768D01*
X75583256Y-115956859D01*
X75523072Y-116000586D01*
X75523070Y-116000588D01*
X75523069Y-116000588D01*
X75400588Y-116123069D01*
X75400588Y-116123070D01*
X75400586Y-116123072D01*
X75356859Y-116183256D01*
X75298768Y-116263211D01*
X75220128Y-116417552D01*
X75166597Y-116582302D01*
X75139500Y-116753389D01*
X74800500Y-116753389D01*
X74773402Y-116582299D01*
X74719873Y-116417555D01*
X74641232Y-116263212D01*
X74539414Y-116123072D01*
X74416928Y-116000586D01*
X74276788Y-115898768D01*
X74264015Y-115892260D01*
X74122447Y-115820128D01*
X74122446Y-115820127D01*
X74122445Y-115820127D01*
X73957701Y-115766598D01*
X73957699Y-115766597D01*
X73957698Y-115766597D01*
X73824279Y-115745466D01*
X73786611Y-115739500D01*
X73613389Y-115739500D01*
X73575721Y-115745466D01*
X73442302Y-115766597D01*
X73277552Y-115820128D01*
X73123211Y-115898768D01*
X73043256Y-115956859D01*
X72983072Y-116000586D01*
X72983070Y-116000588D01*
X72983069Y-116000588D01*
X72860588Y-116123069D01*
X72860588Y-116123070D01*
X72860586Y-116123072D01*
X72816859Y-116183256D01*
X72758768Y-116263211D01*
X72680128Y-116417552D01*
X72626597Y-116582302D01*
X72599500Y-116753389D01*
X72260500Y-116753389D01*
X72233402Y-116582299D01*
X72179873Y-116417555D01*
X72101232Y-116263212D01*
X71999414Y-116123072D01*
X71876928Y-116000586D01*
X71736788Y-115898768D01*
X71724015Y-115892260D01*
X71582447Y-115820128D01*
X71582446Y-115820127D01*
X71582445Y-115820127D01*
X71417701Y-115766598D01*
X71417699Y-115766597D01*
X71417698Y-115766597D01*
X71284279Y-115745466D01*
X71246611Y-115739500D01*
X71073389Y-115739500D01*
X71035721Y-115745466D01*
X70902302Y-115766597D01*
X70737552Y-115820128D01*
X70583211Y-115898768D01*
X70503256Y-115956859D01*
X70443072Y-116000586D01*
X70443070Y-116000588D01*
X70443069Y-116000588D01*
X70320588Y-116123069D01*
X70320588Y-116123070D01*
X70320586Y-116123072D01*
X70276859Y-116183256D01*
X70218768Y-116263211D01*
X70140128Y-116417552D01*
X70086597Y-116582302D01*
X70059500Y-116753389D01*
X69720500Y-116753389D01*
X69693402Y-116582299D01*
X69639873Y-116417555D01*
X69561232Y-116263212D01*
X69459414Y-116123072D01*
X69336928Y-116000586D01*
X69196788Y-115898768D01*
X69184015Y-115892260D01*
X69042447Y-115820128D01*
X69042446Y-115820127D01*
X69042445Y-115820127D01*
X68877701Y-115766598D01*
X68877699Y-115766597D01*
X68877698Y-115766597D01*
X68744279Y-115745466D01*
X68706611Y-115739500D01*
X68533389Y-115739500D01*
X68495721Y-115745466D01*
X68362302Y-115766597D01*
X68197552Y-115820128D01*
X68043211Y-115898768D01*
X67963256Y-115956859D01*
X67903072Y-116000586D01*
X67903070Y-116000588D01*
X67903069Y-116000588D01*
X67780588Y-116123069D01*
X67780588Y-116123070D01*
X67780586Y-116123072D01*
X67736859Y-116183256D01*
X67678768Y-116263211D01*
X67600128Y-116417552D01*
X67546597Y-116582302D01*
X67519500Y-116753389D01*
X67180500Y-116753389D01*
X67153402Y-116582299D01*
X67099873Y-116417555D01*
X67021232Y-116263212D01*
X66919414Y-116123072D01*
X66796928Y-116000586D01*
X66656788Y-115898768D01*
X66644015Y-115892260D01*
X66502447Y-115820128D01*
X66502446Y-115820127D01*
X66502445Y-115820127D01*
X66337701Y-115766598D01*
X66337699Y-115766597D01*
X66337698Y-115766597D01*
X66204279Y-115745466D01*
X66166611Y-115739500D01*
X65993389Y-115739500D01*
X65955721Y-115745466D01*
X65822302Y-115766597D01*
X65657552Y-115820128D01*
X65503211Y-115898768D01*
X65423256Y-115956859D01*
X65363072Y-116000586D01*
X65363070Y-116000588D01*
X65363069Y-116000588D01*
X65240588Y-116123069D01*
X65240588Y-116123070D01*
X65240586Y-116123072D01*
X65196859Y-116183256D01*
X65138768Y-116263211D01*
X65060128Y-116417552D01*
X65006597Y-116582302D01*
X64979500Y-116753389D01*
X64640500Y-116753389D01*
X64613402Y-116582299D01*
X64559873Y-116417555D01*
X64481232Y-116263212D01*
X64379414Y-116123072D01*
X64256928Y-116000586D01*
X64116788Y-115898768D01*
X64104015Y-115892260D01*
X63962447Y-115820128D01*
X63962446Y-115820127D01*
X63962445Y-115820127D01*
X63797701Y-115766598D01*
X63797699Y-115766597D01*
X63797698Y-115766597D01*
X63664279Y-115745466D01*
X63626611Y-115739500D01*
X63453389Y-115739500D01*
X63415721Y-115745466D01*
X63282302Y-115766597D01*
X63117552Y-115820128D01*
X62963211Y-115898768D01*
X62883256Y-115956859D01*
X62823072Y-116000586D01*
X62823070Y-116000588D01*
X62823069Y-116000588D01*
X62700588Y-116123069D01*
X62700588Y-116123070D01*
X62700586Y-116123072D01*
X62656859Y-116183256D01*
X62598768Y-116263211D01*
X62520128Y-116417552D01*
X62466597Y-116582302D01*
X62439500Y-116753389D01*
X62100500Y-116753389D01*
X62100500Y-115965326D01*
X62100500Y-115965323D01*
X62100499Y-115965321D01*
X62085967Y-115892264D01*
X62085966Y-115892260D01*
X62075609Y-115876760D01*
X62030601Y-115809399D01*
X61948755Y-115754712D01*
X61947739Y-115754033D01*
X61947735Y-115754032D01*
X61874677Y-115739500D01*
X61874674Y-115739500D01*
X61474500Y-115739500D01*
X61407461Y-115719815D01*
X61361706Y-115667011D01*
X61350500Y-115615500D01*
X61350500Y-111783423D01*
X61370185Y-111716384D01*
X61422989Y-111670629D01*
X61492147Y-111660685D01*
X61555703Y-111689710D01*
X61573763Y-111709107D01*
X61647454Y-111807546D01*
X61678587Y-111830852D01*
X61762664Y-111893793D01*
X61762671Y-111893797D01*
X61768964Y-111896144D01*
X61897517Y-111944091D01*
X61957127Y-111950500D01*
X62577872Y-111950499D01*
X62637483Y-111944091D01*
X62637482Y-111944091D01*
X62645196Y-111943262D01*
X62645451Y-111945642D01*
X62703367Y-111948735D01*
X62749817Y-111977999D01*
X63366487Y-112594669D01*
X63416226Y-112623386D01*
X63416228Y-112623387D01*
X63446409Y-112640813D01*
X63446411Y-112640813D01*
X63446412Y-112640814D01*
X63535556Y-112664700D01*
X67134114Y-112664700D01*
X67201153Y-112684385D01*
X67221795Y-112701019D01*
X67275485Y-112754709D01*
X67275486Y-112754710D01*
X67275488Y-112754711D01*
X67401011Y-112827182D01*
X67401012Y-112827182D01*
X67401015Y-112827184D01*
X67541025Y-112864700D01*
X67541028Y-112864700D01*
X67685972Y-112864700D01*
X67685975Y-112864700D01*
X67825985Y-112827184D01*
X67951515Y-112754709D01*
X68054009Y-112652215D01*
X68126484Y-112526685D01*
X68164000Y-112386675D01*
X68164000Y-112241725D01*
X68126484Y-112101715D01*
X68112092Y-112076788D01*
X68054011Y-111976188D01*
X68054006Y-111976182D01*
X67951517Y-111873693D01*
X67951511Y-111873688D01*
X67825988Y-111801217D01*
X67825989Y-111801217D01*
X67814506Y-111798140D01*
X67685975Y-111763700D01*
X67541025Y-111763700D01*
X67412493Y-111798140D01*
X67401011Y-111801217D01*
X67275488Y-111873688D01*
X67275482Y-111873693D01*
X67221795Y-111927381D01*
X67160472Y-111960866D01*
X67134114Y-111963700D01*
X66838371Y-111963700D01*
X66771332Y-111944015D01*
X66725577Y-111891211D01*
X66715633Y-111822053D01*
X66739105Y-111765388D01*
X66740369Y-111763700D01*
X66793796Y-111692331D01*
X66844091Y-111557483D01*
X66850500Y-111497873D01*
X66850499Y-110784042D01*
X66870183Y-110717004D01*
X66886813Y-110696367D01*
X67461063Y-110122119D01*
X67522386Y-110088634D01*
X67548744Y-110085800D01*
X67652614Y-110085800D01*
X67719653Y-110105485D01*
X67740295Y-110122119D01*
X67793985Y-110175809D01*
X67793986Y-110175810D01*
X67793988Y-110175811D01*
X67919511Y-110248282D01*
X67919512Y-110248282D01*
X67919515Y-110248284D01*
X68059525Y-110285800D01*
X68059528Y-110285800D01*
X68204472Y-110285800D01*
X68204475Y-110285800D01*
X68344485Y-110248284D01*
X68470015Y-110175809D01*
X68542819Y-110103005D01*
X68604142Y-110069520D01*
X68673834Y-110074504D01*
X68729767Y-110116376D01*
X68754184Y-110181840D01*
X68754500Y-110190686D01*
X68754500Y-112941104D01*
X68754495Y-112982131D01*
X68754500Y-112982168D01*
X68754681Y-112982819D01*
X68767591Y-113031001D01*
X68767592Y-113031012D01*
X68767594Y-113031012D01*
X68778377Y-113071272D01*
X68778381Y-113071280D01*
X68799617Y-113108061D01*
X68799620Y-113108074D01*
X68799624Y-113108073D01*
X68799625Y-113108074D01*
X68824509Y-113151185D01*
X68824511Y-113151187D01*
X68824527Y-113151208D01*
X68824530Y-113151211D01*
X68824531Y-113151212D01*
X68849949Y-113176630D01*
X68849955Y-113176641D01*
X68849958Y-113176639D01*
X69838323Y-114165198D01*
X69838331Y-114165212D01*
X69867930Y-114194811D01*
X69903560Y-114230448D01*
X69903576Y-114230457D01*
X69903588Y-114230469D01*
X69941032Y-114252088D01*
X69983480Y-114276601D01*
X69983497Y-114276605D01*
X69983512Y-114276614D01*
X70029686Y-114288986D01*
X70029696Y-114288992D01*
X70029697Y-114288989D01*
X70072622Y-114300495D01*
X70072625Y-114300495D01*
X70072654Y-114300499D01*
X70072656Y-114300500D01*
X70072657Y-114300500D01*
X70123893Y-114300500D01*
X70164909Y-114300504D01*
X70164911Y-114300503D01*
X70172951Y-114300504D01*
X70173028Y-114300500D01*
X80773456Y-114300500D01*
X80840495Y-114320185D01*
X80861137Y-114336819D01*
X82811347Y-116287029D01*
X82844832Y-116348352D01*
X82841597Y-116413028D01*
X82786597Y-116582301D01*
X82759500Y-116753389D01*
X82759500Y-116926611D01*
X82786598Y-117097701D01*
X82840127Y-117262445D01*
X82918768Y-117416788D01*
X83020586Y-117556928D01*
X83143072Y-117679414D01*
X83283212Y-117781232D01*
X83437555Y-117859873D01*
X83602299Y-117913402D01*
X83773389Y-117940500D01*
X83773390Y-117940500D01*
X83946610Y-117940500D01*
X83946611Y-117940500D01*
X84117701Y-117913402D01*
X84282445Y-117859873D01*
X84436788Y-117781232D01*
X84576928Y-117679414D01*
X84699414Y-117556928D01*
X84801232Y-117416788D01*
X84879873Y-117262445D01*
X84933402Y-117097701D01*
X84960500Y-116926611D01*
X84960500Y-116753389D01*
X84933402Y-116582299D01*
X84879873Y-116417555D01*
X84801232Y-116263212D01*
X84699414Y-116123072D01*
X84576928Y-116000586D01*
X84436788Y-115898768D01*
X84424015Y-115892260D01*
X84282447Y-115820128D01*
X84282446Y-115820127D01*
X84282445Y-115820127D01*
X84117701Y-115766598D01*
X84117699Y-115766597D01*
X84117698Y-115766597D01*
X83984279Y-115745466D01*
X83946611Y-115739500D01*
X83773389Y-115739500D01*
X83741192Y-115744599D01*
X83602301Y-115766597D01*
X83433028Y-115821597D01*
X83363186Y-115823592D01*
X83307029Y-115791347D01*
X81627863Y-114112181D01*
X81594378Y-114050858D01*
X81599362Y-113981166D01*
X81641234Y-113925233D01*
X81706698Y-113900816D01*
X81715544Y-113900500D01*
X82913456Y-113900500D01*
X82980495Y-113920185D01*
X83001137Y-113936819D01*
X85351347Y-116287029D01*
X85384832Y-116348352D01*
X85381597Y-116413028D01*
X85326597Y-116582301D01*
X85299500Y-116753389D01*
X85299500Y-116926611D01*
X85326598Y-117097701D01*
X85380127Y-117262445D01*
X85458768Y-117416788D01*
X85560586Y-117556928D01*
X85683072Y-117679414D01*
X85823212Y-117781232D01*
X85977555Y-117859873D01*
X86142299Y-117913402D01*
X86313389Y-117940500D01*
X86313390Y-117940500D01*
X86486610Y-117940500D01*
X86486611Y-117940500D01*
X86657701Y-117913402D01*
X86822445Y-117859873D01*
X86976788Y-117781232D01*
X87116928Y-117679414D01*
X87239414Y-117556928D01*
X87341232Y-117416788D01*
X87419873Y-117262445D01*
X87473402Y-117097701D01*
X87500500Y-116926611D01*
X87500500Y-116753389D01*
X87839500Y-116753389D01*
X87839500Y-116926611D01*
X87866598Y-117097701D01*
X87920127Y-117262445D01*
X87998768Y-117416788D01*
X88100586Y-117556928D01*
X88223072Y-117679414D01*
X88363212Y-117781232D01*
X88517555Y-117859873D01*
X88682299Y-117913402D01*
X88853389Y-117940500D01*
X88853390Y-117940500D01*
X89026610Y-117940500D01*
X89026611Y-117940500D01*
X89197701Y-117913402D01*
X89362445Y-117859873D01*
X89516788Y-117781232D01*
X89656928Y-117679414D01*
X89779414Y-117556928D01*
X89881232Y-117416788D01*
X89959873Y-117262445D01*
X90013402Y-117097701D01*
X90040500Y-116926611D01*
X90040500Y-116753389D01*
X90379500Y-116753389D01*
X90379500Y-116926611D01*
X90406598Y-117097701D01*
X90460127Y-117262445D01*
X90538768Y-117416788D01*
X90640586Y-117556928D01*
X90763072Y-117679414D01*
X90903212Y-117781232D01*
X91057555Y-117859873D01*
X91222299Y-117913402D01*
X91393389Y-117940500D01*
X91393390Y-117940500D01*
X91566610Y-117940500D01*
X91566611Y-117940500D01*
X91737701Y-117913402D01*
X91902445Y-117859873D01*
X92056788Y-117781232D01*
X92196928Y-117679414D01*
X92319414Y-117556928D01*
X92421232Y-117416788D01*
X92499873Y-117262445D01*
X92553402Y-117097701D01*
X92580500Y-116926611D01*
X92580500Y-116753389D01*
X92919500Y-116753389D01*
X92919500Y-116926611D01*
X92946598Y-117097701D01*
X93000127Y-117262445D01*
X93078768Y-117416788D01*
X93180586Y-117556928D01*
X93303072Y-117679414D01*
X93443212Y-117781232D01*
X93597555Y-117859873D01*
X93762299Y-117913402D01*
X93933389Y-117940500D01*
X93933390Y-117940500D01*
X94106610Y-117940500D01*
X94106611Y-117940500D01*
X94277701Y-117913402D01*
X94442445Y-117859873D01*
X94596788Y-117781232D01*
X94736928Y-117679414D01*
X94859414Y-117556928D01*
X94961232Y-117416788D01*
X95039873Y-117262445D01*
X95093402Y-117097701D01*
X95120500Y-116926611D01*
X95120500Y-116753389D01*
X95459500Y-116753389D01*
X95459500Y-116926611D01*
X95486598Y-117097701D01*
X95540127Y-117262445D01*
X95618768Y-117416788D01*
X95720586Y-117556928D01*
X95843072Y-117679414D01*
X95983212Y-117781232D01*
X96137555Y-117859873D01*
X96302299Y-117913402D01*
X96473389Y-117940500D01*
X96473390Y-117940500D01*
X96646610Y-117940500D01*
X96646611Y-117940500D01*
X96817701Y-117913402D01*
X96982445Y-117859873D01*
X97136788Y-117781232D01*
X97276928Y-117679414D01*
X97399414Y-117556928D01*
X97501232Y-117416788D01*
X97579873Y-117262445D01*
X97633402Y-117097701D01*
X97660500Y-116926611D01*
X97660500Y-116753389D01*
X97999500Y-116753389D01*
X97999500Y-116926611D01*
X98026598Y-117097701D01*
X98080127Y-117262445D01*
X98158768Y-117416788D01*
X98260586Y-117556928D01*
X98383072Y-117679414D01*
X98523212Y-117781232D01*
X98677555Y-117859873D01*
X98842299Y-117913402D01*
X99013389Y-117940500D01*
X99013390Y-117940500D01*
X99186610Y-117940500D01*
X99186611Y-117940500D01*
X99357701Y-117913402D01*
X99522445Y-117859873D01*
X99676788Y-117781232D01*
X99816928Y-117679414D01*
X99939414Y-117556928D01*
X100041232Y-117416788D01*
X100119873Y-117262445D01*
X100173402Y-117097701D01*
X100200500Y-116926611D01*
X100200500Y-116753389D01*
X100539500Y-116753389D01*
X100539500Y-116926611D01*
X100566598Y-117097701D01*
X100620127Y-117262445D01*
X100698768Y-117416788D01*
X100800586Y-117556928D01*
X100923072Y-117679414D01*
X101063212Y-117781232D01*
X101217555Y-117859873D01*
X101382299Y-117913402D01*
X101553389Y-117940500D01*
X101553390Y-117940500D01*
X101726610Y-117940500D01*
X101726611Y-117940500D01*
X101897701Y-117913402D01*
X102062445Y-117859873D01*
X102216788Y-117781232D01*
X102356928Y-117679414D01*
X102479414Y-117556928D01*
X102581232Y-117416788D01*
X102659873Y-117262445D01*
X102713402Y-117097701D01*
X102740500Y-116926611D01*
X102740500Y-116753389D01*
X103079500Y-116753389D01*
X103079500Y-116926611D01*
X103106598Y-117097701D01*
X103160127Y-117262445D01*
X103238768Y-117416788D01*
X103340586Y-117556928D01*
X103463072Y-117679414D01*
X103603212Y-117781232D01*
X103757555Y-117859873D01*
X103922299Y-117913402D01*
X104093389Y-117940500D01*
X104093390Y-117940500D01*
X104266610Y-117940500D01*
X104266611Y-117940500D01*
X104437701Y-117913402D01*
X104602445Y-117859873D01*
X104756788Y-117781232D01*
X104896928Y-117679414D01*
X105019414Y-117556928D01*
X105121232Y-117416788D01*
X105199873Y-117262445D01*
X105253402Y-117097701D01*
X105280500Y-116926611D01*
X105280500Y-116753389D01*
X105253402Y-116582299D01*
X105199873Y-116417555D01*
X105121232Y-116263212D01*
X105019414Y-116123072D01*
X104896928Y-116000586D01*
X104756788Y-115898768D01*
X104744015Y-115892260D01*
X104602447Y-115820128D01*
X104602446Y-115820127D01*
X104602445Y-115820127D01*
X104437701Y-115766598D01*
X104437699Y-115766597D01*
X104437698Y-115766597D01*
X104304279Y-115745466D01*
X104266611Y-115739500D01*
X104093389Y-115739500D01*
X104055721Y-115745466D01*
X103922302Y-115766597D01*
X103757552Y-115820128D01*
X103603211Y-115898768D01*
X103523256Y-115956859D01*
X103463072Y-116000586D01*
X103463070Y-116000588D01*
X103463069Y-116000588D01*
X103340588Y-116123069D01*
X103340588Y-116123070D01*
X103340586Y-116123072D01*
X103296859Y-116183256D01*
X103238768Y-116263211D01*
X103160128Y-116417552D01*
X103106597Y-116582302D01*
X103079500Y-116753389D01*
X102740500Y-116753389D01*
X102713402Y-116582299D01*
X102659873Y-116417555D01*
X102581232Y-116263212D01*
X102479414Y-116123072D01*
X102356928Y-116000586D01*
X102216788Y-115898768D01*
X102204015Y-115892260D01*
X102062447Y-115820128D01*
X102062446Y-115820127D01*
X102062445Y-115820127D01*
X101897701Y-115766598D01*
X101897699Y-115766597D01*
X101897698Y-115766597D01*
X101764279Y-115745466D01*
X101726611Y-115739500D01*
X101553389Y-115739500D01*
X101515721Y-115745466D01*
X101382302Y-115766597D01*
X101217552Y-115820128D01*
X101063211Y-115898768D01*
X100983256Y-115956859D01*
X100923072Y-116000586D01*
X100923070Y-116000588D01*
X100923069Y-116000588D01*
X100800588Y-116123069D01*
X100800588Y-116123070D01*
X100800586Y-116123072D01*
X100756859Y-116183256D01*
X100698768Y-116263211D01*
X100620128Y-116417552D01*
X100566597Y-116582302D01*
X100539500Y-116753389D01*
X100200500Y-116753389D01*
X100173402Y-116582299D01*
X100119873Y-116417555D01*
X100041232Y-116263212D01*
X99939414Y-116123072D01*
X99816928Y-116000586D01*
X99676788Y-115898768D01*
X99664015Y-115892260D01*
X99522447Y-115820128D01*
X99522446Y-115820127D01*
X99522445Y-115820127D01*
X99357701Y-115766598D01*
X99357699Y-115766597D01*
X99357698Y-115766597D01*
X99224279Y-115745466D01*
X99186611Y-115739500D01*
X99013389Y-115739500D01*
X98975721Y-115745466D01*
X98842302Y-115766597D01*
X98677552Y-115820128D01*
X98523211Y-115898768D01*
X98443256Y-115956859D01*
X98383072Y-116000586D01*
X98383070Y-116000588D01*
X98383069Y-116000588D01*
X98260588Y-116123069D01*
X98260588Y-116123070D01*
X98260586Y-116123072D01*
X98216859Y-116183256D01*
X98158768Y-116263211D01*
X98080128Y-116417552D01*
X98026597Y-116582302D01*
X97999500Y-116753389D01*
X97660500Y-116753389D01*
X97633402Y-116582299D01*
X97579873Y-116417555D01*
X97501232Y-116263212D01*
X97399414Y-116123072D01*
X97276928Y-116000586D01*
X97136788Y-115898768D01*
X97124015Y-115892260D01*
X96982447Y-115820128D01*
X96982446Y-115820127D01*
X96982445Y-115820127D01*
X96817701Y-115766598D01*
X96817699Y-115766597D01*
X96817698Y-115766597D01*
X96684279Y-115745466D01*
X96646611Y-115739500D01*
X96473389Y-115739500D01*
X96435721Y-115745466D01*
X96302302Y-115766597D01*
X96137552Y-115820128D01*
X95983211Y-115898768D01*
X95903256Y-115956859D01*
X95843072Y-116000586D01*
X95843070Y-116000588D01*
X95843069Y-116000588D01*
X95720588Y-116123069D01*
X95720588Y-116123070D01*
X95720586Y-116123072D01*
X95676859Y-116183256D01*
X95618768Y-116263211D01*
X95540128Y-116417552D01*
X95486597Y-116582302D01*
X95459500Y-116753389D01*
X95120500Y-116753389D01*
X95093402Y-116582299D01*
X95039873Y-116417555D01*
X94961232Y-116263212D01*
X94859414Y-116123072D01*
X94736928Y-116000586D01*
X94596788Y-115898768D01*
X94584015Y-115892260D01*
X94442447Y-115820128D01*
X94442446Y-115820127D01*
X94442445Y-115820127D01*
X94277701Y-115766598D01*
X94277699Y-115766597D01*
X94277698Y-115766597D01*
X94144279Y-115745466D01*
X94106611Y-115739500D01*
X93933389Y-115739500D01*
X93895721Y-115745466D01*
X93762302Y-115766597D01*
X93597552Y-115820128D01*
X93443211Y-115898768D01*
X93363256Y-115956859D01*
X93303072Y-116000586D01*
X93303070Y-116000588D01*
X93303069Y-116000588D01*
X93180588Y-116123069D01*
X93180588Y-116123070D01*
X93180586Y-116123072D01*
X93136859Y-116183256D01*
X93078768Y-116263211D01*
X93000128Y-116417552D01*
X92946597Y-116582302D01*
X92919500Y-116753389D01*
X92580500Y-116753389D01*
X92553402Y-116582299D01*
X92499873Y-116417555D01*
X92421232Y-116263212D01*
X92319414Y-116123072D01*
X92196928Y-116000586D01*
X92056788Y-115898768D01*
X92044015Y-115892260D01*
X91902447Y-115820128D01*
X91902446Y-115820127D01*
X91902445Y-115820127D01*
X91737701Y-115766598D01*
X91737699Y-115766597D01*
X91737698Y-115766597D01*
X91604279Y-115745466D01*
X91566611Y-115739500D01*
X91393389Y-115739500D01*
X91355721Y-115745466D01*
X91222302Y-115766597D01*
X91057552Y-115820128D01*
X90903211Y-115898768D01*
X90823256Y-115956859D01*
X90763072Y-116000586D01*
X90763070Y-116000588D01*
X90763069Y-116000588D01*
X90640588Y-116123069D01*
X90640588Y-116123070D01*
X90640586Y-116123072D01*
X90596859Y-116183256D01*
X90538768Y-116263211D01*
X90460128Y-116417552D01*
X90406597Y-116582302D01*
X90379500Y-116753389D01*
X90040500Y-116753389D01*
X90013402Y-116582299D01*
X89959873Y-116417555D01*
X89881232Y-116263212D01*
X89779414Y-116123072D01*
X89656928Y-116000586D01*
X89516788Y-115898768D01*
X89504015Y-115892260D01*
X89362447Y-115820128D01*
X89362446Y-115820127D01*
X89362445Y-115820127D01*
X89197701Y-115766598D01*
X89197699Y-115766597D01*
X89197698Y-115766597D01*
X89064279Y-115745466D01*
X89026611Y-115739500D01*
X88853389Y-115739500D01*
X88815721Y-115745466D01*
X88682302Y-115766597D01*
X88517552Y-115820128D01*
X88363211Y-115898768D01*
X88283256Y-115956859D01*
X88223072Y-116000586D01*
X88223070Y-116000588D01*
X88223069Y-116000588D01*
X88100588Y-116123069D01*
X88100588Y-116123070D01*
X88100586Y-116123072D01*
X88056859Y-116183256D01*
X87998768Y-116263211D01*
X87920128Y-116417552D01*
X87866597Y-116582302D01*
X87839500Y-116753389D01*
X87500500Y-116753389D01*
X87473402Y-116582299D01*
X87419873Y-116417555D01*
X87341232Y-116263212D01*
X87239414Y-116123072D01*
X87116928Y-116000586D01*
X86976788Y-115898768D01*
X86964015Y-115892260D01*
X86822447Y-115820128D01*
X86822446Y-115820127D01*
X86822445Y-115820127D01*
X86657701Y-115766598D01*
X86657699Y-115766597D01*
X86657698Y-115766597D01*
X86524279Y-115745466D01*
X86486611Y-115739500D01*
X86313389Y-115739500D01*
X86281192Y-115744599D01*
X86142301Y-115766597D01*
X85973028Y-115821597D01*
X85903186Y-115823592D01*
X85847029Y-115791347D01*
X83567863Y-113512181D01*
X83534378Y-113450858D01*
X83539362Y-113381166D01*
X83581234Y-113325233D01*
X83646698Y-113300816D01*
X83655544Y-113300500D01*
X104973456Y-113300500D01*
X105040495Y-113320185D01*
X105061137Y-113336819D01*
X107408461Y-115684143D01*
X107441946Y-115745466D01*
X107436962Y-115815158D01*
X107395090Y-115871091D01*
X107329626Y-115895508D01*
X107264485Y-115882309D01*
X107209847Y-115854470D01*
X107142445Y-115820127D01*
X106977701Y-115766598D01*
X106977699Y-115766597D01*
X106977698Y-115766597D01*
X106844279Y-115745466D01*
X106806611Y-115739500D01*
X106633389Y-115739500D01*
X106595721Y-115745466D01*
X106462302Y-115766597D01*
X106297552Y-115820128D01*
X106143211Y-115898768D01*
X106063256Y-115956859D01*
X106003072Y-116000586D01*
X106003070Y-116000588D01*
X106003069Y-116000588D01*
X105880588Y-116123069D01*
X105880588Y-116123070D01*
X105880586Y-116123072D01*
X105836859Y-116183256D01*
X105778768Y-116263211D01*
X105700128Y-116417552D01*
X105646597Y-116582302D01*
X105619500Y-116753389D01*
X105619500Y-116926611D01*
X105646598Y-117097701D01*
X105700127Y-117262445D01*
X105778768Y-117416788D01*
X105880586Y-117556928D01*
X106003072Y-117679414D01*
X106143212Y-117781232D01*
X106297555Y-117859873D01*
X106462299Y-117913402D01*
X106633389Y-117940500D01*
X106633390Y-117940500D01*
X106806610Y-117940500D01*
X106806611Y-117940500D01*
X106977701Y-117913402D01*
X107142445Y-117859873D01*
X107296788Y-117781232D01*
X107436928Y-117679414D01*
X107559414Y-117556928D01*
X107605966Y-117492854D01*
X107661293Y-117450190D01*
X107730906Y-117444211D01*
X107792701Y-117476816D01*
X107813669Y-117503740D01*
X107829527Y-117531208D01*
X107829530Y-117531212D01*
X108568788Y-118270470D01*
X108648712Y-118316614D01*
X108737856Y-118340500D01*
X108737858Y-118340500D01*
X112322142Y-118340500D01*
X112322144Y-118340500D01*
X112411288Y-118316614D01*
X112491212Y-118270470D01*
X113230470Y-117531212D01*
X113276614Y-117451288D01*
X113285858Y-117416788D01*
X113300500Y-117362144D01*
X113300500Y-112746543D01*
X113320185Y-112679504D01*
X113336814Y-112658867D01*
X115279601Y-110716079D01*
X115340922Y-110682596D01*
X115410614Y-110687580D01*
X115466547Y-110729452D01*
X115490964Y-110794916D01*
X115476112Y-110863189D01*
X115467599Y-110876646D01*
X115433769Y-110923209D01*
X115355128Y-111077552D01*
X115301597Y-111242302D01*
X115274500Y-111413389D01*
X115274500Y-111586610D01*
X115301354Y-111756165D01*
X115301598Y-111757701D01*
X115355127Y-111922445D01*
X115433768Y-112076788D01*
X115535586Y-112216928D01*
X115658072Y-112339414D01*
X115798212Y-112441232D01*
X115952555Y-112519873D01*
X116117299Y-112573402D01*
X116288389Y-112600500D01*
X116288390Y-112600500D01*
X116711610Y-112600500D01*
X116711611Y-112600500D01*
X116882701Y-112573402D01*
X117047445Y-112519873D01*
X117201788Y-112441232D01*
X117341928Y-112339414D01*
X117464414Y-112216928D01*
X117566232Y-112076788D01*
X117644873Y-111922445D01*
X117698402Y-111757701D01*
X117725500Y-111586611D01*
X117725500Y-111413389D01*
X117698402Y-111242299D01*
X117644873Y-111077555D01*
X117566232Y-110923212D01*
X117464414Y-110783072D01*
X117341928Y-110660586D01*
X117201788Y-110558768D01*
X117047445Y-110480127D01*
X116882701Y-110426598D01*
X116882699Y-110426597D01*
X116882698Y-110426597D01*
X116743805Y-110404599D01*
X116711611Y-110399500D01*
X116288389Y-110399500D01*
X116256195Y-110404599D01*
X116117302Y-110426597D01*
X115952552Y-110480128D01*
X115798209Y-110558769D01*
X115751646Y-110592599D01*
X115685840Y-110616078D01*
X115617786Y-110600252D01*
X115569092Y-110550146D01*
X115555217Y-110481667D01*
X115580567Y-110416559D01*
X115591072Y-110404608D01*
X115916376Y-110079304D01*
X115977697Y-110045821D01*
X116042370Y-110049055D01*
X116117299Y-110073402D01*
X116288389Y-110100500D01*
X116288390Y-110100500D01*
X116711610Y-110100500D01*
X116711611Y-110100500D01*
X116882701Y-110073402D01*
X117047445Y-110019873D01*
X117201788Y-109941232D01*
X117341928Y-109839414D01*
X117464414Y-109716928D01*
X117566232Y-109576788D01*
X117644873Y-109422445D01*
X117698402Y-109257701D01*
X117725500Y-109086611D01*
X117725500Y-108913389D01*
X117698402Y-108742299D01*
X117644873Y-108577555D01*
X117566232Y-108423212D01*
X117464414Y-108283072D01*
X117341928Y-108160586D01*
X117201788Y-108058768D01*
X117047445Y-107980127D01*
X116882701Y-107926598D01*
X116882699Y-107926597D01*
X116882698Y-107926597D01*
X116751271Y-107905781D01*
X116711611Y-107899500D01*
X116288389Y-107899500D01*
X116248728Y-107905781D01*
X116117302Y-107926597D01*
X115952552Y-107980128D01*
X115798211Y-108058768D01*
X115718256Y-108116859D01*
X115658072Y-108160586D01*
X115658070Y-108160588D01*
X115658069Y-108160588D01*
X115535588Y-108283069D01*
X115535588Y-108283070D01*
X115535586Y-108283072D01*
X115508090Y-108320917D01*
X115433768Y-108423211D01*
X115355128Y-108577552D01*
X115301597Y-108742302D01*
X115274500Y-108913389D01*
X115274500Y-109086610D01*
X115295993Y-109222317D01*
X115301598Y-109257701D01*
X115350656Y-109408686D01*
X115355129Y-109422450D01*
X115390761Y-109492384D01*
X115403657Y-109561054D01*
X115377380Y-109625794D01*
X115367957Y-109636359D01*
X112669531Y-112334786D01*
X112669530Y-112334788D01*
X112639574Y-112386675D01*
X112632171Y-112399497D01*
X112632169Y-112399499D01*
X112623387Y-112414709D01*
X112599500Y-112503856D01*
X112599500Y-115817213D01*
X112579815Y-115884252D01*
X112527011Y-115930007D01*
X112457853Y-115939951D01*
X112402616Y-115917532D01*
X112376791Y-115898769D01*
X112222447Y-115820128D01*
X112222446Y-115820127D01*
X112222445Y-115820127D01*
X112057701Y-115766598D01*
X112057699Y-115766597D01*
X112057698Y-115766597D01*
X111924279Y-115745466D01*
X111886611Y-115739500D01*
X111713389Y-115739500D01*
X111681192Y-115744599D01*
X111542301Y-115766597D01*
X111373028Y-115821597D01*
X111303186Y-115823592D01*
X111247029Y-115791347D01*
X107725213Y-112269531D01*
X107725208Y-112269527D01*
X107645290Y-112223387D01*
X107645289Y-112223386D01*
X107645288Y-112223386D01*
X107556144Y-112199500D01*
X107556143Y-112199500D01*
X107336800Y-112199500D01*
X107269761Y-112179815D01*
X107249119Y-112163181D01*
X106973118Y-111887180D01*
X106939633Y-111825857D01*
X106944617Y-111756165D01*
X106986489Y-111700232D01*
X107051953Y-111675815D01*
X107060799Y-111675499D01*
X107497871Y-111675499D01*
X107497872Y-111675499D01*
X107557483Y-111669091D01*
X107692331Y-111618796D01*
X107747972Y-111577143D01*
X107801189Y-111537305D01*
X107866653Y-111512887D01*
X107934926Y-111527738D01*
X107984332Y-111577143D01*
X107999500Y-111636571D01*
X107999500Y-111896144D01*
X108017602Y-111963700D01*
X108017601Y-111963700D01*
X108017602Y-111963702D01*
X108023385Y-111985286D01*
X108069527Y-112065208D01*
X108069529Y-112065211D01*
X108069530Y-112065212D01*
X108742931Y-112738612D01*
X108808188Y-112803869D01*
X108808191Y-112803870D01*
X108808194Y-112803873D01*
X108888106Y-112850011D01*
X108888107Y-112850011D01*
X108888112Y-112850014D01*
X108977256Y-112873900D01*
X108977258Y-112873900D01*
X109069542Y-112873900D01*
X109069544Y-112873900D01*
X109158688Y-112850014D01*
X109238612Y-112803869D01*
X109303869Y-112738612D01*
X109350014Y-112658688D01*
X109373900Y-112569544D01*
X109373900Y-112048186D01*
X109393585Y-111981147D01*
X109410219Y-111960505D01*
X109435701Y-111935023D01*
X109463909Y-111906815D01*
X109536384Y-111781285D01*
X109573900Y-111641275D01*
X109573900Y-111496325D01*
X109536384Y-111356315D01*
X109536047Y-111355732D01*
X109463911Y-111230788D01*
X109463906Y-111230782D01*
X109361417Y-111128293D01*
X109361411Y-111128288D01*
X109235888Y-111055817D01*
X109235889Y-111055817D01*
X109224406Y-111052740D01*
X109095875Y-111018300D01*
X108950925Y-111018300D01*
X108856593Y-111043576D01*
X108786743Y-111041913D01*
X108728881Y-111002750D01*
X108701377Y-110938522D01*
X108700500Y-110923801D01*
X108700500Y-103921783D01*
X108720185Y-103854744D01*
X108772989Y-103808989D01*
X108781142Y-103805610D01*
X108805226Y-103796628D01*
X108914687Y-103714687D01*
X108996628Y-103605226D01*
X109044412Y-103477114D01*
X109046687Y-103455944D01*
X109050499Y-103420501D01*
X109050499Y-103420490D01*
X109050500Y-103420485D01*
X109050499Y-102579516D01*
X109050499Y-102576196D01*
X109051755Y-102576196D01*
X109066651Y-102513146D01*
X109116927Y-102464628D01*
X109174408Y-102450500D01*
X110553456Y-102450500D01*
X110620495Y-102470185D01*
X110641137Y-102486819D01*
X110913181Y-102758863D01*
X110946666Y-102820186D01*
X110949500Y-102846544D01*
X110949500Y-103420481D01*
X110949501Y-103420490D01*
X110955587Y-103477114D01*
X111001609Y-103600499D01*
X111003372Y-103605226D01*
X111085313Y-103714687D01*
X111194774Y-103796628D01*
X111322886Y-103844412D01*
X111379515Y-103850500D01*
X111920484Y-103850499D01*
X111977114Y-103844412D01*
X112105226Y-103796628D01*
X112214687Y-103714687D01*
X112296628Y-103605226D01*
X112344412Y-103477114D01*
X112346687Y-103455944D01*
X112350499Y-103420501D01*
X112350499Y-103420490D01*
X112350500Y-103420485D01*
X112350499Y-102579516D01*
X112344412Y-102522886D01*
X112343288Y-102519873D01*
X112322791Y-102464919D01*
X112296628Y-102394774D01*
X112214687Y-102285313D01*
X112140919Y-102230091D01*
X112105228Y-102203373D01*
X112105226Y-102203372D01*
X111977114Y-102155588D01*
X111977112Y-102155587D01*
X111977110Y-102155587D01*
X111920493Y-102149500D01*
X111379518Y-102149500D01*
X111379497Y-102149502D01*
X111362346Y-102151345D01*
X111293587Y-102138935D01*
X111261418Y-102115736D01*
X110965213Y-101819531D01*
X110965208Y-101819527D01*
X110885290Y-101773387D01*
X110885289Y-101773386D01*
X110885288Y-101773386D01*
X110796144Y-101749500D01*
X107854856Y-101749500D01*
X107765712Y-101773386D01*
X107765711Y-101773386D01*
X107765709Y-101773387D01*
X107765706Y-101773388D01*
X107685794Y-101819526D01*
X107685785Y-101819533D01*
X107319532Y-102185785D01*
X107319530Y-102185787D01*
X107319530Y-102185788D01*
X107282291Y-102250288D01*
X107282290Y-102250288D01*
X107273387Y-102265709D01*
X107273386Y-102265712D01*
X107249500Y-102354856D01*
X107249500Y-106793456D01*
X107229815Y-106860495D01*
X107213181Y-106881137D01*
X105719531Y-108374786D01*
X105719525Y-108374794D01*
X105677521Y-108447549D01*
X105677520Y-108447552D01*
X105673387Y-108454709D01*
X105673385Y-108454714D01*
X105662354Y-108495883D01*
X105649500Y-108543856D01*
X105649500Y-109958144D01*
X105664941Y-110015769D01*
X105664940Y-110015769D01*
X105664941Y-110015771D01*
X105673384Y-110047284D01*
X105673385Y-110047286D01*
X105719527Y-110127208D01*
X105719531Y-110127213D01*
X106022096Y-110429778D01*
X106055581Y-110491101D01*
X106055196Y-110534639D01*
X106056738Y-110534805D01*
X106049501Y-110602116D01*
X106049500Y-110602135D01*
X106049500Y-110664200D01*
X106029815Y-110731239D01*
X105977011Y-110776994D01*
X105907853Y-110786938D01*
X105844297Y-110757913D01*
X105837819Y-110751881D01*
X102911819Y-107825881D01*
X102878334Y-107764558D01*
X102875500Y-107738200D01*
X102875500Y-104260764D01*
X102895185Y-104193725D01*
X102947989Y-104147970D01*
X102956167Y-104144582D01*
X103092328Y-104093797D01*
X103092327Y-104093797D01*
X103092331Y-104093796D01*
X103207546Y-104007546D01*
X103293796Y-103892331D01*
X103344091Y-103757483D01*
X103350500Y-103697873D01*
X103350499Y-102302128D01*
X103348954Y-102287752D01*
X103361361Y-102218993D01*
X103408973Y-102167857D01*
X103472244Y-102150500D01*
X103724208Y-102150500D01*
X103724213Y-102150500D01*
X103761125Y-102150502D01*
X103761132Y-102150500D01*
X103761144Y-102150500D01*
X103813431Y-102136489D01*
X103850270Y-102126621D01*
X103850277Y-102126616D01*
X103850288Y-102126614D01*
X103890547Y-102103369D01*
X103930197Y-102080481D01*
X103930204Y-102080473D01*
X103930212Y-102080469D01*
X103960181Y-102050500D01*
X106662826Y-99348145D01*
X106724148Y-99314665D01*
X106793840Y-99319654D01*
X106849771Y-99361528D01*
X106874185Y-99426994D01*
X106874500Y-99435833D01*
X106874500Y-99747870D01*
X106874501Y-99747876D01*
X106880908Y-99807483D01*
X106931202Y-99942328D01*
X106931206Y-99942335D01*
X107017452Y-100057544D01*
X107017455Y-100057547D01*
X107132664Y-100143793D01*
X107132671Y-100143797D01*
X107267517Y-100194091D01*
X107267516Y-100194091D01*
X107274444Y-100194835D01*
X107327127Y-100200500D01*
X108222872Y-100200499D01*
X108282483Y-100194091D01*
X108417331Y-100143796D01*
X108532546Y-100057546D01*
X108618796Y-99942331D01*
X108647222Y-99866115D01*
X108689092Y-99810182D01*
X108754556Y-99785764D01*
X108822829Y-99800615D01*
X108851085Y-99821767D01*
X109559788Y-100530470D01*
X109608802Y-100558768D01*
X109608804Y-100558769D01*
X109639709Y-100576613D01*
X109639711Y-100576613D01*
X109639712Y-100576614D01*
X109728856Y-100600500D01*
X109728858Y-100600500D01*
X115296142Y-100600500D01*
X115296144Y-100600500D01*
X115385288Y-100576614D01*
X115413696Y-100560212D01*
X115481593Y-100543738D01*
X115547620Y-100566588D01*
X115590813Y-100621508D01*
X115597457Y-100691061D01*
X115565443Y-100753165D01*
X115563380Y-100755278D01*
X115535586Y-100783072D01*
X115433768Y-100923211D01*
X115355128Y-101077552D01*
X115301597Y-101242302D01*
X115279390Y-101382517D01*
X115274500Y-101413389D01*
X115274500Y-101586611D01*
X115277514Y-101605638D01*
X115301524Y-101757237D01*
X115301598Y-101757701D01*
X115355127Y-101922445D01*
X115433768Y-102076788D01*
X115535586Y-102216928D01*
X115658072Y-102339414D01*
X115798212Y-102441232D01*
X115952555Y-102519873D01*
X116117299Y-102573402D01*
X116288389Y-102600500D01*
X116288390Y-102600500D01*
X116711610Y-102600500D01*
X116711611Y-102600500D01*
X116882701Y-102573402D01*
X117047445Y-102519873D01*
X117201788Y-102441232D01*
X117227614Y-102422467D01*
X117293420Y-102398988D01*
X117361474Y-102414813D01*
X117410169Y-102464919D01*
X117424500Y-102522786D01*
X117424500Y-105028456D01*
X117404815Y-105095495D01*
X117388181Y-105116137D01*
X117083625Y-105420692D01*
X117022302Y-105454177D01*
X116957626Y-105450942D01*
X116882704Y-105426598D01*
X116732762Y-105402850D01*
X116711611Y-105399500D01*
X116288389Y-105399500D01*
X116267238Y-105402850D01*
X116117302Y-105426597D01*
X116117299Y-105426598D01*
X115965891Y-105475794D01*
X115952552Y-105480128D01*
X115798211Y-105558768D01*
X115718459Y-105616712D01*
X115658072Y-105660586D01*
X115658070Y-105660588D01*
X115658069Y-105660588D01*
X115535588Y-105783069D01*
X115535588Y-105783070D01*
X115535586Y-105783072D01*
X115503017Y-105827899D01*
X115433768Y-105923211D01*
X115355128Y-106077552D01*
X115301597Y-106242302D01*
X115274500Y-106413389D01*
X115274500Y-106586610D01*
X115289420Y-106680816D01*
X115301598Y-106757701D01*
X115355127Y-106922445D01*
X115433768Y-107076788D01*
X115535586Y-107216928D01*
X115658072Y-107339414D01*
X115798212Y-107441232D01*
X115952555Y-107519873D01*
X116117299Y-107573402D01*
X116288389Y-107600500D01*
X116288390Y-107600500D01*
X116711610Y-107600500D01*
X116711611Y-107600500D01*
X116882701Y-107573402D01*
X117047445Y-107519873D01*
X117201788Y-107441232D01*
X117341928Y-107339414D01*
X117464414Y-107216928D01*
X117566232Y-107076788D01*
X117644873Y-106922445D01*
X117698402Y-106757701D01*
X117725500Y-106586611D01*
X117725500Y-106413389D01*
X117698402Y-106242299D01*
X117644873Y-106077555D01*
X117609237Y-106007615D01*
X117596341Y-105938946D01*
X117622617Y-105874205D01*
X117632032Y-105863648D01*
X118055469Y-105440212D01*
X118101614Y-105360288D01*
X118105325Y-105346438D01*
X118106917Y-105340499D01*
X118116240Y-105305702D01*
X118125500Y-105271144D01*
X118125500Y-98157669D01*
X118125503Y-98119179D01*
X118125500Y-98119167D01*
X118125500Y-98119156D01*
X118113453Y-98074196D01*
X118101623Y-98030034D01*
X118101617Y-98030023D01*
X118101614Y-98030012D01*
X118081067Y-97994425D01*
X118055484Y-97950106D01*
X118055473Y-97950095D01*
X118055469Y-97950088D01*
X118028772Y-97923391D01*
X118028768Y-97923384D01*
X118028767Y-97923386D01*
X115831047Y-95725382D01*
X115797567Y-95664057D01*
X115802556Y-95594366D01*
X115834001Y-95551889D01*
X115831668Y-95549556D01*
X115881724Y-95499500D01*
X115939909Y-95441315D01*
X116012384Y-95315785D01*
X116049900Y-95175775D01*
X116049900Y-95030825D01*
X116012384Y-94890815D01*
X115991520Y-94854678D01*
X115939911Y-94765288D01*
X115939906Y-94765282D01*
X115837417Y-94662793D01*
X115837411Y-94662788D01*
X115711888Y-94590317D01*
X115711889Y-94590317D01*
X115689485Y-94584314D01*
X115571875Y-94552800D01*
X115481691Y-94552800D01*
X115414652Y-94533115D01*
X115368897Y-94480311D01*
X115358953Y-94411153D01*
X115363760Y-94390482D01*
X115413402Y-94237701D01*
X115440500Y-94066611D01*
X115440500Y-93893389D01*
X115413402Y-93722299D01*
X115359873Y-93557555D01*
X115281232Y-93403212D01*
X115179414Y-93263072D01*
X115056928Y-93140586D01*
X114916788Y-93038768D01*
X114762445Y-92960127D01*
X114597701Y-92906598D01*
X114597699Y-92906597D01*
X114597698Y-92906597D01*
X114466271Y-92885781D01*
X114426611Y-92879500D01*
X114253389Y-92879500D01*
X114213728Y-92885781D01*
X114082302Y-92906597D01*
X113917552Y-92960128D01*
X113763211Y-93038768D01*
X113683256Y-93096859D01*
X113623072Y-93140586D01*
X113623070Y-93140588D01*
X113623069Y-93140588D01*
X113500588Y-93263069D01*
X113500588Y-93263070D01*
X113500586Y-93263072D01*
X113456859Y-93323256D01*
X113398768Y-93403211D01*
X113320128Y-93557552D01*
X113266597Y-93722302D01*
X113239500Y-93893389D01*
X113239500Y-94066610D01*
X113266597Y-94237697D01*
X113320128Y-94402447D01*
X113398768Y-94556788D01*
X113418767Y-94584314D01*
X113442247Y-94650121D01*
X113426422Y-94718175D01*
X113376316Y-94766869D01*
X113318449Y-94781200D01*
X112821551Y-94781200D01*
X112754512Y-94761515D01*
X112708757Y-94708711D01*
X112698813Y-94639553D01*
X112721233Y-94584314D01*
X112741232Y-94556788D01*
X112819873Y-94402445D01*
X112873402Y-94237701D01*
X112900500Y-94066611D01*
X112900500Y-93893389D01*
X112873402Y-93722299D01*
X112819873Y-93557555D01*
X112741232Y-93403212D01*
X112639414Y-93263072D01*
X112516928Y-93140586D01*
X112376788Y-93038768D01*
X112222445Y-92960127D01*
X112057701Y-92906598D01*
X112057699Y-92906597D01*
X112057698Y-92906597D01*
X111926271Y-92885781D01*
X111886611Y-92879500D01*
X111713389Y-92879500D01*
X111673728Y-92885781D01*
X111542302Y-92906597D01*
X111377552Y-92960128D01*
X111223211Y-93038768D01*
X111143256Y-93096859D01*
X111083072Y-93140586D01*
X111083070Y-93140588D01*
X111083069Y-93140588D01*
X110960588Y-93263069D01*
X110960588Y-93263070D01*
X110960586Y-93263072D01*
X110916859Y-93323256D01*
X110858768Y-93403211D01*
X110780128Y-93557552D01*
X110726597Y-93722302D01*
X110699500Y-93893389D01*
X110699500Y-94066610D01*
X110726597Y-94237697D01*
X110780128Y-94402447D01*
X110858768Y-94556788D01*
X110878767Y-94584314D01*
X110902247Y-94650121D01*
X110886422Y-94718175D01*
X110836316Y-94766869D01*
X110778449Y-94781200D01*
X110281551Y-94781200D01*
X110214512Y-94761515D01*
X110168757Y-94708711D01*
X110158813Y-94639553D01*
X110181233Y-94584314D01*
X110201232Y-94556788D01*
X110279873Y-94402445D01*
X110333402Y-94237701D01*
X110360500Y-94066611D01*
X110360500Y-93893389D01*
X110333402Y-93722299D01*
X110279873Y-93557555D01*
X110201232Y-93403212D01*
X110099414Y-93263072D01*
X109976928Y-93140586D01*
X109836788Y-93038768D01*
X109682445Y-92960127D01*
X109517701Y-92906598D01*
X109517699Y-92906597D01*
X109517698Y-92906597D01*
X109386271Y-92885781D01*
X109346611Y-92879500D01*
X109173389Y-92879500D01*
X109133728Y-92885781D01*
X109002302Y-92906597D01*
X108837552Y-92960128D01*
X108683211Y-93038768D01*
X108603256Y-93096859D01*
X108543072Y-93140586D01*
X108543070Y-93140588D01*
X108543069Y-93140588D01*
X108420588Y-93263069D01*
X108420588Y-93263070D01*
X108420586Y-93263072D01*
X108376859Y-93323256D01*
X108318768Y-93403211D01*
X108240128Y-93557552D01*
X108186597Y-93722302D01*
X108159500Y-93893389D01*
X108159500Y-94066610D01*
X108186597Y-94237697D01*
X108240128Y-94402447D01*
X108318768Y-94556788D01*
X108338767Y-94584314D01*
X108362247Y-94650121D01*
X108346422Y-94718175D01*
X108296316Y-94766869D01*
X108238449Y-94781200D01*
X107741551Y-94781200D01*
X107674512Y-94761515D01*
X107628757Y-94708711D01*
X107618813Y-94639553D01*
X107641233Y-94584314D01*
X107661232Y-94556788D01*
X107739873Y-94402445D01*
X107793402Y-94237701D01*
X107820500Y-94066611D01*
X107820500Y-93893389D01*
X107793402Y-93722299D01*
X107739873Y-93557555D01*
X107661232Y-93403212D01*
X107559414Y-93263072D01*
X107436928Y-93140586D01*
X107296788Y-93038768D01*
X107142445Y-92960127D01*
X106977701Y-92906598D01*
X106977699Y-92906597D01*
X106977698Y-92906597D01*
X106846271Y-92885781D01*
X106806611Y-92879500D01*
X106633389Y-92879500D01*
X106593728Y-92885781D01*
X106462302Y-92906597D01*
X106297552Y-92960128D01*
X106143211Y-93038768D01*
X106063256Y-93096859D01*
X106003072Y-93140586D01*
X106003070Y-93140588D01*
X106003069Y-93140588D01*
X105880588Y-93263069D01*
X105880588Y-93263070D01*
X105880586Y-93263072D01*
X105836859Y-93323256D01*
X105778768Y-93403211D01*
X105700128Y-93557552D01*
X105646597Y-93722302D01*
X105619500Y-93893389D01*
X105619500Y-94066610D01*
X105646597Y-94237697D01*
X105700128Y-94402447D01*
X105778768Y-94556788D01*
X105798767Y-94584314D01*
X105822247Y-94650121D01*
X105806422Y-94718175D01*
X105756316Y-94766869D01*
X105698449Y-94781200D01*
X105201551Y-94781200D01*
X105134512Y-94761515D01*
X105088757Y-94708711D01*
X105078813Y-94639553D01*
X105101233Y-94584314D01*
X105121232Y-94556788D01*
X105199873Y-94402445D01*
X105253402Y-94237701D01*
X105280500Y-94066611D01*
X105280500Y-93893389D01*
X105253402Y-93722299D01*
X105199873Y-93557555D01*
X105121232Y-93403212D01*
X105019414Y-93263072D01*
X104896928Y-93140586D01*
X104756788Y-93038768D01*
X104602445Y-92960127D01*
X104437701Y-92906598D01*
X104437699Y-92906597D01*
X104437698Y-92906597D01*
X104306271Y-92885781D01*
X104266611Y-92879500D01*
X104093389Y-92879500D01*
X104053728Y-92885781D01*
X103922302Y-92906597D01*
X103757552Y-92960128D01*
X103603211Y-93038768D01*
X103523256Y-93096859D01*
X103463072Y-93140586D01*
X103463070Y-93140588D01*
X103463069Y-93140588D01*
X103340588Y-93263069D01*
X103340588Y-93263070D01*
X103340586Y-93263072D01*
X103296859Y-93323256D01*
X103238768Y-93403211D01*
X103160128Y-93557552D01*
X103106597Y-93722302D01*
X103079500Y-93893389D01*
X103079500Y-94066610D01*
X103106597Y-94237697D01*
X103160128Y-94402447D01*
X103238768Y-94556788D01*
X103258767Y-94584314D01*
X103282247Y-94650121D01*
X103266422Y-94718175D01*
X103216316Y-94766869D01*
X103158449Y-94781200D01*
X102661551Y-94781200D01*
X102594512Y-94761515D01*
X102548757Y-94708711D01*
X102538813Y-94639553D01*
X102561233Y-94584314D01*
X102581232Y-94556788D01*
X102659873Y-94402445D01*
X102713402Y-94237701D01*
X102740500Y-94066611D01*
X102740500Y-93893389D01*
X102713402Y-93722299D01*
X102659873Y-93557555D01*
X102581232Y-93403212D01*
X102479414Y-93263072D01*
X102356928Y-93140586D01*
X102216788Y-93038768D01*
X102062445Y-92960127D01*
X101897701Y-92906598D01*
X101897699Y-92906597D01*
X101897698Y-92906597D01*
X101766271Y-92885781D01*
X101726611Y-92879500D01*
X101553389Y-92879500D01*
X101513728Y-92885781D01*
X101382302Y-92906597D01*
X101217552Y-92960128D01*
X101063211Y-93038768D01*
X100983256Y-93096859D01*
X100923072Y-93140586D01*
X100923070Y-93140588D01*
X100923069Y-93140588D01*
X100800588Y-93263069D01*
X100800588Y-93263070D01*
X100800586Y-93263072D01*
X100756859Y-93323256D01*
X100698768Y-93403211D01*
X100620128Y-93557552D01*
X100566597Y-93722302D01*
X100539500Y-93893389D01*
X100539500Y-94066610D01*
X100566597Y-94237697D01*
X100620128Y-94402447D01*
X100698768Y-94556788D01*
X100718767Y-94584314D01*
X100742247Y-94650121D01*
X100726422Y-94718175D01*
X100676316Y-94766869D01*
X100618449Y-94781200D01*
X100121551Y-94781200D01*
X100054512Y-94761515D01*
X100008757Y-94708711D01*
X99998813Y-94639553D01*
X100021233Y-94584314D01*
X100041232Y-94556788D01*
X100119873Y-94402445D01*
X100173402Y-94237701D01*
X100200500Y-94066611D01*
X100200500Y-93893389D01*
X100173402Y-93722299D01*
X100119873Y-93557555D01*
X100041232Y-93403212D01*
X99939414Y-93263072D01*
X99816928Y-93140586D01*
X99676788Y-93038768D01*
X99522445Y-92960127D01*
X99357701Y-92906598D01*
X99357699Y-92906597D01*
X99357698Y-92906597D01*
X99226271Y-92885781D01*
X99186611Y-92879500D01*
X99013389Y-92879500D01*
X98973728Y-92885781D01*
X98842302Y-92906597D01*
X98677552Y-92960128D01*
X98523211Y-93038768D01*
X98443256Y-93096859D01*
X98383072Y-93140586D01*
X98383070Y-93140588D01*
X98383069Y-93140588D01*
X98260588Y-93263069D01*
X98260588Y-93263070D01*
X98260586Y-93263072D01*
X98216859Y-93323256D01*
X98158768Y-93403211D01*
X98080128Y-93557552D01*
X98026597Y-93722302D01*
X97999500Y-93893389D01*
X97999500Y-94066610D01*
X98026597Y-94237697D01*
X98080128Y-94402447D01*
X98158768Y-94556788D01*
X98178767Y-94584314D01*
X98202247Y-94650121D01*
X98186422Y-94718175D01*
X98136316Y-94766869D01*
X98078449Y-94781200D01*
X97581551Y-94781200D01*
X97514512Y-94761515D01*
X97468757Y-94708711D01*
X97458813Y-94639553D01*
X97481233Y-94584314D01*
X97501232Y-94556788D01*
X97579873Y-94402445D01*
X97633402Y-94237701D01*
X97660500Y-94066611D01*
X97660500Y-93893389D01*
X97633402Y-93722299D01*
X97579873Y-93557555D01*
X97501232Y-93403212D01*
X97399414Y-93263072D01*
X97276928Y-93140586D01*
X97136788Y-93038768D01*
X96982445Y-92960127D01*
X96817701Y-92906598D01*
X96817699Y-92906597D01*
X96817698Y-92906597D01*
X96686271Y-92885781D01*
X96646611Y-92879500D01*
X96473389Y-92879500D01*
X96433728Y-92885781D01*
X96302302Y-92906597D01*
X96137552Y-92960128D01*
X95983211Y-93038768D01*
X95903256Y-93096859D01*
X95843072Y-93140586D01*
X95843070Y-93140588D01*
X95843069Y-93140588D01*
X95720588Y-93263069D01*
X95720588Y-93263070D01*
X95720586Y-93263072D01*
X95676859Y-93323256D01*
X95618768Y-93403211D01*
X95540128Y-93557552D01*
X95486597Y-93722302D01*
X95459500Y-93893389D01*
X95459500Y-94066610D01*
X95486597Y-94237697D01*
X95540128Y-94402447D01*
X95618768Y-94556788D01*
X95638767Y-94584314D01*
X95662247Y-94650121D01*
X95646422Y-94718175D01*
X95596316Y-94766869D01*
X95538449Y-94781200D01*
X95041551Y-94781200D01*
X94974512Y-94761515D01*
X94928757Y-94708711D01*
X94918813Y-94639553D01*
X94941233Y-94584314D01*
X94961232Y-94556788D01*
X95039873Y-94402445D01*
X95093402Y-94237701D01*
X95120500Y-94066611D01*
X95120500Y-93893389D01*
X95093402Y-93722299D01*
X95039873Y-93557555D01*
X94961232Y-93403212D01*
X94859414Y-93263072D01*
X94736928Y-93140586D01*
X94596788Y-93038768D01*
X94442445Y-92960127D01*
X94277701Y-92906598D01*
X94277699Y-92906597D01*
X94277698Y-92906597D01*
X94146271Y-92885781D01*
X94106611Y-92879500D01*
X93933389Y-92879500D01*
X93893728Y-92885781D01*
X93762302Y-92906597D01*
X93597552Y-92960128D01*
X93443211Y-93038768D01*
X93363256Y-93096859D01*
X93303072Y-93140586D01*
X93303070Y-93140588D01*
X93303069Y-93140588D01*
X93180588Y-93263069D01*
X93180588Y-93263070D01*
X93180586Y-93263072D01*
X93136859Y-93323256D01*
X93078768Y-93403211D01*
X93000128Y-93557552D01*
X92946597Y-93722302D01*
X92919500Y-93893389D01*
X92919500Y-94066610D01*
X92946597Y-94237697D01*
X93000128Y-94402447D01*
X93078768Y-94556788D01*
X93098767Y-94584314D01*
X93122247Y-94650121D01*
X93106422Y-94718175D01*
X93056316Y-94766869D01*
X92998449Y-94781200D01*
X92501551Y-94781200D01*
X92434512Y-94761515D01*
X92388757Y-94708711D01*
X92378813Y-94639553D01*
X92401233Y-94584314D01*
X92421232Y-94556788D01*
X92499873Y-94402445D01*
X92553402Y-94237701D01*
X92580500Y-94066611D01*
X92580500Y-93893389D01*
X92553402Y-93722299D01*
X92499873Y-93557555D01*
X92421232Y-93403212D01*
X92319414Y-93263072D01*
X92196928Y-93140586D01*
X92056788Y-93038768D01*
X91902445Y-92960127D01*
X91737701Y-92906598D01*
X91737699Y-92906597D01*
X91737698Y-92906597D01*
X91606271Y-92885781D01*
X91566611Y-92879500D01*
X91393389Y-92879500D01*
X91353728Y-92885781D01*
X91222302Y-92906597D01*
X91057552Y-92960128D01*
X90903211Y-93038768D01*
X90823256Y-93096859D01*
X90763072Y-93140586D01*
X90763070Y-93140588D01*
X90763069Y-93140588D01*
X90640588Y-93263069D01*
X90640588Y-93263070D01*
X90640586Y-93263072D01*
X90596859Y-93323256D01*
X90538768Y-93403211D01*
X90460128Y-93557552D01*
X90406597Y-93722302D01*
X90379500Y-93893389D01*
X90379500Y-94066610D01*
X90406597Y-94237697D01*
X90460128Y-94402447D01*
X90538768Y-94556788D01*
X90558767Y-94584314D01*
X90582247Y-94650121D01*
X90566422Y-94718175D01*
X90516316Y-94766869D01*
X90458449Y-94781200D01*
X89961551Y-94781200D01*
X89894512Y-94761515D01*
X89848757Y-94708711D01*
X89838813Y-94639553D01*
X89861233Y-94584314D01*
X89881232Y-94556788D01*
X89959873Y-94402445D01*
X90013402Y-94237701D01*
X90040500Y-94066611D01*
X90040500Y-93893389D01*
X90013402Y-93722299D01*
X89959873Y-93557555D01*
X89881232Y-93403212D01*
X89779414Y-93263072D01*
X89656928Y-93140586D01*
X89516788Y-93038768D01*
X89362445Y-92960127D01*
X89197701Y-92906598D01*
X89197699Y-92906597D01*
X89197698Y-92906597D01*
X89066271Y-92885781D01*
X89026611Y-92879500D01*
X88853389Y-92879500D01*
X88813728Y-92885781D01*
X88682302Y-92906597D01*
X88517552Y-92960128D01*
X88363211Y-93038768D01*
X88283256Y-93096859D01*
X88223072Y-93140586D01*
X88223070Y-93140588D01*
X88223069Y-93140588D01*
X88100588Y-93263069D01*
X88100588Y-93263070D01*
X88100586Y-93263072D01*
X88056859Y-93323256D01*
X87998768Y-93403211D01*
X87920128Y-93557552D01*
X87866597Y-93722302D01*
X87839500Y-93893389D01*
X87839500Y-94066610D01*
X87866597Y-94237697D01*
X87920128Y-94402447D01*
X87998768Y-94556788D01*
X88018767Y-94584314D01*
X88042247Y-94650121D01*
X88026422Y-94718175D01*
X87976316Y-94766869D01*
X87918449Y-94781200D01*
X87421551Y-94781200D01*
X87354512Y-94761515D01*
X87308757Y-94708711D01*
X87298813Y-94639553D01*
X87321233Y-94584314D01*
X87341232Y-94556788D01*
X87419873Y-94402445D01*
X87473402Y-94237701D01*
X87500500Y-94066611D01*
X87500500Y-93893389D01*
X87473402Y-93722299D01*
X87419873Y-93557555D01*
X87341232Y-93403212D01*
X87239414Y-93263072D01*
X87116928Y-93140586D01*
X86976788Y-93038768D01*
X86822445Y-92960127D01*
X86657701Y-92906598D01*
X86657699Y-92906597D01*
X86657698Y-92906597D01*
X86526271Y-92885781D01*
X86486611Y-92879500D01*
X86313389Y-92879500D01*
X86273728Y-92885781D01*
X86142302Y-92906597D01*
X85977552Y-92960128D01*
X85823211Y-93038768D01*
X85743256Y-93096859D01*
X85683072Y-93140586D01*
X85683070Y-93140588D01*
X85683069Y-93140588D01*
X85560588Y-93263069D01*
X85560588Y-93263070D01*
X85560586Y-93263072D01*
X85516859Y-93323256D01*
X85458768Y-93403211D01*
X85380128Y-93557552D01*
X85326597Y-93722302D01*
X85299500Y-93893389D01*
X85299500Y-94066610D01*
X85326597Y-94237697D01*
X85380128Y-94402447D01*
X85458768Y-94556788D01*
X85478767Y-94584314D01*
X85502247Y-94650121D01*
X85486422Y-94718175D01*
X85436316Y-94766869D01*
X85378449Y-94781200D01*
X84881551Y-94781200D01*
X84814512Y-94761515D01*
X84768757Y-94708711D01*
X84758813Y-94639553D01*
X84781233Y-94584314D01*
X84801232Y-94556788D01*
X84879873Y-94402445D01*
X84933402Y-94237701D01*
X84960500Y-94066611D01*
X84960500Y-93893389D01*
X84933402Y-93722299D01*
X84879873Y-93557555D01*
X84801232Y-93403212D01*
X84699414Y-93263072D01*
X84576928Y-93140586D01*
X84436788Y-93038768D01*
X84282445Y-92960127D01*
X84117701Y-92906598D01*
X84117699Y-92906597D01*
X84117698Y-92906597D01*
X83986271Y-92885781D01*
X83946611Y-92879500D01*
X83773389Y-92879500D01*
X83733728Y-92885781D01*
X83602302Y-92906597D01*
X83437552Y-92960128D01*
X83283211Y-93038768D01*
X83203256Y-93096859D01*
X83143072Y-93140586D01*
X83143070Y-93140588D01*
X83143069Y-93140588D01*
X83020588Y-93263069D01*
X83020588Y-93263070D01*
X83020586Y-93263072D01*
X82976859Y-93323256D01*
X82918768Y-93403211D01*
X82840128Y-93557552D01*
X82786597Y-93722302D01*
X82759500Y-93893389D01*
X82759500Y-94066610D01*
X82786597Y-94237697D01*
X82840128Y-94402447D01*
X82918768Y-94556788D01*
X82938767Y-94584314D01*
X82962247Y-94650121D01*
X82946422Y-94718175D01*
X82896316Y-94766869D01*
X82838449Y-94781200D01*
X82341551Y-94781200D01*
X82274512Y-94761515D01*
X82228757Y-94708711D01*
X82218813Y-94639553D01*
X82241233Y-94584314D01*
X82261232Y-94556788D01*
X82339873Y-94402445D01*
X82393402Y-94237701D01*
X82420500Y-94066611D01*
X82420500Y-93893389D01*
X82393402Y-93722299D01*
X82339873Y-93557555D01*
X82261232Y-93403212D01*
X82159414Y-93263072D01*
X82036928Y-93140586D01*
X81896788Y-93038768D01*
X81742445Y-92960127D01*
X81577701Y-92906598D01*
X81577699Y-92906597D01*
X81577698Y-92906597D01*
X81446271Y-92885781D01*
X81406611Y-92879500D01*
X81233389Y-92879500D01*
X81193728Y-92885781D01*
X81062302Y-92906597D01*
X80897552Y-92960128D01*
X80743211Y-93038768D01*
X80663256Y-93096859D01*
X80603072Y-93140586D01*
X80603070Y-93140588D01*
X80603069Y-93140588D01*
X80480588Y-93263069D01*
X80480588Y-93263070D01*
X80480586Y-93263072D01*
X80436859Y-93323256D01*
X80378768Y-93403211D01*
X80300128Y-93557552D01*
X80246597Y-93722302D01*
X80219500Y-93893389D01*
X80219500Y-94066610D01*
X80246597Y-94237697D01*
X80300128Y-94402447D01*
X80378768Y-94556788D01*
X80398767Y-94584314D01*
X80422247Y-94650121D01*
X80406422Y-94718175D01*
X80356316Y-94766869D01*
X80298449Y-94781200D01*
X79801551Y-94781200D01*
X79734512Y-94761515D01*
X79688757Y-94708711D01*
X79678813Y-94639553D01*
X79701233Y-94584314D01*
X79721232Y-94556788D01*
X79799873Y-94402445D01*
X79853402Y-94237701D01*
X79880500Y-94066611D01*
X79880500Y-93893389D01*
X79853402Y-93722299D01*
X79799873Y-93557555D01*
X79721232Y-93403212D01*
X79619414Y-93263072D01*
X79496928Y-93140586D01*
X79356788Y-93038768D01*
X79202445Y-92960127D01*
X79037701Y-92906598D01*
X79037699Y-92906597D01*
X79037698Y-92906597D01*
X78906271Y-92885781D01*
X78866611Y-92879500D01*
X78693389Y-92879500D01*
X78653728Y-92885781D01*
X78522302Y-92906597D01*
X78357552Y-92960128D01*
X78203211Y-93038768D01*
X78123256Y-93096859D01*
X78063072Y-93140586D01*
X78063070Y-93140588D01*
X78063069Y-93140588D01*
X77940588Y-93263069D01*
X77940588Y-93263070D01*
X77940586Y-93263072D01*
X77896859Y-93323256D01*
X77838768Y-93403211D01*
X77760128Y-93557552D01*
X77706597Y-93722302D01*
X77679500Y-93893389D01*
X77679500Y-94066610D01*
X77706597Y-94237697D01*
X77706597Y-94237699D01*
X77706598Y-94237701D01*
X77760127Y-94402445D01*
X77838768Y-94556788D01*
X77940586Y-94696928D01*
X78063072Y-94819414D01*
X78203212Y-94921232D01*
X78357555Y-94999873D01*
X78522299Y-95053402D01*
X78693389Y-95080500D01*
X78693390Y-95080500D01*
X78827155Y-95080500D01*
X78894194Y-95100185D01*
X78939949Y-95152989D01*
X78949893Y-95222147D01*
X78920868Y-95285703D01*
X78914836Y-95292181D01*
X78214464Y-95992552D01*
X78153141Y-96026037D01*
X78094690Y-96024646D01*
X78089988Y-96023386D01*
X78000844Y-95999500D01*
X76048856Y-95999500D01*
X75959712Y-96023386D01*
X75959711Y-96023386D01*
X75959709Y-96023387D01*
X75959706Y-96023388D01*
X75879794Y-96069526D01*
X75879785Y-96069533D01*
X75348314Y-96601003D01*
X75286991Y-96634488D01*
X75217299Y-96629504D01*
X75161368Y-96587634D01*
X75127546Y-96542454D01*
X75127544Y-96542452D01*
X75127543Y-96542451D01*
X75012335Y-96456206D01*
X75012328Y-96456202D01*
X74877486Y-96405910D01*
X74877485Y-96405909D01*
X74877483Y-96405909D01*
X74817873Y-96399500D01*
X74817863Y-96399500D01*
X74072129Y-96399500D01*
X74072123Y-96399501D01*
X74012516Y-96405908D01*
X73877671Y-96456202D01*
X73877664Y-96456206D01*
X73762455Y-96542452D01*
X73762452Y-96542455D01*
X73676206Y-96657664D01*
X73676202Y-96657671D01*
X73625908Y-96792517D01*
X73619501Y-96852116D01*
X73619500Y-96852135D01*
X73619500Y-99147870D01*
X73619501Y-99147876D01*
X73625908Y-99207483D01*
X73676202Y-99342328D01*
X73676203Y-99342330D01*
X73676204Y-99342331D01*
X73759016Y-99452954D01*
X73763310Y-99458689D01*
X73787727Y-99524153D01*
X73772876Y-99592426D01*
X73723471Y-99641832D01*
X73664043Y-99657000D01*
X70726954Y-99657000D01*
X70704631Y-99662981D01*
X70647946Y-99662982D01*
X70647831Y-99663861D01*
X70641162Y-99662982D01*
X70640462Y-99662983D01*
X70639784Y-99662801D01*
X70639776Y-99662800D01*
X70639775Y-99662800D01*
X70494825Y-99662800D01*
X70383925Y-99692516D01*
X70354811Y-99700317D01*
X70229288Y-99772788D01*
X70229282Y-99772793D01*
X70126793Y-99875282D01*
X70126788Y-99875288D01*
X70054317Y-100000811D01*
X70054316Y-100000815D01*
X70016800Y-100140825D01*
X70016800Y-100285775D01*
X70049832Y-100409050D01*
X70054317Y-100425788D01*
X70126788Y-100551311D01*
X70126790Y-100551313D01*
X70126791Y-100551315D01*
X70229285Y-100653809D01*
X70229286Y-100653810D01*
X70229288Y-100653811D01*
X70354811Y-100726282D01*
X70354812Y-100726282D01*
X70354815Y-100726284D01*
X70494825Y-100763800D01*
X70494828Y-100763800D01*
X70639772Y-100763800D01*
X70639775Y-100763800D01*
X70779785Y-100726284D01*
X70905315Y-100653809D01*
X71007809Y-100551315D01*
X71073761Y-100437083D01*
X71083625Y-100419999D01*
X71134193Y-100371784D01*
X71191012Y-100358000D01*
X73732814Y-100358000D01*
X73799853Y-100377685D01*
X73845608Y-100430489D01*
X73855552Y-100499647D01*
X73832081Y-100556309D01*
X73824387Y-100566588D01*
X73756203Y-100657669D01*
X73756202Y-100657671D01*
X73705908Y-100792517D01*
X73699754Y-100849761D01*
X73699501Y-100852123D01*
X73699500Y-100852135D01*
X73699500Y-103147870D01*
X73699501Y-103147876D01*
X73705908Y-103207483D01*
X73756202Y-103342328D01*
X73756206Y-103342335D01*
X73842452Y-103457544D01*
X73842455Y-103457547D01*
X73957664Y-103543793D01*
X73957671Y-103543797D01*
X73983657Y-103553489D01*
X74092517Y-103594091D01*
X74152127Y-103600500D01*
X74897872Y-103600499D01*
X74957483Y-103594091D01*
X75092331Y-103543796D01*
X75207546Y-103457546D01*
X75293796Y-103342331D01*
X75344091Y-103207483D01*
X75350500Y-103147873D01*
X75350499Y-100852128D01*
X75344091Y-100792517D01*
X75340568Y-100783072D01*
X75293797Y-100657671D01*
X75293793Y-100657664D01*
X75207547Y-100542455D01*
X75207544Y-100542452D01*
X75092335Y-100456206D01*
X75092328Y-100456202D01*
X74957482Y-100405908D01*
X74957484Y-100405908D01*
X74906243Y-100400399D01*
X74841692Y-100373660D01*
X74801845Y-100316267D01*
X74795500Y-100277110D01*
X74795500Y-99710764D01*
X74815185Y-99643725D01*
X74867989Y-99597970D01*
X74876167Y-99594582D01*
X74975130Y-99557671D01*
X75012331Y-99543796D01*
X75127546Y-99457546D01*
X75213796Y-99342331D01*
X75264091Y-99207483D01*
X75270500Y-99147873D01*
X75270499Y-97721542D01*
X75290184Y-97654504D01*
X75306813Y-97633867D01*
X76203862Y-96736819D01*
X76265185Y-96703334D01*
X76291543Y-96700500D01*
X77758156Y-96700500D01*
X77825195Y-96720185D01*
X77845837Y-96736819D01*
X78367761Y-97258743D01*
X78401246Y-97320066D01*
X78396263Y-97389755D01*
X78385908Y-97417517D01*
X78381163Y-97461657D01*
X78379501Y-97477123D01*
X78379500Y-97477135D01*
X78379500Y-98522870D01*
X78379501Y-98522876D01*
X78385908Y-98582483D01*
X78436202Y-98717328D01*
X78436206Y-98717335D01*
X78522452Y-98832544D01*
X78522455Y-98832547D01*
X78637664Y-98918793D01*
X78637671Y-98918797D01*
X78682618Y-98935561D01*
X78772517Y-98969091D01*
X78832127Y-98975500D01*
X79427872Y-98975499D01*
X79487483Y-98969091D01*
X79497250Y-98965447D01*
X79566940Y-98960462D01*
X79628261Y-98993943D01*
X79628265Y-98993947D01*
X79628266Y-98993948D01*
X80211985Y-99577666D01*
X80780531Y-100146212D01*
X80845788Y-100211469D01*
X80845791Y-100211470D01*
X80845794Y-100211473D01*
X80925706Y-100257611D01*
X80925707Y-100257611D01*
X80925712Y-100257614D01*
X81014856Y-100281500D01*
X83282745Y-100281500D01*
X83349784Y-100301185D01*
X83370426Y-100317819D01*
X83461652Y-100409045D01*
X83461654Y-100409046D01*
X83461658Y-100409050D01*
X83552851Y-100455515D01*
X83603647Y-100503490D01*
X83620442Y-100571311D01*
X83597904Y-100637446D01*
X83552852Y-100676484D01*
X83461658Y-100722950D01*
X83461657Y-100722951D01*
X83461652Y-100722954D01*
X83371954Y-100812652D01*
X83371951Y-100812657D01*
X83371950Y-100812658D01*
X83353075Y-100849703D01*
X83314352Y-100925698D01*
X83299500Y-101019475D01*
X83299500Y-101382517D01*
X83310109Y-101449500D01*
X83314354Y-101476304D01*
X83371950Y-101589342D01*
X83371952Y-101589344D01*
X83371954Y-101589347D01*
X83461652Y-101679045D01*
X83461654Y-101679046D01*
X83461658Y-101679050D01*
X83552851Y-101725515D01*
X83603647Y-101773490D01*
X83620442Y-101841311D01*
X83597904Y-101907446D01*
X83552852Y-101946484D01*
X83461658Y-101992950D01*
X83461657Y-101992951D01*
X83461652Y-101992954D01*
X83454126Y-102000481D01*
X83392803Y-102033966D01*
X83366445Y-102036800D01*
X79243756Y-102036800D01*
X79154612Y-102060686D01*
X79154611Y-102060686D01*
X79154609Y-102060687D01*
X79154606Y-102060688D01*
X79074694Y-102106826D01*
X79074685Y-102106833D01*
X78405132Y-102776385D01*
X78405128Y-102776391D01*
X78376132Y-102826614D01*
X78358987Y-102856309D01*
X78358986Y-102856312D01*
X78335100Y-102945456D01*
X78335100Y-104292856D01*
X78315415Y-104359895D01*
X78298781Y-104380537D01*
X77441137Y-105238181D01*
X77379814Y-105271666D01*
X77353456Y-105274500D01*
X76920730Y-105274500D01*
X76890300Y-105277353D01*
X76890298Y-105277353D01*
X76762119Y-105322206D01*
X76762117Y-105322207D01*
X76652850Y-105402850D01*
X76572207Y-105512117D01*
X76572206Y-105512119D01*
X76527353Y-105640298D01*
X76527353Y-105640300D01*
X76524500Y-105670730D01*
X76524500Y-106329269D01*
X76527353Y-106359699D01*
X76527353Y-106359701D01*
X76572206Y-106487880D01*
X76572207Y-106487882D01*
X76652850Y-106597150D01*
X76762118Y-106677793D01*
X76770769Y-106680820D01*
X76890299Y-106722646D01*
X76920730Y-106725500D01*
X76920734Y-106725500D01*
X77429270Y-106725500D01*
X77459699Y-106722646D01*
X77459701Y-106722646D01*
X77523790Y-106700219D01*
X77587882Y-106677793D01*
X77697150Y-106597150D01*
X77777793Y-106487882D01*
X77809522Y-106397205D01*
X77822646Y-106359701D01*
X77822646Y-106359699D01*
X77825500Y-106329269D01*
X77825500Y-105896544D01*
X77845185Y-105829505D01*
X77861819Y-105808863D01*
X78406766Y-105263916D01*
X78966070Y-104704612D01*
X79012214Y-104624688D01*
X79022282Y-104587113D01*
X79036100Y-104535544D01*
X79036100Y-103637587D01*
X79055785Y-103570548D01*
X79108589Y-103524793D01*
X79177747Y-103514849D01*
X79222099Y-103530200D01*
X79245648Y-103543796D01*
X79297409Y-103573681D01*
X79297410Y-103573682D01*
X79297412Y-103573682D01*
X79297415Y-103573684D01*
X79437425Y-103611200D01*
X79513356Y-103611200D01*
X79580395Y-103630885D01*
X79601037Y-103647519D01*
X80164381Y-104210863D01*
X80197866Y-104272186D01*
X80200700Y-104298544D01*
X80200700Y-105050056D01*
X80181015Y-105117095D01*
X80164381Y-105137737D01*
X80112037Y-105190081D01*
X80050714Y-105223566D01*
X80024356Y-105226400D01*
X79948425Y-105226400D01*
X79842869Y-105254684D01*
X79808411Y-105263917D01*
X79682888Y-105336388D01*
X79682882Y-105336393D01*
X79580393Y-105438882D01*
X79580388Y-105438888D01*
X79507917Y-105564411D01*
X79507916Y-105564415D01*
X79470400Y-105704425D01*
X79470400Y-105849375D01*
X79502003Y-105967317D01*
X79507917Y-105989388D01*
X79580388Y-106114911D01*
X79580390Y-106114913D01*
X79580391Y-106114915D01*
X79682885Y-106217409D01*
X79682886Y-106217410D01*
X79682888Y-106217411D01*
X79808411Y-106289882D01*
X79808412Y-106289882D01*
X79808415Y-106289884D01*
X79948425Y-106327400D01*
X79948428Y-106327400D01*
X80093372Y-106327400D01*
X80093375Y-106327400D01*
X80233385Y-106289884D01*
X80358915Y-106217409D01*
X80461409Y-106114915D01*
X80533884Y-105989385D01*
X80571400Y-105849375D01*
X80571400Y-105773444D01*
X80591085Y-105706405D01*
X80607719Y-105685763D01*
X80612819Y-105680663D01*
X80674142Y-105647178D01*
X80743834Y-105652162D01*
X80799767Y-105694034D01*
X80824184Y-105759498D01*
X80824500Y-105768344D01*
X80824500Y-106214520D01*
X80804815Y-106281559D01*
X80768371Y-106315031D01*
X80769595Y-106316689D01*
X80762118Y-106322206D01*
X80762118Y-106322207D01*
X80734546Y-106342556D01*
X80652850Y-106402850D01*
X80572207Y-106512117D01*
X80572206Y-106512119D01*
X80527353Y-106640298D01*
X80527353Y-106640300D01*
X80524500Y-106670730D01*
X80524500Y-107329269D01*
X80527353Y-107359699D01*
X80527353Y-107359701D01*
X80572206Y-107487880D01*
X80572207Y-107487882D01*
X80652850Y-107597150D01*
X80762118Y-107677793D01*
X80804845Y-107692744D01*
X80890299Y-107722646D01*
X80920730Y-107725500D01*
X80920734Y-107725500D01*
X81429270Y-107725500D01*
X81459699Y-107722646D01*
X81459701Y-107722646D01*
X81544434Y-107692996D01*
X81587882Y-107677793D01*
X81697150Y-107597150D01*
X81777793Y-107487882D01*
X81813603Y-107385543D01*
X81822646Y-107359701D01*
X81822646Y-107359699D01*
X81825500Y-107329269D01*
X81825500Y-106670730D01*
X81822646Y-106640300D01*
X81822646Y-106640298D01*
X81789006Y-106544163D01*
X81777793Y-106512118D01*
X81697150Y-106402850D01*
X81587882Y-106322207D01*
X81587881Y-106322206D01*
X81580405Y-106316689D01*
X81581862Y-106314714D01*
X81541485Y-106275420D01*
X81525500Y-106214520D01*
X81525500Y-105948543D01*
X81545185Y-105881504D01*
X81561819Y-105860862D01*
X82558862Y-104863819D01*
X82620185Y-104830334D01*
X82646543Y-104827500D01*
X83079270Y-104827500D01*
X83109699Y-104824646D01*
X83109701Y-104824646D01*
X83173790Y-104802219D01*
X83237882Y-104779793D01*
X83347150Y-104699150D01*
X83427793Y-104589882D01*
X83446806Y-104535543D01*
X83487527Y-104478769D01*
X83552480Y-104453022D01*
X83563847Y-104452500D01*
X87227142Y-104452500D01*
X87227144Y-104452500D01*
X87316288Y-104428614D01*
X87329095Y-104421220D01*
X87396212Y-104382470D01*
X87461470Y-104317212D01*
X87507614Y-104237288D01*
X87509911Y-104228716D01*
X87531500Y-104148144D01*
X87531500Y-104055856D01*
X87507614Y-103966712D01*
X87507612Y-103966708D01*
X87492142Y-103939913D01*
X87492140Y-103939911D01*
X87461472Y-103886791D01*
X87461468Y-103886786D01*
X85881819Y-102307137D01*
X85848334Y-102245814D01*
X85845500Y-102219456D01*
X85845500Y-99190500D01*
X85865185Y-99123461D01*
X85917989Y-99077706D01*
X85969500Y-99066500D01*
X88030500Y-99066500D01*
X88097539Y-99086185D01*
X88143294Y-99138989D01*
X88154500Y-99190500D01*
X88154500Y-100242823D01*
X88154465Y-100243361D01*
X88154485Y-100274387D01*
X88154500Y-100296144D01*
X88154500Y-100343144D01*
X88154530Y-100343259D01*
X88154531Y-100343374D01*
X88166355Y-100387390D01*
X88178386Y-100432288D01*
X88178444Y-100432389D01*
X88178475Y-100432503D01*
X88201888Y-100472994D01*
X88224531Y-100512212D01*
X88224611Y-100512292D01*
X88224672Y-100512397D01*
X88258142Y-100545823D01*
X88269684Y-100557365D01*
X88295209Y-100582891D01*
X88295610Y-100583242D01*
X88562422Y-100849703D01*
X88562480Y-100849761D01*
X88572967Y-100860248D01*
X88606452Y-100921571D01*
X88607760Y-100967326D01*
X88599500Y-101019480D01*
X88599500Y-101382517D01*
X88610090Y-101449384D01*
X88613967Y-101473862D01*
X88615881Y-101485943D01*
X88614199Y-101486209D01*
X88615868Y-101544674D01*
X88583606Y-101600845D01*
X88289879Y-101894452D01*
X88289768Y-101894551D01*
X88275255Y-101909064D01*
X88253905Y-101930413D01*
X88219574Y-101964731D01*
X88219554Y-101964764D01*
X88219531Y-101964788D01*
X88197152Y-102003547D01*
X88173414Y-102044645D01*
X88173404Y-102044679D01*
X88173386Y-102044712D01*
X88161416Y-102089386D01*
X88149510Y-102133785D01*
X88149509Y-102133818D01*
X88149500Y-102133856D01*
X88149500Y-102182357D01*
X88149496Y-102198628D01*
X88149496Y-102198631D01*
X88149489Y-102234236D01*
X88149500Y-102234401D01*
X88149500Y-105478456D01*
X88129815Y-105545495D01*
X88113181Y-105566137D01*
X84441137Y-109238181D01*
X84379814Y-109271666D01*
X84353456Y-109274500D01*
X83920730Y-109274500D01*
X83890300Y-109277353D01*
X83890298Y-109277353D01*
X83762119Y-109322206D01*
X83762117Y-109322207D01*
X83652850Y-109402850D01*
X83572207Y-109512117D01*
X83572206Y-109512119D01*
X83527353Y-109640298D01*
X83527353Y-109640300D01*
X83524500Y-109670730D01*
X83524500Y-110329269D01*
X83527353Y-110359699D01*
X83527353Y-110359701D01*
X83570032Y-110481667D01*
X83572207Y-110487882D01*
X83580781Y-110499500D01*
X83582528Y-110501866D01*
X83606499Y-110567495D01*
X83591184Y-110635665D01*
X83541444Y-110684734D01*
X83482758Y-110699500D01*
X72067255Y-110699500D01*
X72000216Y-110679815D01*
X71979574Y-110663181D01*
X71888347Y-110571954D01*
X71888344Y-110571952D01*
X71888342Y-110571950D01*
X71811517Y-110532805D01*
X71775301Y-110514352D01*
X71681524Y-110499500D01*
X70443482Y-110499500D01*
X70362519Y-110512323D01*
X70349696Y-110514354D01*
X70236658Y-110571950D01*
X70236657Y-110571951D01*
X70236652Y-110571954D01*
X70146954Y-110661652D01*
X70146951Y-110661657D01*
X70146950Y-110661658D01*
X70094908Y-110763796D01*
X70089985Y-110773458D01*
X70042010Y-110824254D01*
X69974189Y-110841049D01*
X69908054Y-110818511D01*
X69864603Y-110763796D01*
X69855500Y-110717163D01*
X69855500Y-105644858D01*
X69855500Y-105644856D01*
X69831614Y-105555712D01*
X69831611Y-105555706D01*
X69785473Y-105475794D01*
X69785470Y-105475791D01*
X69785469Y-105475788D01*
X69720212Y-105410531D01*
X69209670Y-104899989D01*
X68691819Y-104382137D01*
X68658334Y-104320814D01*
X68655500Y-104294456D01*
X68655500Y-102127744D01*
X68675185Y-102060705D01*
X68727989Y-102014950D01*
X68797147Y-102005006D01*
X68860703Y-102034031D01*
X68867181Y-102040063D01*
X73324681Y-106497563D01*
X73358166Y-106558886D01*
X73361000Y-106585244D01*
X73361000Y-108881014D01*
X73341315Y-108948053D01*
X73324681Y-108968695D01*
X73270993Y-109022382D01*
X73270988Y-109022388D01*
X73198517Y-109147911D01*
X73198516Y-109147915D01*
X73161000Y-109287925D01*
X73161000Y-109432875D01*
X73198516Y-109572885D01*
X73198517Y-109572888D01*
X73270988Y-109698411D01*
X73270990Y-109698413D01*
X73270991Y-109698415D01*
X73373485Y-109800909D01*
X73373486Y-109800910D01*
X73373488Y-109800911D01*
X73499011Y-109873382D01*
X73499012Y-109873382D01*
X73499015Y-109873384D01*
X73639025Y-109910900D01*
X73639028Y-109910900D01*
X73783972Y-109910900D01*
X73783975Y-109910900D01*
X73923985Y-109873384D01*
X74049515Y-109800909D01*
X74152009Y-109698415D01*
X74224484Y-109572885D01*
X74262000Y-109432875D01*
X74262000Y-109287925D01*
X74224484Y-109147915D01*
X74189089Y-109086610D01*
X74152011Y-109022388D01*
X74152006Y-109022382D01*
X74098319Y-108968695D01*
X74064834Y-108907372D01*
X74062000Y-108881014D01*
X74062000Y-106342558D01*
X74062000Y-106342556D01*
X74038114Y-106253412D01*
X74018197Y-106218915D01*
X73991970Y-106173488D01*
X66951818Y-99133336D01*
X66918333Y-99072013D01*
X66915499Y-99045655D01*
X66915499Y-97668482D01*
X66915498Y-97668475D01*
X68354500Y-97668475D01*
X68354500Y-99381517D01*
X68364152Y-99442455D01*
X68369354Y-99475304D01*
X68426950Y-99588342D01*
X68426952Y-99588344D01*
X68426954Y-99588347D01*
X68516652Y-99678045D01*
X68516654Y-99678046D01*
X68516658Y-99678050D01*
X68626699Y-99734119D01*
X68629698Y-99735647D01*
X68723475Y-99750499D01*
X68723481Y-99750500D01*
X69086518Y-99750499D01*
X69180304Y-99735646D01*
X69293342Y-99678050D01*
X69383050Y-99588342D01*
X69440646Y-99475304D01*
X69440646Y-99475302D01*
X69440647Y-99475301D01*
X69455499Y-99381524D01*
X69455500Y-99381519D01*
X69455499Y-98521542D01*
X69475183Y-98454504D01*
X69491813Y-98433867D01*
X69843862Y-98081819D01*
X69905185Y-98048334D01*
X69931543Y-98045500D01*
X70520414Y-98045500D01*
X70587453Y-98065185D01*
X70608095Y-98081819D01*
X70661785Y-98135509D01*
X70661786Y-98135510D01*
X70661788Y-98135511D01*
X70787311Y-98207982D01*
X70787312Y-98207982D01*
X70787315Y-98207984D01*
X70927325Y-98245500D01*
X70927328Y-98245500D01*
X71072272Y-98245500D01*
X71072275Y-98245500D01*
X71212285Y-98207984D01*
X71337815Y-98135509D01*
X71440309Y-98033015D01*
X71512784Y-97907485D01*
X71550300Y-97767475D01*
X71550300Y-97622525D01*
X71512784Y-97482515D01*
X71509674Y-97477129D01*
X71440311Y-97356988D01*
X71440306Y-97356982D01*
X71337817Y-97254493D01*
X71337811Y-97254488D01*
X71212288Y-97182017D01*
X71212289Y-97182017D01*
X71200806Y-97178940D01*
X71072275Y-97144500D01*
X70927325Y-97144500D01*
X70798793Y-97178940D01*
X70787311Y-97182017D01*
X70661788Y-97254488D01*
X70661782Y-97254493D01*
X70608095Y-97308181D01*
X70546772Y-97341666D01*
X70520414Y-97344500D01*
X69688856Y-97344500D01*
X69599712Y-97368386D01*
X69599711Y-97368386D01*
X69599709Y-97368387D01*
X69599706Y-97368388D01*
X69519794Y-97414526D01*
X69519780Y-97414537D01*
X69515527Y-97418790D01*
X69454201Y-97452269D01*
X69384510Y-97447277D01*
X69340174Y-97418781D01*
X69293347Y-97371954D01*
X69293344Y-97371952D01*
X69293342Y-97371950D01*
X69202148Y-97325484D01*
X69180301Y-97314352D01*
X69086524Y-97299500D01*
X68723482Y-97299500D01*
X68647843Y-97311480D01*
X68629696Y-97314354D01*
X68516658Y-97371950D01*
X68516657Y-97371951D01*
X68516652Y-97371954D01*
X68426954Y-97461652D01*
X68426951Y-97461657D01*
X68369352Y-97574698D01*
X68354500Y-97668475D01*
X66915498Y-97668475D01*
X66910016Y-97633862D01*
X66900646Y-97574696D01*
X66843050Y-97461658D01*
X66843046Y-97461654D01*
X66843045Y-97461652D01*
X66753347Y-97371954D01*
X66753344Y-97371952D01*
X66753342Y-97371950D01*
X66640304Y-97314354D01*
X66640302Y-97314353D01*
X66631609Y-97309924D01*
X66632593Y-97307991D01*
X66596635Y-97285954D01*
X66580212Y-97269531D01*
X65999613Y-96688931D01*
X65999608Y-96688927D01*
X65919690Y-96642787D01*
X65919689Y-96642786D01*
X65919688Y-96642786D01*
X65830544Y-96618900D01*
X64423256Y-96618900D01*
X64334111Y-96642786D01*
X64254187Y-96688931D01*
X64254184Y-96688933D01*
X62199531Y-98743586D01*
X62199527Y-98743591D01*
X62169104Y-98796287D01*
X62169104Y-98796288D01*
X62153386Y-98823510D01*
X62129500Y-98912656D01*
X62129500Y-99175500D01*
X62109815Y-99242539D01*
X62057011Y-99288294D01*
X62005502Y-99299500D01*
X61957131Y-99299500D01*
X61957123Y-99299501D01*
X61897516Y-99305908D01*
X61762671Y-99356202D01*
X61762664Y-99356206D01*
X61647455Y-99442452D01*
X61647452Y-99442455D01*
X61561206Y-99557664D01*
X61561202Y-99557671D01*
X61538394Y-99618825D01*
X61496523Y-99674759D01*
X61431059Y-99699176D01*
X61422243Y-99699492D01*
X61407031Y-99699495D01*
X61407027Y-99699495D01*
X61390716Y-99699500D01*
X61342656Y-99699500D01*
X61342611Y-99699511D01*
X61342566Y-99699512D01*
X61298679Y-99711283D01*
X61253512Y-99723386D01*
X61253471Y-99723409D01*
X61253428Y-99723421D01*
X61211825Y-99747454D01*
X61173588Y-99769531D01*
X61173558Y-99769560D01*
X61173516Y-99769585D01*
X61138589Y-99804529D01*
X61127174Y-99815943D01*
X61127174Y-99815944D01*
X61103212Y-99839907D01*
X61103096Y-99840037D01*
X60750541Y-100192776D01*
X60724314Y-100219003D01*
X60724312Y-100219006D01*
X60719531Y-100223788D01*
X60719509Y-100223825D01*
X60719475Y-100223860D01*
X60695656Y-100265140D01*
X60673386Y-100303712D01*
X60673374Y-100303755D01*
X60673351Y-100303796D01*
X60661710Y-100347286D01*
X60649500Y-100392856D01*
X60649500Y-100392904D01*
X60649489Y-100392946D01*
X60649492Y-100408521D01*
X60649492Y-100408524D01*
X60649500Y-100437083D01*
X60649500Y-115615500D01*
X60629815Y-115682539D01*
X60577011Y-115728294D01*
X60525500Y-115739500D01*
X60124000Y-115739500D01*
X60056961Y-115719815D01*
X60011206Y-115667011D01*
X60000000Y-115615500D01*
X60000000Y-95204500D01*
X60019685Y-95137461D01*
X60072489Y-95091706D01*
X60124000Y-95080500D01*
X61874676Y-95080500D01*
X61874677Y-95080499D01*
X61947740Y-95065966D01*
X62030601Y-95010601D01*
X62085966Y-94927740D01*
X62100500Y-94854674D01*
X62100500Y-93893389D01*
X62439500Y-93893389D01*
X62439500Y-94066610D01*
X62466597Y-94237697D01*
X62466597Y-94237699D01*
X62466598Y-94237701D01*
X62520127Y-94402445D01*
X62598768Y-94556788D01*
X62700586Y-94696928D01*
X62823072Y-94819414D01*
X62963212Y-94921232D01*
X63117555Y-94999873D01*
X63282299Y-95053402D01*
X63453389Y-95080500D01*
X63453390Y-95080500D01*
X63626610Y-95080500D01*
X63626611Y-95080500D01*
X63797701Y-95053402D01*
X63962445Y-94999873D01*
X64116788Y-94921232D01*
X64256928Y-94819414D01*
X64379414Y-94696928D01*
X64481232Y-94556788D01*
X64559873Y-94402445D01*
X64613402Y-94237701D01*
X64640500Y-94066611D01*
X64640500Y-93893389D01*
X64979500Y-93893389D01*
X64979500Y-94066610D01*
X65006597Y-94237697D01*
X65006597Y-94237699D01*
X65006598Y-94237701D01*
X65060127Y-94402445D01*
X65138768Y-94556788D01*
X65240586Y-94696928D01*
X65363072Y-94819414D01*
X65503212Y-94921232D01*
X65657555Y-94999873D01*
X65822299Y-95053402D01*
X65993389Y-95080500D01*
X65993390Y-95080500D01*
X66166610Y-95080500D01*
X66166611Y-95080500D01*
X66337701Y-95053402D01*
X66502445Y-94999873D01*
X66656788Y-94921232D01*
X66796928Y-94819414D01*
X66919414Y-94696928D01*
X67021232Y-94556788D01*
X67099873Y-94402445D01*
X67153402Y-94237701D01*
X67180500Y-94066611D01*
X67180500Y-93893389D01*
X67519500Y-93893389D01*
X67519500Y-94066610D01*
X67546597Y-94237697D01*
X67546597Y-94237699D01*
X67546598Y-94237701D01*
X67600127Y-94402445D01*
X67678768Y-94556788D01*
X67780586Y-94696928D01*
X67903072Y-94819414D01*
X68043212Y-94921232D01*
X68197555Y-94999873D01*
X68362299Y-95053402D01*
X68533389Y-95080500D01*
X68533390Y-95080500D01*
X68706610Y-95080500D01*
X68706611Y-95080500D01*
X68877701Y-95053402D01*
X69042445Y-94999873D01*
X69196788Y-94921232D01*
X69336928Y-94819414D01*
X69459414Y-94696928D01*
X69561232Y-94556788D01*
X69639873Y-94402445D01*
X69693402Y-94237701D01*
X69720500Y-94066611D01*
X69720500Y-93893389D01*
X70059500Y-93893389D01*
X70059500Y-94066610D01*
X70086597Y-94237697D01*
X70086597Y-94237699D01*
X70086598Y-94237701D01*
X70140127Y-94402445D01*
X70218768Y-94556788D01*
X70320586Y-94696928D01*
X70443072Y-94819414D01*
X70583212Y-94921232D01*
X70737555Y-94999873D01*
X70902299Y-95053402D01*
X71073389Y-95080500D01*
X71073390Y-95080500D01*
X71246610Y-95080500D01*
X71246611Y-95080500D01*
X71417701Y-95053402D01*
X71582445Y-94999873D01*
X71736788Y-94921232D01*
X71876928Y-94819414D01*
X71999414Y-94696928D01*
X72101232Y-94556788D01*
X72179873Y-94402445D01*
X72233402Y-94237701D01*
X72260500Y-94066611D01*
X72260500Y-93893389D01*
X72599500Y-93893389D01*
X72599500Y-94066610D01*
X72626597Y-94237697D01*
X72626597Y-94237699D01*
X72626598Y-94237701D01*
X72680127Y-94402445D01*
X72758768Y-94556788D01*
X72860586Y-94696928D01*
X72983072Y-94819414D01*
X73123212Y-94921232D01*
X73277555Y-94999873D01*
X73442299Y-95053402D01*
X73613389Y-95080500D01*
X73613390Y-95080500D01*
X73786610Y-95080500D01*
X73786611Y-95080500D01*
X73957701Y-95053402D01*
X74122445Y-94999873D01*
X74276788Y-94921232D01*
X74416928Y-94819414D01*
X74539414Y-94696928D01*
X74641232Y-94556788D01*
X74719873Y-94402445D01*
X74773402Y-94237701D01*
X74800500Y-94066611D01*
X74800500Y-93893389D01*
X75139500Y-93893389D01*
X75139500Y-94066610D01*
X75166597Y-94237697D01*
X75166597Y-94237699D01*
X75166598Y-94237701D01*
X75220127Y-94402445D01*
X75298768Y-94556788D01*
X75400586Y-94696928D01*
X75523072Y-94819414D01*
X75663212Y-94921232D01*
X75817555Y-94999873D01*
X75982299Y-95053402D01*
X76153389Y-95080500D01*
X76153390Y-95080500D01*
X76326610Y-95080500D01*
X76326611Y-95080500D01*
X76497701Y-95053402D01*
X76662445Y-94999873D01*
X76816788Y-94921232D01*
X76956928Y-94819414D01*
X77079414Y-94696928D01*
X77181232Y-94556788D01*
X77259873Y-94402445D01*
X77313402Y-94237701D01*
X77340500Y-94066611D01*
X77340500Y-93893389D01*
X77313402Y-93722299D01*
X77259873Y-93557555D01*
X77181232Y-93403212D01*
X77079414Y-93263072D01*
X76956928Y-93140586D01*
X76816788Y-93038768D01*
X76662445Y-92960127D01*
X76497701Y-92906598D01*
X76497699Y-92906597D01*
X76497698Y-92906597D01*
X76366271Y-92885781D01*
X76326611Y-92879500D01*
X76153389Y-92879500D01*
X76113728Y-92885781D01*
X75982302Y-92906597D01*
X75817552Y-92960128D01*
X75663211Y-93038768D01*
X75583256Y-93096859D01*
X75523072Y-93140586D01*
X75523070Y-93140588D01*
X75523069Y-93140588D01*
X75400588Y-93263069D01*
X75400588Y-93263070D01*
X75400586Y-93263072D01*
X75356859Y-93323256D01*
X75298768Y-93403211D01*
X75220128Y-93557552D01*
X75166597Y-93722302D01*
X75139500Y-93893389D01*
X74800500Y-93893389D01*
X74773402Y-93722299D01*
X74719873Y-93557555D01*
X74641232Y-93403212D01*
X74539414Y-93263072D01*
X74416928Y-93140586D01*
X74276788Y-93038768D01*
X74122445Y-92960127D01*
X73957701Y-92906598D01*
X73957699Y-92906597D01*
X73957698Y-92906597D01*
X73826271Y-92885781D01*
X73786611Y-92879500D01*
X73613389Y-92879500D01*
X73573728Y-92885781D01*
X73442302Y-92906597D01*
X73277552Y-92960128D01*
X73123211Y-93038768D01*
X73043256Y-93096859D01*
X72983072Y-93140586D01*
X72983070Y-93140588D01*
X72983069Y-93140588D01*
X72860588Y-93263069D01*
X72860588Y-93263070D01*
X72860586Y-93263072D01*
X72816859Y-93323256D01*
X72758768Y-93403211D01*
X72680128Y-93557552D01*
X72626597Y-93722302D01*
X72599500Y-93893389D01*
X72260500Y-93893389D01*
X72233402Y-93722299D01*
X72179873Y-93557555D01*
X72101232Y-93403212D01*
X71999414Y-93263072D01*
X71876928Y-93140586D01*
X71736788Y-93038768D01*
X71582445Y-92960127D01*
X71417701Y-92906598D01*
X71417699Y-92906597D01*
X71417698Y-92906597D01*
X71286271Y-92885781D01*
X71246611Y-92879500D01*
X71073389Y-92879500D01*
X71033728Y-92885781D01*
X70902302Y-92906597D01*
X70737552Y-92960128D01*
X70583211Y-93038768D01*
X70503256Y-93096859D01*
X70443072Y-93140586D01*
X70443070Y-93140588D01*
X70443069Y-93140588D01*
X70320588Y-93263069D01*
X70320588Y-93263070D01*
X70320586Y-93263072D01*
X70276859Y-93323256D01*
X70218768Y-93403211D01*
X70140128Y-93557552D01*
X70086597Y-93722302D01*
X70059500Y-93893389D01*
X69720500Y-93893389D01*
X69693402Y-93722299D01*
X69639873Y-93557555D01*
X69561232Y-93403212D01*
X69459414Y-93263072D01*
X69336928Y-93140586D01*
X69196788Y-93038768D01*
X69042445Y-92960127D01*
X68877701Y-92906598D01*
X68877699Y-92906597D01*
X68877698Y-92906597D01*
X68746271Y-92885781D01*
X68706611Y-92879500D01*
X68533389Y-92879500D01*
X68493728Y-92885781D01*
X68362302Y-92906597D01*
X68197552Y-92960128D01*
X68043211Y-93038768D01*
X67963256Y-93096859D01*
X67903072Y-93140586D01*
X67903070Y-93140588D01*
X67903069Y-93140588D01*
X67780588Y-93263069D01*
X67780588Y-93263070D01*
X67780586Y-93263072D01*
X67736859Y-93323256D01*
X67678768Y-93403211D01*
X67600128Y-93557552D01*
X67546597Y-93722302D01*
X67519500Y-93893389D01*
X67180500Y-93893389D01*
X67153402Y-93722299D01*
X67099873Y-93557555D01*
X67021232Y-93403212D01*
X66919414Y-93263072D01*
X66796928Y-93140586D01*
X66656788Y-93038768D01*
X66502445Y-92960127D01*
X66337701Y-92906598D01*
X66337699Y-92906597D01*
X66337698Y-92906597D01*
X66206271Y-92885781D01*
X66166611Y-92879500D01*
X65993389Y-92879500D01*
X65953728Y-92885781D01*
X65822302Y-92906597D01*
X65657552Y-92960128D01*
X65503211Y-93038768D01*
X65423256Y-93096859D01*
X65363072Y-93140586D01*
X65363070Y-93140588D01*
X65363069Y-93140588D01*
X65240588Y-93263069D01*
X65240588Y-93263070D01*
X65240586Y-93263072D01*
X65196859Y-93323256D01*
X65138768Y-93403211D01*
X65060128Y-93557552D01*
X65006597Y-93722302D01*
X64979500Y-93893389D01*
X64640500Y-93893389D01*
X64613402Y-93722299D01*
X64559873Y-93557555D01*
X64481232Y-93403212D01*
X64379414Y-93263072D01*
X64256928Y-93140586D01*
X64116788Y-93038768D01*
X63962445Y-92960127D01*
X63797701Y-92906598D01*
X63797699Y-92906597D01*
X63797698Y-92906597D01*
X63666271Y-92885781D01*
X63626611Y-92879500D01*
X63453389Y-92879500D01*
X63413728Y-92885781D01*
X63282302Y-92906597D01*
X63117552Y-92960128D01*
X62963211Y-93038768D01*
X62883256Y-93096859D01*
X62823072Y-93140586D01*
X62823070Y-93140588D01*
X62823069Y-93140588D01*
X62700588Y-93263069D01*
X62700588Y-93263070D01*
X62700586Y-93263072D01*
X62656859Y-93323256D01*
X62598768Y-93403211D01*
X62520128Y-93557552D01*
X62466597Y-93722302D01*
X62439500Y-93893389D01*
X62100500Y-93893389D01*
X62100500Y-93105326D01*
X62100500Y-93105323D01*
X62100499Y-93105321D01*
X62085967Y-93032264D01*
X62085966Y-93032260D01*
X62030601Y-92949399D01*
X61947740Y-92894034D01*
X61947739Y-92894033D01*
X61947735Y-92894032D01*
X61874677Y-92879500D01*
X61874674Y-92879500D01*
X60125326Y-92879500D01*
X60124000Y-92879500D01*
X60056961Y-92859815D01*
X60011206Y-92807011D01*
X60000000Y-92755500D01*
X60000000Y-92000000D01*
X55624500Y-92000000D01*
X55557461Y-91980315D01*
X55511706Y-91927511D01*
X55500500Y-91876000D01*
X55500500Y-88624500D01*
X55520185Y-88557461D01*
X55572989Y-88511706D01*
X55624500Y-88500500D01*
X56577143Y-88500500D01*
X56644182Y-88520185D01*
G37*
G04 #@! TD.AperFunction*
G04 #@! TA.AperFunction,Conductor*
G36*
X98368852Y-104964391D02*
G01*
X98409380Y-105021305D01*
X98416200Y-105061861D01*
X98416200Y-106591674D01*
X98436964Y-106669167D01*
X98440085Y-106680816D01*
X98440087Y-106680820D01*
X98486227Y-106760737D01*
X98486229Y-106760740D01*
X98486230Y-106760741D01*
X100536102Y-108810612D01*
X100601359Y-108875869D01*
X100601362Y-108875870D01*
X100601365Y-108875873D01*
X100681277Y-108922011D01*
X100681278Y-108922011D01*
X100681283Y-108922014D01*
X100770427Y-108945900D01*
X100770429Y-108945900D01*
X101910486Y-108945900D01*
X101910488Y-108945900D01*
X101999632Y-108922014D01*
X102014571Y-108913389D01*
X102014572Y-108913389D01*
X102079549Y-108875874D01*
X102079548Y-108875874D01*
X102079556Y-108875870D01*
X102437319Y-108518107D01*
X102498642Y-108484622D01*
X102568334Y-108489606D01*
X102612681Y-108518107D01*
X106925044Y-112830470D01*
X106925045Y-112830471D01*
X106925047Y-112830472D01*
X107000266Y-112873900D01*
X107000267Y-112873900D01*
X107004964Y-112876612D01*
X107004968Y-112876614D01*
X107094112Y-112900500D01*
X107094113Y-112900500D01*
X107186400Y-112900500D01*
X107313456Y-112900500D01*
X107380495Y-112920185D01*
X107401137Y-112936819D01*
X110751347Y-116287029D01*
X110784832Y-116348352D01*
X110781597Y-116413028D01*
X110726597Y-116582301D01*
X110699500Y-116753389D01*
X110699500Y-116926610D01*
X110726597Y-117097697D01*
X110780128Y-117262447D01*
X110858768Y-117416788D01*
X110877532Y-117442614D01*
X110901012Y-117508420D01*
X110885187Y-117576474D01*
X110835081Y-117625169D01*
X110777214Y-117639500D01*
X110282786Y-117639500D01*
X110215747Y-117619815D01*
X110169992Y-117567011D01*
X110160048Y-117497853D01*
X110182468Y-117442614D01*
X110201232Y-117416788D01*
X110279873Y-117262445D01*
X110333402Y-117097701D01*
X110360500Y-116926611D01*
X110360500Y-116753389D01*
X110333402Y-116582299D01*
X110279873Y-116417555D01*
X110201232Y-116263212D01*
X110099414Y-116123072D01*
X109976928Y-116000586D01*
X109836788Y-115898768D01*
X109824015Y-115892260D01*
X109682447Y-115820128D01*
X109682446Y-115820127D01*
X109682445Y-115820127D01*
X109517701Y-115766598D01*
X109517699Y-115766597D01*
X109517698Y-115766597D01*
X109384279Y-115745466D01*
X109346611Y-115739500D01*
X109173389Y-115739500D01*
X109135721Y-115745466D01*
X109002302Y-115766597D01*
X108837552Y-115820128D01*
X108683208Y-115898769D01*
X108655069Y-115919214D01*
X108589262Y-115942693D01*
X108521209Y-115926867D01*
X108472515Y-115876760D01*
X108462410Y-115850988D01*
X108460500Y-115843859D01*
X108460500Y-115843856D01*
X108436614Y-115754712D01*
X108431276Y-115745466D01*
X108427831Y-115739499D01*
X108427829Y-115739497D01*
X108395871Y-115684143D01*
X108390470Y-115674788D01*
X105385212Y-112669530D01*
X105385211Y-112669529D01*
X105385208Y-112669527D01*
X105305290Y-112623387D01*
X105305289Y-112623386D01*
X105305288Y-112623386D01*
X105216144Y-112599500D01*
X105216143Y-112599500D01*
X72067255Y-112599500D01*
X72000216Y-112579815D01*
X71979574Y-112563181D01*
X71888347Y-112471954D01*
X71888344Y-112471952D01*
X71888342Y-112471950D01*
X71811517Y-112432805D01*
X71775301Y-112414352D01*
X71681524Y-112399500D01*
X70443482Y-112399500D01*
X70362519Y-112412323D01*
X70349696Y-112414354D01*
X70236658Y-112471950D01*
X70236657Y-112471951D01*
X70236652Y-112471954D01*
X70146954Y-112561652D01*
X70146949Y-112561659D01*
X70104426Y-112645114D01*
X70056451Y-112695909D01*
X69988630Y-112712704D01*
X69922495Y-112690166D01*
X69906282Y-112676520D01*
X69891840Y-112662085D01*
X69858340Y-112600770D01*
X69855500Y-112574383D01*
X69855500Y-111382835D01*
X69875185Y-111315796D01*
X69927989Y-111270041D01*
X69997147Y-111260097D01*
X70060703Y-111289122D01*
X70089981Y-111326535D01*
X70146174Y-111436819D01*
X70146951Y-111438343D01*
X70146954Y-111438347D01*
X70236652Y-111528045D01*
X70236654Y-111528046D01*
X70236658Y-111528050D01*
X70333008Y-111577143D01*
X70349698Y-111585647D01*
X70443475Y-111600499D01*
X70443481Y-111600500D01*
X71681518Y-111600499D01*
X71775304Y-111585646D01*
X71888342Y-111528050D01*
X71920067Y-111496325D01*
X71979574Y-111436819D01*
X72040897Y-111403334D01*
X72067255Y-111400500D01*
X90830073Y-111400500D01*
X90860835Y-111400501D01*
X90860839Y-111400500D01*
X90860844Y-111400500D01*
X90916310Y-111385637D01*
X90916314Y-111385637D01*
X90916314Y-111385636D01*
X90926769Y-111382835D01*
X90944217Y-111378160D01*
X90949166Y-111377088D01*
X90949986Y-111376614D01*
X90949988Y-111376614D01*
X90986149Y-111355736D01*
X91019054Y-111336739D01*
X91021668Y-111335563D01*
X91028277Y-111331479D01*
X91030541Y-111330125D01*
X91031630Y-111329115D01*
X91034751Y-111325629D01*
X91050632Y-111309748D01*
X97181650Y-105179025D01*
X97242970Y-105145544D01*
X97312661Y-105150530D01*
X97357006Y-105179030D01*
X97360185Y-105182209D01*
X97360186Y-105182210D01*
X97360188Y-105182211D01*
X97485711Y-105254682D01*
X97485712Y-105254682D01*
X97485715Y-105254684D01*
X97625725Y-105292200D01*
X97625728Y-105292200D01*
X97770672Y-105292200D01*
X97770675Y-105292200D01*
X97910685Y-105254684D01*
X98036215Y-105182209D01*
X98138709Y-105079715D01*
X98184813Y-104999861D01*
X98235380Y-104951645D01*
X98303987Y-104938423D01*
X98368852Y-104964391D01*
G37*
G04 #@! TD.AperFunction*
G04 #@! TA.AperFunction,Conductor*
G36*
X90815395Y-98993646D02*
G01*
X90831635Y-99007317D01*
X91992488Y-100168170D01*
X92025973Y-100229493D01*
X92020989Y-100299185D01*
X91979119Y-100355117D01*
X91862452Y-100442455D01*
X91776206Y-100557664D01*
X91776202Y-100557671D01*
X91725908Y-100692517D01*
X91719501Y-100752116D01*
X91719500Y-100752135D01*
X91719500Y-102847870D01*
X91719501Y-102847876D01*
X91725908Y-102907483D01*
X91776202Y-103042328D01*
X91776206Y-103042335D01*
X91862452Y-103157544D01*
X91862455Y-103157547D01*
X91977664Y-103243793D01*
X91977671Y-103243797D01*
X92112517Y-103294091D01*
X92112516Y-103294091D01*
X92119444Y-103294835D01*
X92172127Y-103300500D01*
X93567872Y-103300499D01*
X93627483Y-103294091D01*
X93762331Y-103243796D01*
X93877546Y-103157546D01*
X93963796Y-103042331D01*
X94014091Y-102907483D01*
X94020500Y-102847873D01*
X94020499Y-101649499D01*
X94040184Y-101582461D01*
X94092987Y-101536706D01*
X94144499Y-101525500D01*
X94655500Y-101525500D01*
X94722539Y-101545185D01*
X94768294Y-101597989D01*
X94779500Y-101649500D01*
X94779500Y-104647870D01*
X94779501Y-104647876D01*
X94785908Y-104707483D01*
X94836202Y-104842328D01*
X94836206Y-104842335D01*
X94922452Y-104957544D01*
X94922455Y-104957547D01*
X95037664Y-105043793D01*
X95037671Y-105043797D01*
X95172517Y-105094091D01*
X95172516Y-105094091D01*
X95179444Y-105094835D01*
X95232127Y-105100500D01*
X95969420Y-105100499D01*
X96036459Y-105120183D01*
X96082214Y-105172987D01*
X96092158Y-105242146D01*
X96063133Y-105305702D01*
X96057099Y-105312182D01*
X92175911Y-109193185D01*
X90742017Y-110627011D01*
X90705843Y-110663183D01*
X90644519Y-110696667D01*
X90618164Y-110699500D01*
X88955202Y-110699500D01*
X88888163Y-110679815D01*
X88842408Y-110627011D01*
X88832464Y-110557853D01*
X88855935Y-110501189D01*
X88857199Y-110499501D01*
X88871628Y-110480226D01*
X88919412Y-110352114D01*
X88921868Y-110329266D01*
X88925499Y-110295501D01*
X88925499Y-110295494D01*
X88925500Y-110295485D01*
X88925499Y-109704516D01*
X88921018Y-109662825D01*
X88919412Y-109647885D01*
X88901588Y-109600101D01*
X88871628Y-109519774D01*
X88789687Y-109410313D01*
X88707089Y-109348481D01*
X88680228Y-109328373D01*
X88680226Y-109328372D01*
X88552114Y-109280588D01*
X88552112Y-109280587D01*
X88552110Y-109280587D01*
X88495493Y-109274500D01*
X87954518Y-109274500D01*
X87954509Y-109274501D01*
X87897885Y-109280587D01*
X87769773Y-109328372D01*
X87660313Y-109410313D01*
X87578371Y-109519774D01*
X87560073Y-109568834D01*
X87518202Y-109624768D01*
X87452737Y-109649184D01*
X87443892Y-109649500D01*
X86563847Y-109649500D01*
X86496808Y-109629815D01*
X86451053Y-109577011D01*
X86446812Y-109566471D01*
X86427793Y-109512118D01*
X86347150Y-109402850D01*
X86237882Y-109322207D01*
X86237880Y-109322206D01*
X86109700Y-109277353D01*
X86079270Y-109274500D01*
X86079266Y-109274500D01*
X85695544Y-109274500D01*
X85628505Y-109254815D01*
X85582750Y-109202011D01*
X85572806Y-109132853D01*
X85601831Y-109069297D01*
X85607863Y-109062819D01*
X87182802Y-107487880D01*
X88780470Y-105890212D01*
X88826614Y-105810288D01*
X88846213Y-105737143D01*
X88850500Y-105721144D01*
X88850500Y-103145499D01*
X88870185Y-103078460D01*
X88922989Y-103032705D01*
X88974495Y-103021499D01*
X90331518Y-103021499D01*
X90425304Y-103006646D01*
X90538342Y-102949050D01*
X90628050Y-102859342D01*
X90685646Y-102746304D01*
X90685646Y-102746302D01*
X90685647Y-102746301D01*
X90700499Y-102652524D01*
X90700500Y-102652519D01*
X90700499Y-102289482D01*
X90685646Y-102195696D01*
X90685645Y-102195694D01*
X90684119Y-102186057D01*
X90685803Y-102185790D01*
X90684132Y-102127343D01*
X90716395Y-102071164D01*
X90965181Y-101822486D01*
X90965212Y-101822469D01*
X90995563Y-101792117D01*
X91030423Y-101757273D01*
X91030443Y-101757237D01*
X91030469Y-101757212D01*
X91052844Y-101718457D01*
X91076585Y-101677358D01*
X91076594Y-101677321D01*
X91076614Y-101677288D01*
X91089246Y-101630144D01*
X91100489Y-101588219D01*
X91100489Y-101588185D01*
X91100500Y-101588144D01*
X91100500Y-101537461D01*
X91100509Y-101495932D01*
X91100500Y-101495898D01*
X91100500Y-100914219D01*
X91100540Y-100913594D01*
X91100534Y-100905876D01*
X91100535Y-100905873D01*
X91100500Y-100860379D01*
X91100500Y-100813856D01*
X91100464Y-100813722D01*
X91100464Y-100813586D01*
X91088669Y-100769705D01*
X91076614Y-100724712D01*
X91076544Y-100724591D01*
X91076509Y-100724460D01*
X91053467Y-100684622D01*
X91030469Y-100644788D01*
X91030372Y-100644691D01*
X91030303Y-100644571D01*
X90997182Y-100611501D01*
X90975688Y-100590007D01*
X90959826Y-100574144D01*
X90959344Y-100573721D01*
X90936905Y-100551317D01*
X90737417Y-100352136D01*
X90737424Y-100352128D01*
X90737349Y-100352068D01*
X90705808Y-100320527D01*
X90705598Y-100320366D01*
X90705596Y-100320364D01*
X90705592Y-100320362D01*
X90705590Y-100320360D01*
X90665320Y-100297152D01*
X90665251Y-100297079D01*
X90665237Y-100297104D01*
X90625890Y-100274387D01*
X90625846Y-100274369D01*
X90625638Y-100274282D01*
X90581736Y-100262555D01*
X90581739Y-100262543D01*
X90581646Y-100262531D01*
X90536739Y-100250498D01*
X90536483Y-100250465D01*
X90536473Y-100250465D01*
X90490979Y-100250500D01*
X89005762Y-100250500D01*
X88938723Y-100230815D01*
X88918138Y-100214238D01*
X88891876Y-100188010D01*
X88858351Y-100126709D01*
X88855500Y-100100272D01*
X88855500Y-99335499D01*
X88875185Y-99268460D01*
X88927989Y-99222705D01*
X88979495Y-99211499D01*
X90331518Y-99211499D01*
X90425304Y-99196646D01*
X90538342Y-99139050D01*
X90628050Y-99049342D01*
X90633471Y-99038702D01*
X90681438Y-98987910D01*
X90749259Y-98971112D01*
X90815395Y-98993646D01*
G37*
G04 #@! TD.AperFunction*
G04 #@! TA.AperFunction,Conductor*
G36*
X64463834Y-97573161D02*
G01*
X64519767Y-97615033D01*
X64544184Y-97680497D01*
X64544500Y-97689343D01*
X64544500Y-99381517D01*
X64554152Y-99442455D01*
X64559354Y-99475304D01*
X64616950Y-99588342D01*
X64616952Y-99588344D01*
X64616954Y-99588347D01*
X64706652Y-99678045D01*
X64706654Y-99678046D01*
X64706658Y-99678050D01*
X64816699Y-99734119D01*
X64819698Y-99735647D01*
X64913475Y-99750499D01*
X64913481Y-99750500D01*
X65276518Y-99750499D01*
X65370304Y-99735646D01*
X65370305Y-99735645D01*
X65379943Y-99734119D01*
X65380202Y-99735760D01*
X65438801Y-99734083D01*
X65494972Y-99766335D01*
X65630317Y-99901697D01*
X66777246Y-101048769D01*
X66810727Y-101110093D01*
X66805738Y-101179785D01*
X66763863Y-101235716D01*
X66729294Y-101253905D01*
X66701164Y-101263421D01*
X66694056Y-101265591D01*
X64564668Y-101846334D01*
X64564663Y-101846336D01*
X64542781Y-101852304D01*
X64532938Y-101852895D01*
X64498395Y-101864409D01*
X64463259Y-101873992D01*
X64454739Y-101878961D01*
X64445387Y-101882079D01*
X64415003Y-101902139D01*
X64383541Y-101920491D01*
X64376599Y-101927494D01*
X64368370Y-101932928D01*
X64344201Y-101960183D01*
X64318575Y-101986040D01*
X64313684Y-101994598D01*
X64307140Y-102001979D01*
X64290848Y-102034561D01*
X64281909Y-102050204D01*
X64281906Y-102050208D01*
X64272788Y-102066166D01*
X64269712Y-102073688D01*
X64269637Y-102073657D01*
X64264541Y-102087173D01*
X64089894Y-102436468D01*
X64088070Y-102439975D01*
X64069720Y-102473923D01*
X64067705Y-102479202D01*
X64065868Y-102484519D01*
X64058135Y-102522304D01*
X64057281Y-102526161D01*
X62288696Y-109954221D01*
X62254019Y-110014878D01*
X62192053Y-110047158D01*
X62168069Y-110049500D01*
X61957130Y-110049500D01*
X61957123Y-110049501D01*
X61897516Y-110055908D01*
X61762671Y-110106202D01*
X61762664Y-110106206D01*
X61647455Y-110192452D01*
X61647452Y-110192455D01*
X61573766Y-110290887D01*
X61517832Y-110332758D01*
X61448141Y-110337742D01*
X61386818Y-110304256D01*
X61353334Y-110242933D01*
X61350500Y-110216576D01*
X61350500Y-100635472D01*
X61370185Y-100568433D01*
X61386769Y-100547841D01*
X61387645Y-100546964D01*
X61448949Y-100513444D01*
X61518643Y-100518389D01*
X61574601Y-100560228D01*
X61574642Y-100560283D01*
X61616410Y-100616077D01*
X61644656Y-100653809D01*
X61647455Y-100657547D01*
X61762664Y-100743793D01*
X61762671Y-100743797D01*
X61897517Y-100794091D01*
X61897516Y-100794091D01*
X61904444Y-100794835D01*
X61957127Y-100800500D01*
X63002872Y-100800499D01*
X63062483Y-100794091D01*
X63197331Y-100743796D01*
X63312546Y-100657546D01*
X63398796Y-100542331D01*
X63449091Y-100407483D01*
X63455500Y-100347873D01*
X63455499Y-99752128D01*
X63450299Y-99703757D01*
X63449091Y-99692516D01*
X63398797Y-99557671D01*
X63398793Y-99557664D01*
X63312547Y-99442455D01*
X63312544Y-99442452D01*
X63197335Y-99356206D01*
X63197328Y-99356202D01*
X63062482Y-99305908D01*
X63062483Y-99305908D01*
X63002883Y-99299501D01*
X63002881Y-99299500D01*
X63002873Y-99299500D01*
X63002865Y-99299500D01*
X62954500Y-99299500D01*
X62887461Y-99279815D01*
X62841706Y-99227011D01*
X62830500Y-99175500D01*
X62830500Y-99155344D01*
X62850185Y-99088305D01*
X62866819Y-99067663D01*
X63588988Y-98345494D01*
X64332821Y-97601660D01*
X64394142Y-97568177D01*
X64463834Y-97573161D01*
G37*
G04 #@! TD.AperFunction*
G04 #@! TA.AperFunction,Conductor*
G36*
X107918834Y-107269361D02*
G01*
X107974767Y-107311233D01*
X107999184Y-107376697D01*
X107999500Y-107385543D01*
X107999500Y-110188428D01*
X107979815Y-110255467D01*
X107927011Y-110301222D01*
X107857853Y-110311166D01*
X107801189Y-110287695D01*
X107783322Y-110274320D01*
X107692331Y-110206204D01*
X107692329Y-110206203D01*
X107692328Y-110206202D01*
X107557482Y-110155908D01*
X107557483Y-110155908D01*
X107497883Y-110149501D01*
X107497881Y-110149500D01*
X107497873Y-110149500D01*
X107497865Y-110149500D01*
X106784544Y-110149500D01*
X106717505Y-110129815D01*
X106696863Y-110113181D01*
X106386819Y-109803137D01*
X106353334Y-109741814D01*
X106350500Y-109715456D01*
X106350500Y-108786543D01*
X106370185Y-108719504D01*
X106386815Y-108698866D01*
X106567217Y-108518463D01*
X106628538Y-108484980D01*
X106698229Y-108489964D01*
X106704375Y-108492860D01*
X106704411Y-108492775D01*
X106711908Y-108495880D01*
X106711915Y-108495884D01*
X106851925Y-108533400D01*
X106851928Y-108533400D01*
X106996872Y-108533400D01*
X106996875Y-108533400D01*
X107136885Y-108495884D01*
X107262415Y-108423409D01*
X107364909Y-108320915D01*
X107437384Y-108195385D01*
X107474900Y-108055375D01*
X107474900Y-107910425D01*
X107437384Y-107770415D01*
X107437380Y-107770408D01*
X107434275Y-107762911D01*
X107436963Y-107761797D01*
X107423786Y-107707513D01*
X107446628Y-107641483D01*
X107459958Y-107625722D01*
X107787820Y-107297861D01*
X107849142Y-107264377D01*
X107918834Y-107269361D01*
G37*
G04 #@! TD.AperFunction*
G04 #@! TA.AperFunction,Conductor*
G36*
X106461687Y-96220185D02*
G01*
X106507442Y-96272989D01*
X106517386Y-96342147D01*
X106488361Y-96405703D01*
X106482356Y-96412154D01*
X106433215Y-96461319D01*
X106251833Y-96642786D01*
X106251812Y-96642806D01*
X106224400Y-96670217D01*
X106224398Y-96670220D01*
X106219531Y-96675088D01*
X106219510Y-96675123D01*
X106219480Y-96675154D01*
X106196019Y-96715811D01*
X106173386Y-96755012D01*
X106173375Y-96755052D01*
X106173354Y-96755089D01*
X106161730Y-96798510D01*
X106149500Y-96844156D01*
X106149500Y-96844200D01*
X106149490Y-96844238D01*
X106149493Y-96859800D01*
X106149493Y-96859802D01*
X106149500Y-96888183D01*
X106149500Y-98818739D01*
X106129815Y-98885778D01*
X106113177Y-98906425D01*
X105424946Y-99594582D01*
X103760985Y-101258366D01*
X103606148Y-101413186D01*
X103544823Y-101446668D01*
X103518471Y-101449500D01*
X101918856Y-101449500D01*
X101829712Y-101473386D01*
X101829711Y-101473386D01*
X101829709Y-101473387D01*
X101829706Y-101473388D01*
X101749794Y-101519526D01*
X101749789Y-101519530D01*
X101692180Y-101577139D01*
X101630856Y-101610623D01*
X101561165Y-101605638D01*
X101505231Y-101563767D01*
X101480815Y-101498302D01*
X101480499Y-101489457D01*
X101480499Y-99591544D01*
X101500184Y-99524505D01*
X101516818Y-99503863D01*
X101685182Y-99335499D01*
X101878900Y-99141780D01*
X101940221Y-99108297D01*
X102009910Y-99113280D01*
X102092517Y-99144091D01*
X102152127Y-99150500D01*
X102897872Y-99150499D01*
X102957483Y-99144091D01*
X103092331Y-99093796D01*
X103207546Y-99007546D01*
X103293796Y-98892331D01*
X103344091Y-98757483D01*
X103350500Y-98697873D01*
X103350499Y-97302128D01*
X103344091Y-97242517D01*
X103316094Y-97167454D01*
X103293797Y-97107671D01*
X103293793Y-97107664D01*
X103207547Y-96992455D01*
X103207544Y-96992452D01*
X103092335Y-96906206D01*
X103092328Y-96906202D01*
X102957486Y-96855910D01*
X102957485Y-96855909D01*
X102957483Y-96855909D01*
X102897873Y-96849500D01*
X102897864Y-96849500D01*
X102340542Y-96849500D01*
X102273503Y-96829815D01*
X102227748Y-96777011D01*
X102217804Y-96707853D01*
X102246829Y-96644297D01*
X102252842Y-96637838D01*
X102653863Y-96236819D01*
X102715186Y-96203334D01*
X102741544Y-96200500D01*
X106394648Y-96200500D01*
X106461687Y-96220185D01*
G37*
G04 #@! TD.AperFunction*
G04 #@! TA.AperFunction,Conductor*
G36*
X102184795Y-95501885D02*
G01*
X102230550Y-95554689D01*
X102240494Y-95623847D01*
X102211469Y-95687403D01*
X102205437Y-95693881D01*
X97192180Y-100707137D01*
X97130857Y-100740622D01*
X97061165Y-100735638D01*
X97005232Y-100693766D01*
X96980815Y-100628302D01*
X96980499Y-100619456D01*
X96980499Y-99352129D01*
X96980498Y-99352123D01*
X96980497Y-99352116D01*
X96974091Y-99292517D01*
X96969353Y-99279815D01*
X96923797Y-99157671D01*
X96923793Y-99157664D01*
X96837547Y-99042455D01*
X96837544Y-99042452D01*
X96722335Y-98956206D01*
X96722328Y-98956202D01*
X96587482Y-98905908D01*
X96587483Y-98905908D01*
X96527883Y-98899501D01*
X96527881Y-98899500D01*
X96527873Y-98899500D01*
X96527864Y-98899500D01*
X95232129Y-98899500D01*
X95232123Y-98899501D01*
X95172516Y-98905908D01*
X95037671Y-98956202D01*
X95037664Y-98956206D01*
X94922455Y-99042452D01*
X94922452Y-99042455D01*
X94836206Y-99157664D01*
X94836202Y-99157671D01*
X94785908Y-99292517D01*
X94779928Y-99348147D01*
X94779501Y-99352123D01*
X94779500Y-99352135D01*
X94779500Y-100700500D01*
X94759815Y-100767539D01*
X94707011Y-100813294D01*
X94655500Y-100824500D01*
X94139664Y-100824500D01*
X94072625Y-100804815D01*
X94026870Y-100752011D01*
X94016374Y-100713754D01*
X94016170Y-100711857D01*
X94014091Y-100692517D01*
X93971925Y-100579463D01*
X93963797Y-100557671D01*
X93963793Y-100557664D01*
X93877547Y-100442455D01*
X93877544Y-100442452D01*
X93762335Y-100356206D01*
X93762328Y-100356202D01*
X93627482Y-100305908D01*
X93627483Y-100305908D01*
X93567883Y-100299501D01*
X93567881Y-100299500D01*
X93567873Y-100299500D01*
X93567865Y-100299500D01*
X93166544Y-100299500D01*
X93099505Y-100279815D01*
X93078863Y-100263181D01*
X89565213Y-96749531D01*
X89565208Y-96749527D01*
X89485289Y-96703386D01*
X89481347Y-96702330D01*
X89474517Y-96700500D01*
X89474516Y-96700499D01*
X89417143Y-96685126D01*
X89396144Y-96679500D01*
X89396143Y-96679500D01*
X88556108Y-96679500D01*
X88489069Y-96659815D01*
X88443314Y-96607011D01*
X88439927Y-96598834D01*
X88421628Y-96549774D01*
X88388609Y-96505666D01*
X88339687Y-96440313D01*
X88273911Y-96391074D01*
X88230228Y-96358373D01*
X88230226Y-96358372D01*
X88102114Y-96310588D01*
X88102112Y-96310587D01*
X88102110Y-96310587D01*
X88045493Y-96304500D01*
X87504518Y-96304500D01*
X87504509Y-96304501D01*
X87447885Y-96310587D01*
X87319773Y-96358372D01*
X87210313Y-96440313D01*
X87128372Y-96549773D01*
X87116181Y-96582459D01*
X87074310Y-96638392D01*
X87008845Y-96662808D01*
X86940572Y-96647956D01*
X86891167Y-96598550D01*
X86883819Y-96582459D01*
X86874573Y-96557671D01*
X86871628Y-96549774D01*
X86789687Y-96440313D01*
X86723911Y-96391074D01*
X86680228Y-96358373D01*
X86680226Y-96358372D01*
X86552114Y-96310588D01*
X86552112Y-96310587D01*
X86552110Y-96310587D01*
X86495493Y-96304500D01*
X85954518Y-96304500D01*
X85954509Y-96304501D01*
X85897885Y-96310587D01*
X85769773Y-96358372D01*
X85660313Y-96440313D01*
X85578373Y-96549771D01*
X85566181Y-96582459D01*
X85533449Y-96670217D01*
X85530587Y-96677889D01*
X85524500Y-96734498D01*
X85524500Y-96939455D01*
X85504815Y-97006494D01*
X85488181Y-97027136D01*
X84441135Y-98074181D01*
X84379812Y-98107666D01*
X84353454Y-98110500D01*
X83668482Y-98110500D01*
X83587519Y-98123323D01*
X83574696Y-98125354D01*
X83461658Y-98182950D01*
X83461657Y-98182951D01*
X83461652Y-98182954D01*
X83371954Y-98272652D01*
X83371951Y-98272657D01*
X83371950Y-98272658D01*
X83359141Y-98297797D01*
X83314352Y-98385698D01*
X83299500Y-98479475D01*
X83299500Y-98842517D01*
X83308525Y-98899500D01*
X83314354Y-98936304D01*
X83371950Y-99049342D01*
X83371952Y-99049344D01*
X83371954Y-99049347D01*
X83461652Y-99139045D01*
X83461654Y-99139046D01*
X83461658Y-99139050D01*
X83552851Y-99185515D01*
X83603647Y-99233490D01*
X83620442Y-99301311D01*
X83597904Y-99367446D01*
X83552852Y-99406484D01*
X83461658Y-99452950D01*
X83461657Y-99452951D01*
X83461652Y-99452954D01*
X83370426Y-99544181D01*
X83309103Y-99577666D01*
X83282745Y-99580500D01*
X81257543Y-99580500D01*
X81190504Y-99560815D01*
X81169862Y-99544181D01*
X79916818Y-98291137D01*
X79883333Y-98229814D01*
X79880499Y-98203456D01*
X79880499Y-97477129D01*
X79880498Y-97477123D01*
X79880497Y-97477116D01*
X79874091Y-97417517D01*
X79872977Y-97414531D01*
X79823797Y-97282671D01*
X79823793Y-97282664D01*
X79737547Y-97167455D01*
X79737544Y-97167452D01*
X79622335Y-97081206D01*
X79622328Y-97081202D01*
X79487482Y-97030908D01*
X79487483Y-97030908D01*
X79427883Y-97024501D01*
X79427881Y-97024500D01*
X79427873Y-97024500D01*
X79427865Y-97024500D01*
X79176244Y-97024500D01*
X79109205Y-97004815D01*
X79088563Y-96988181D01*
X78737063Y-96636681D01*
X78703578Y-96575358D01*
X78708562Y-96505666D01*
X78737063Y-96461319D01*
X79679863Y-95518519D01*
X79741186Y-95485034D01*
X79767544Y-95482200D01*
X102117756Y-95482200D01*
X102184795Y-95501885D01*
G37*
G04 #@! TD.AperFunction*
M02*
