G04 #@! TF.GenerationSoftware,KiCad,Pcbnew,10.0.5*
G04 #@! TF.CreationDate,2026-08-11T08:47:26+09:00*
G04 #@! TF.ProjectId,OBD_CAN_ESP32_V2,4f42445f-4341-44e5-9f45-535033325f56,rev?*
G04 #@! TF.SameCoordinates,Original*
G04 #@! TF.FileFunction,Legend,Top*
G04 #@! TF.FilePolarity,Positive*
%FSLAX46Y46*%
G04 Gerber Fmt 4.6, Leading zero omitted, Abs format (unit mm)*
G04 Created by KiCad (PCBNEW 10.0.5) date 2026-08-11 08:47:26*
%MOMM*%
%LPD*%
G01*
G04 APERTURE LIST*
%ADD10C,0.120000*%
G04 APERTURE END LIST*
D10*
X86859420Y-96520000D02*
X87140580Y-96520000D01*
X86859420Y-97540000D02*
X87140580Y-97540000D01*
X95020000Y-98890000D02*
X101240000Y-98890000D01*
X101240000Y-105110000D02*
X95020000Y-105110000D01*
X59620000Y-95360000D02*
X59620000Y-93980000D01*
X61000000Y-95360000D02*
X59620000Y-95360000D01*
X62270000Y-92600000D02*
X115720000Y-92600000D01*
X62270000Y-95360000D02*
X62270000Y-92600000D01*
X62270000Y-95360000D02*
X115720000Y-95360000D01*
X115720000Y-95360000D02*
X115720000Y-92600000D01*
X66772936Y-110265000D02*
X67227064Y-110265000D01*
X66772936Y-111735000D02*
X67227064Y-111735000D01*
X61745000Y-101261252D02*
X61745000Y-100738748D01*
X63215000Y-101261252D02*
X63215000Y-100738748D01*
X84940000Y-98006000D02*
X89060000Y-98006000D01*
X84940000Y-98101000D02*
X84940000Y-98006000D01*
X84940000Y-103126000D02*
X84940000Y-103031000D01*
X89060000Y-98006000D02*
X89060000Y-98101000D01*
X89060000Y-103031000D02*
X89060000Y-103126000D01*
X89060000Y-103126000D02*
X84940000Y-103126000D01*
X84340000Y-98096000D02*
X84100000Y-97766000D01*
X84580000Y-97766000D01*
X84340000Y-98096000D01*
G36*
X84340000Y-98096000D02*
G01*
X84100000Y-97766000D01*
X84580000Y-97766000D01*
X84340000Y-98096000D01*
G37*
X107640000Y-102000000D02*
X107640000Y-104000000D01*
X107640000Y-102000000D02*
X111650000Y-102000000D01*
X107640000Y-104000000D02*
X111650000Y-104000000D01*
X59620000Y-118220000D02*
X59620000Y-116840000D01*
X61000000Y-118220000D02*
X59620000Y-118220000D01*
X62270000Y-115460000D02*
X115720000Y-115460000D01*
X62270000Y-118220000D02*
X62270000Y-115460000D01*
X62270000Y-118220000D02*
X115720000Y-118220000D01*
X115720000Y-118220000D02*
X115720000Y-115460000D01*
X62952936Y-110265000D02*
X63407064Y-110265000D01*
X62952936Y-111735000D02*
X63407064Y-111735000D01*
X108613748Y-96540000D02*
X111386252Y-96540000D01*
X108613748Y-99960000D02*
X111386252Y-99960000D01*
X103288748Y-102090000D02*
X104711252Y-102090000D01*
X103288748Y-103910000D02*
X104711252Y-103910000D01*
X88859420Y-109490000D02*
X89140580Y-109490000D01*
X88859420Y-110510000D02*
X89140580Y-110510000D01*
X75208748Y-96640000D02*
X76631252Y-96640000D01*
X75208748Y-99360000D02*
X76631252Y-99360000D01*
X77762742Y-105477500D02*
X78237258Y-105477500D01*
X77762742Y-106522500D02*
X78237258Y-106522500D01*
X84762742Y-109477500D02*
X85237258Y-109477500D01*
X84762742Y-110522500D02*
X85237258Y-110522500D01*
X79818748Y-97265000D02*
X80341252Y-97265000D01*
X79818748Y-98735000D02*
X80341252Y-98735000D01*
X106265000Y-110227064D02*
X106265000Y-109772936D01*
X107735000Y-110227064D02*
X107735000Y-109772936D01*
X81762742Y-106477500D02*
X82237258Y-106477500D01*
X81762742Y-107522500D02*
X82237258Y-107522500D01*
X91220000Y-103310000D02*
X91220000Y-97800000D01*
X91220000Y-103310000D02*
X94520000Y-103310000D01*
X94520000Y-103310000D02*
X94520000Y-97800000D01*
X75288748Y-100640000D02*
X76711252Y-100640000D01*
X75288748Y-103360000D02*
X76711252Y-103360000D01*
X71240000Y-110440000D02*
X72760000Y-110440000D01*
X71240000Y-110490000D02*
X71240000Y-110440000D01*
X71240000Y-112390000D02*
X71240000Y-111610000D01*
X71240000Y-113560000D02*
X71240000Y-113510000D01*
X72760000Y-110440000D02*
X72760000Y-111440000D01*
X72760000Y-112560000D02*
X72760000Y-113560000D01*
X72760000Y-113560000D02*
X71240000Y-113560000D01*
X70700000Y-111620000D02*
X70940000Y-111950000D01*
X70460000Y-111950000D01*
X70700000Y-111620000D01*
G36*
X70940000Y-111950000D02*
G01*
X70460000Y-111950000D01*
X70700000Y-111620000D01*
X70940000Y-111950000D01*
G37*
X64440000Y-98940000D02*
X64535000Y-98940000D01*
X64440000Y-103060000D02*
X64440000Y-98940000D01*
X64535000Y-103060000D02*
X64440000Y-103060000D01*
X69465000Y-98940000D02*
X69560000Y-98940000D01*
X69560000Y-98940000D02*
X69560000Y-103060000D01*
X69560000Y-103060000D02*
X69465000Y-103060000D01*
X69470000Y-98400000D02*
X69800000Y-98160000D01*
X69800000Y-98640000D01*
X69470000Y-98400000D01*
G36*
X69800000Y-98640000D02*
G01*
X69470000Y-98400000D01*
X69800000Y-98160000D01*
X69800000Y-98640000D01*
G37*
X103288748Y-97090000D02*
X104711252Y-97090000D01*
X103288748Y-98910000D02*
X104711252Y-98910000D01*
X81762742Y-103579500D02*
X82237258Y-103579500D01*
X81762742Y-104624500D02*
X82237258Y-104624500D01*
M02*
