G04 #@! TF.GenerationSoftware,KiCad,Pcbnew,10.0.5*
G04 #@! TF.CreationDate,2026-08-10T23:46:43+09:00*
G04 #@! TF.ProjectId,OBD_CAN_ESP32_V2,4f42445f-4341-44e5-9f45-535033325f56,rev?*
G04 #@! TF.SameCoordinates,Original*
G04 #@! TF.FileFunction,Copper,L2,Bot*
G04 #@! TF.FilePolarity,Positive*
%FSLAX46Y46*%
G04 Gerber Fmt 4.6, Leading zero omitted, Abs format (unit mm)*
G04 Created by KiCad (PCBNEW 10.0.5) date 2026-08-10 23:46:43*
%MOMM*%
%LPD*%
G01*
G04 APERTURE LIST*
G04 Aperture macros list*
%AMRoundRect*
0 Rectangle with rounded corners*
0 $1 Rounding radius*
0 $2 $3 $4 $5 $6 $7 $8 $9 X,Y pos of 4 corners*
0 Add a 4 corners polygon primitive as box body*
4,1,4,$2,$3,$4,$5,$6,$7,$8,$9,$2,$3,0*
0 Add four circle primitives for the rounded corners*
1,1,$1+$1,$2,$3*
1,1,$1+$1,$4,$5*
1,1,$1+$1,$6,$7*
1,1,$1+$1,$8,$9*
0 Add four rect primitives between the rounded corners*
20,1,$1+$1,$2,$3,$4,$5,0*
20,1,$1+$1,$4,$5,$6,$7,0*
20,1,$1+$1,$6,$7,$8,$9,0*
20,1,$1+$1,$8,$9,$2,$3,0*%
G04 Aperture macros list end*
G04 #@! TA.AperFunction,ComponentPad*
%ADD10R,1.700000X1.700000*%
G04 #@! TD*
G04 #@! TA.AperFunction,ComponentPad*
%ADD11C,1.700000*%
G04 #@! TD*
G04 #@! TA.AperFunction,HeatsinkPad*
%ADD12C,0.500000*%
G04 #@! TD*
G04 #@! TA.AperFunction,HeatsinkPad*
%ADD13R,2.410000X3.100000*%
G04 #@! TD*
G04 #@! TA.AperFunction,SMDPad,CuDef*
%ADD14C,2.000000*%
G04 #@! TD*
G04 #@! TA.AperFunction,ComponentPad*
%ADD15RoundRect,0.250000X-0.725000X0.600000X-0.725000X-0.600000X0.725000X-0.600000X0.725000X0.600000X0*%
G04 #@! TD*
G04 #@! TA.AperFunction,ComponentPad*
%ADD16O,1.950000X1.700000*%
G04 #@! TD*
G04 #@! TA.AperFunction,SMDPad,CuDef*
%ADD17RoundRect,0.250000X0.850000X0.350000X-0.850000X0.350000X-0.850000X-0.350000X0.850000X-0.350000X0*%
G04 #@! TD*
G04 #@! TA.AperFunction,SMDPad,CuDef*
%ADD18RoundRect,0.249997X2.950003X2.650003X-2.950003X2.650003X-2.950003X-2.650003X2.950003X-2.650003X0*%
G04 #@! TD*
G04 #@! TA.AperFunction,SMDPad,CuDef*
%ADD19R,8.400000X8.000000*%
G04 #@! TD*
G04 #@! TA.AperFunction,SMDPad,CuDef*
%ADD20R,2.150000X2.600000*%
G04 #@! TD*
G04 #@! TA.AperFunction,ViaPad*
%ADD21C,0.600000*%
G04 #@! TD*
G04 #@! TA.AperFunction,Conductor*
%ADD22C,0.200000*%
G04 #@! TD*
G04 #@! TA.AperFunction,Conductor*
%ADD23C,0.250000*%
G04 #@! TD*
G04 APERTURE END LIST*
D10*
X61000000Y-93980000D03*
D11*
X63540000Y-93980000D03*
X66080000Y-93980000D03*
X68620000Y-93980000D03*
X71160000Y-93980000D03*
X73700000Y-93980000D03*
X76240000Y-93980000D03*
X78780000Y-93980000D03*
X81320000Y-93980000D03*
X83860000Y-93980000D03*
X86400000Y-93980000D03*
X88940000Y-93980000D03*
X91480000Y-93980000D03*
X94020000Y-93980000D03*
X96560000Y-93980000D03*
X99100000Y-93980000D03*
X101640000Y-93980000D03*
X104180000Y-93980000D03*
X106720000Y-93980000D03*
X109260000Y-93980000D03*
X111800000Y-93980000D03*
X114340000Y-93980000D03*
D12*
X86045000Y-99266000D03*
X86045000Y-100566000D03*
X86045000Y-101866000D03*
D13*
X87000000Y-100566000D03*
D12*
X87955000Y-99266000D03*
X87955000Y-100566000D03*
X87955000Y-101866000D03*
D10*
X61000000Y-116840000D03*
D11*
X63540000Y-116840000D03*
X66080000Y-116840000D03*
X68620000Y-116840000D03*
X71160000Y-116840000D03*
X73700000Y-116840000D03*
X76240000Y-116840000D03*
X78780000Y-116840000D03*
X81320000Y-116840000D03*
X83860000Y-116840000D03*
X86400000Y-116840000D03*
X88940000Y-116840000D03*
X91480000Y-116840000D03*
X94020000Y-116840000D03*
X96560000Y-116840000D03*
X99100000Y-116840000D03*
X101640000Y-116840000D03*
X104180000Y-116840000D03*
X106720000Y-116840000D03*
X109260000Y-116840000D03*
X111800000Y-116840000D03*
X114340000Y-116840000D03*
D14*
X75000000Y-108000000D03*
X72000000Y-102000000D03*
D15*
X116500000Y-99000000D03*
D16*
X116500000Y-101500000D03*
X116500000Y-104000000D03*
X116500000Y-106500000D03*
X116500000Y-109000000D03*
X116500000Y-111500000D03*
D14*
X69000000Y-108000000D03*
D17*
X110040000Y-109220000D03*
D18*
X103740000Y-111500000D03*
D17*
X110040000Y-113780000D03*
D14*
X75000000Y-102000000D03*
D19*
X105000000Y-101500000D03*
D20*
X95675000Y-101500000D03*
D14*
X72000000Y-108000000D03*
X66000000Y-102000000D03*
X69000000Y-102000000D03*
X66000000Y-108000000D03*
D21*
X79509900Y-103060700D03*
X80020900Y-105776900D03*
X97698200Y-104741700D03*
X68132000Y-109735300D03*
X107700000Y-109580000D03*
X97941000Y-98118000D03*
X71875000Y-109270000D03*
X90775000Y-99718000D03*
X109000000Y-110330000D03*
X62770000Y-102161000D03*
X93001000Y-97402000D03*
X103813000Y-96720000D03*
X73711500Y-109360400D03*
X109023400Y-111568800D03*
X115499400Y-95103300D03*
X70567300Y-100213300D03*
X106924400Y-107982900D03*
X70999800Y-97695000D03*
X68047100Y-105629300D03*
X67613500Y-112314200D03*
X66022200Y-109531200D03*
X101065100Y-107995400D03*
X99366700Y-105659900D03*
D22*
X79786100Y-102786100D02*
X79511500Y-103060700D01*
X80020900Y-105776900D02*
X96663000Y-105776900D01*
X70000000Y-96000000D02*
X73000000Y-96000000D01*
X73000000Y-96000000D02*
X79786100Y-102786100D01*
X67000000Y-99000000D02*
X70000000Y-96000000D01*
X66000000Y-102000000D02*
X67000000Y-101000000D01*
X67000000Y-101000000D02*
X67000000Y-99000000D01*
X96663000Y-105776900D02*
X97698200Y-104741700D01*
X79511500Y-103060700D02*
X79509900Y-103060700D01*
X105000000Y-101500000D02*
X99800000Y-106700000D01*
X69219300Y-109735300D02*
X68132000Y-109735300D01*
X99800000Y-106700000D02*
X70500000Y-106700000D01*
X116500000Y-101500000D02*
X105000000Y-101500000D01*
X70500000Y-108454600D02*
X69219300Y-109735300D01*
X70500000Y-106700000D02*
X70500000Y-108454600D01*
D23*
X107700000Y-109580000D02*
X109000000Y-110330000D01*
D22*
X75000000Y-108071900D02*
X75000000Y-108000000D01*
X73711500Y-109360400D02*
X75000000Y-108071900D01*
X110040000Y-112585400D02*
X110040000Y-113780000D01*
X69000000Y-101780600D02*
X69000000Y-102000000D01*
X117848300Y-106961900D02*
X117848300Y-97452200D01*
X117848300Y-97452200D02*
X115499400Y-95103300D01*
X114875400Y-107750000D02*
X117060200Y-107750000D01*
X110040000Y-112585400D02*
X114875400Y-107750000D01*
X109023400Y-111568800D02*
X110040000Y-112585400D01*
X117060200Y-107750000D02*
X117848300Y-106961900D01*
X70567300Y-100213300D02*
X69000000Y-101780600D01*
X106924400Y-107983000D02*
X106924400Y-107982900D01*
X108803000Y-107983000D02*
X106924400Y-107983000D01*
X110040000Y-109220000D02*
X108803000Y-107983000D01*
X67698300Y-105280500D02*
X67698300Y-100996500D01*
X67698300Y-100996500D02*
X70999800Y-97695000D01*
X68047100Y-105629300D02*
X67698300Y-105280500D01*
X68188300Y-111000000D02*
X66000000Y-111000000D01*
X73838500Y-111000000D02*
X68188300Y-111000000D01*
X67613500Y-111574800D02*
X67613500Y-112314200D01*
X77688500Y-107150000D02*
X73838500Y-111000000D01*
X115850000Y-107150000D02*
X77688500Y-107150000D01*
X66000000Y-111000000D02*
X69000000Y-108000000D01*
X116500000Y-106500000D02*
X115850000Y-107150000D01*
X68188300Y-111000000D02*
X67613500Y-111574800D01*
X108110000Y-117316000D02*
X108784000Y-117990000D01*
X66022200Y-108922200D02*
X66022200Y-109531200D01*
X66934300Y-113000000D02*
X100240000Y-113000000D01*
X65550000Y-108450000D02*
X65100000Y-108900000D01*
X108784000Y-117990000D02*
X112490000Y-117990000D01*
X65550000Y-108450000D02*
X66022200Y-108922200D01*
X113190000Y-112310000D02*
X116500000Y-109000000D01*
X113190000Y-117310000D02*
X113190000Y-112310000D01*
X112490000Y-117990000D02*
X112500000Y-118000000D01*
X100240000Y-114385000D02*
X100555000Y-114700000D01*
X66000000Y-108000000D02*
X65550000Y-108450000D01*
X100240000Y-113000000D02*
X100240000Y-114385000D01*
X108110000Y-115610000D02*
X108110000Y-117316000D01*
X65100000Y-108900000D02*
X65100000Y-111166000D01*
X100555000Y-114700000D02*
X106925000Y-114700000D01*
X112500000Y-118000000D02*
X113190000Y-117310000D01*
X65100000Y-111166000D02*
X66934300Y-113000000D01*
X106925000Y-114700000D02*
X107062000Y-114562000D01*
X107062000Y-114562000D02*
X108110000Y-115610000D01*
X77402300Y-104402300D02*
X89371100Y-104402300D01*
X89371100Y-104402300D02*
X97925100Y-95848300D01*
X75000000Y-102000000D02*
X77402300Y-104402300D01*
X97925100Y-95848300D02*
X113348300Y-95848300D01*
X113348300Y-95848300D02*
X116500000Y-99000000D01*
X72000000Y-102000000D02*
X74853900Y-104853900D01*
X99366600Y-105559200D02*
X99366600Y-105659900D01*
X74853900Y-104853900D02*
X93922800Y-104853900D01*
X103740000Y-110670300D02*
X103740000Y-111500000D01*
X95675000Y-101500000D02*
X95675000Y-103101700D01*
X93922800Y-104853900D02*
X95675000Y-103101700D01*
X101065100Y-107995400D02*
X103740000Y-110670300D01*
X99366600Y-105659900D02*
X99366700Y-105659900D01*
X95675000Y-103101700D02*
X96909100Y-103101700D01*
X96909100Y-103101700D02*
X99366600Y-105559200D01*
G04 #@! TA.AperFunction,Conductor*
G36*
X114396896Y-107520185D02*
G01*
X114442651Y-107572989D01*
X114452595Y-107642147D01*
X114423570Y-107705703D01*
X114417538Y-107712180D01*
X112260503Y-109869215D01*
X110127681Y-112002037D01*
X110066358Y-112035522D01*
X109996666Y-112030538D01*
X109952319Y-112002037D01*
X109610219Y-111659937D01*
X109576734Y-111598614D01*
X109573900Y-111572256D01*
X109573900Y-111496327D01*
X109573900Y-111496325D01*
X109536384Y-111356315D01*
X109530110Y-111345449D01*
X109463911Y-111230788D01*
X109463906Y-111230782D01*
X109361417Y-111128293D01*
X109361411Y-111128288D01*
X109235888Y-111055817D01*
X109235889Y-111055817D01*
X109224406Y-111052740D01*
X109095875Y-111018300D01*
X108950925Y-111018300D01*
X108822393Y-111052740D01*
X108810911Y-111055817D01*
X108685388Y-111128288D01*
X108685382Y-111128293D01*
X108582893Y-111230782D01*
X108582888Y-111230788D01*
X108510417Y-111356311D01*
X108505983Y-111372855D01*
X108472900Y-111496325D01*
X108472900Y-111641275D01*
X108510416Y-111781285D01*
X108510417Y-111781288D01*
X108582888Y-111906811D01*
X108582890Y-111906813D01*
X108582891Y-111906815D01*
X108685385Y-112009309D01*
X108685386Y-112009310D01*
X108685388Y-112009311D01*
X108810911Y-112081782D01*
X108810912Y-112081782D01*
X108810915Y-112081784D01*
X108950925Y-112119300D01*
X109026856Y-112119300D01*
X109093895Y-112138985D01*
X109114537Y-112155619D01*
X109653181Y-112694263D01*
X109686666Y-112755586D01*
X109689500Y-112781944D01*
X109689500Y-112805500D01*
X109669815Y-112872539D01*
X109617011Y-112918294D01*
X109565500Y-112929500D01*
X109142129Y-112929500D01*
X109142123Y-112929501D01*
X109082516Y-112935908D01*
X108947671Y-112986202D01*
X108947664Y-112986206D01*
X108832455Y-113072452D01*
X108832452Y-113072455D01*
X108746206Y-113187664D01*
X108746202Y-113187671D01*
X108695908Y-113322517D01*
X108690784Y-113370185D01*
X108689501Y-113382123D01*
X108689500Y-113382135D01*
X108689500Y-114177870D01*
X108689501Y-114177876D01*
X108695908Y-114237483D01*
X108746202Y-114372328D01*
X108746206Y-114372335D01*
X108832452Y-114487544D01*
X108832455Y-114487547D01*
X108947664Y-114573793D01*
X108947671Y-114573797D01*
X109082517Y-114624091D01*
X109082516Y-114624091D01*
X109089444Y-114624835D01*
X109142127Y-114630500D01*
X110937872Y-114630499D01*
X110997483Y-114624091D01*
X111132331Y-114573796D01*
X111247546Y-114487546D01*
X111333796Y-114372331D01*
X111384091Y-114237483D01*
X111390500Y-114177873D01*
X111390499Y-113382128D01*
X111384091Y-113322517D01*
X111377141Y-113303884D01*
X111333797Y-113187671D01*
X111333793Y-113187664D01*
X111247547Y-113072455D01*
X111247544Y-113072452D01*
X111132335Y-112986206D01*
X111132328Y-112986202D01*
X110997482Y-112935908D01*
X110997483Y-112935908D01*
X110937883Y-112929501D01*
X110937881Y-112929500D01*
X110937873Y-112929500D01*
X110937865Y-112929500D01*
X110514500Y-112929500D01*
X110447461Y-112909815D01*
X110401706Y-112857011D01*
X110390500Y-112805500D01*
X110390500Y-112781943D01*
X110410185Y-112714904D01*
X110426819Y-112694262D01*
X114984262Y-108136819D01*
X115045585Y-108103334D01*
X115071943Y-108100500D01*
X115424869Y-108100500D01*
X115491908Y-108120185D01*
X115537663Y-108172989D01*
X115547607Y-108242147D01*
X115525187Y-108297383D01*
X115501625Y-108329815D01*
X115433768Y-108423211D01*
X115355128Y-108577552D01*
X115301597Y-108742302D01*
X115274500Y-108913389D01*
X115274500Y-109086610D01*
X115297178Y-109229799D01*
X115301598Y-109257701D01*
X115347058Y-109397612D01*
X115355129Y-109422450D01*
X115390761Y-109492384D01*
X115403657Y-109561054D01*
X115377380Y-109625794D01*
X115367957Y-109636359D01*
X112909531Y-112094786D01*
X112909527Y-112094791D01*
X112863387Y-112174709D01*
X112863386Y-112174712D01*
X112839500Y-112263856D01*
X112839500Y-116023796D01*
X112819815Y-116090835D01*
X112767011Y-116136590D01*
X112697853Y-116146534D01*
X112634297Y-116117509D01*
X112627819Y-116111477D01*
X112516930Y-116000588D01*
X112516928Y-116000586D01*
X112376788Y-115898768D01*
X112222445Y-115820127D01*
X112057701Y-115766598D01*
X112057699Y-115766597D01*
X112057698Y-115766597D01*
X111926271Y-115745781D01*
X111886611Y-115739500D01*
X111713389Y-115739500D01*
X111673728Y-115745781D01*
X111542302Y-115766597D01*
X111377552Y-115820128D01*
X111223211Y-115898768D01*
X111143256Y-115956859D01*
X111083072Y-116000586D01*
X111083070Y-116000588D01*
X111083069Y-116000588D01*
X110960588Y-116123069D01*
X110960588Y-116123070D01*
X110960586Y-116123072D01*
X110950765Y-116136590D01*
X110858768Y-116263211D01*
X110780128Y-116417552D01*
X110726597Y-116582302D01*
X110699500Y-116753389D01*
X110699500Y-116926610D01*
X110726597Y-117097697D01*
X110780128Y-117262447D01*
X110858768Y-117416788D01*
X110877532Y-117442614D01*
X110901012Y-117508420D01*
X110885187Y-117576474D01*
X110835081Y-117625169D01*
X110777214Y-117639500D01*
X110282786Y-117639500D01*
X110215747Y-117619815D01*
X110169992Y-117567011D01*
X110160048Y-117497853D01*
X110182468Y-117442614D01*
X110201232Y-117416788D01*
X110279873Y-117262445D01*
X110333402Y-117097701D01*
X110360500Y-116926611D01*
X110360500Y-116753389D01*
X110333402Y-116582299D01*
X110279873Y-116417555D01*
X110201232Y-116263212D01*
X110099414Y-116123072D01*
X109976928Y-116000586D01*
X109836788Y-115898768D01*
X109682445Y-115820127D01*
X109517701Y-115766598D01*
X109517699Y-115766597D01*
X109517698Y-115766597D01*
X109386271Y-115745781D01*
X109346611Y-115739500D01*
X109173389Y-115739500D01*
X109133728Y-115745781D01*
X109002302Y-115766597D01*
X108837552Y-115820128D01*
X108683208Y-115898769D01*
X108657384Y-115917532D01*
X108591577Y-115941011D01*
X108523523Y-115925185D01*
X108474829Y-115875078D01*
X108460500Y-115817213D01*
X108460500Y-115563858D01*
X108460500Y-115563856D01*
X108436614Y-115474712D01*
X108390470Y-115394788D01*
X107348071Y-114352389D01*
X107346116Y-114350168D01*
X107309490Y-114313807D01*
X107309171Y-114313489D01*
X107277194Y-114281512D01*
X107276768Y-114281188D01*
X107276329Y-114280852D01*
X107276206Y-114280757D01*
X107261274Y-114272208D01*
X107252889Y-114267408D01*
X107204491Y-114217018D01*
X107190499Y-114159801D01*
X107190499Y-108802126D01*
X107184091Y-108742515D01*
X107184089Y-108742510D01*
X107136692Y-108615432D01*
X107131708Y-108545741D01*
X107165193Y-108484418D01*
X107190865Y-108464718D01*
X107262415Y-108423409D01*
X107316005Y-108369819D01*
X107377328Y-108336334D01*
X107403686Y-108333500D01*
X108606456Y-108333500D01*
X108673495Y-108353185D01*
X108694137Y-108369819D01*
X108758325Y-108434007D01*
X108791810Y-108495330D01*
X108786826Y-108565022D01*
X108769912Y-108595997D01*
X108746205Y-108627665D01*
X108746202Y-108627671D01*
X108695910Y-108762513D01*
X108695908Y-108762516D01*
X108690304Y-108814646D01*
X108689501Y-108822123D01*
X108689500Y-108822135D01*
X108689500Y-109617870D01*
X108689501Y-109617876D01*
X108695908Y-109677483D01*
X108746202Y-109812328D01*
X108746206Y-109812335D01*
X108832452Y-109927544D01*
X108832455Y-109927547D01*
X108947664Y-110013793D01*
X108947671Y-110013797D01*
X109082517Y-110064091D01*
X109082516Y-110064091D01*
X109089444Y-110064835D01*
X109142127Y-110070500D01*
X110937872Y-110070499D01*
X110997483Y-110064091D01*
X111132331Y-110013796D01*
X111247546Y-109927546D01*
X111333796Y-109812331D01*
X111384091Y-109677483D01*
X111390500Y-109617873D01*
X111390499Y-108822128D01*
X111384091Y-108762517D01*
X111376631Y-108742517D01*
X111333797Y-108627671D01*
X111333793Y-108627664D01*
X111247547Y-108512455D01*
X111247544Y-108512452D01*
X111132335Y-108426206D01*
X111132328Y-108426202D01*
X110997482Y-108375908D01*
X110997483Y-108375908D01*
X110937883Y-108369501D01*
X110937881Y-108369500D01*
X110937873Y-108369500D01*
X110937865Y-108369500D01*
X109736544Y-108369500D01*
X109669505Y-108349815D01*
X109648863Y-108333181D01*
X109027863Y-107712181D01*
X108994378Y-107650858D01*
X108999362Y-107581166D01*
X109041234Y-107525233D01*
X109106698Y-107500816D01*
X109115544Y-107500500D01*
X114329857Y-107500500D01*
X114396896Y-107520185D01*
G37*
G04 #@! TD.AperFunction*
G04 #@! TA.AperFunction,Conductor*
G36*
X73967824Y-107070185D02*
G01*
X74013579Y-107122989D01*
X74023523Y-107192147D01*
X74001103Y-107247386D01*
X73930476Y-107344594D01*
X73841117Y-107519970D01*
X73780290Y-107707173D01*
X73749500Y-107901577D01*
X73749500Y-108098422D01*
X73780290Y-108292826D01*
X73841117Y-108480029D01*
X73886313Y-108568730D01*
X73899209Y-108637400D01*
X73872932Y-108702140D01*
X73863511Y-108712705D01*
X73802638Y-108773580D01*
X73741315Y-108807066D01*
X73714955Y-108809900D01*
X73639025Y-108809900D01*
X73510493Y-108844340D01*
X73499011Y-108847417D01*
X73373488Y-108919888D01*
X73373482Y-108919893D01*
X73270993Y-109022382D01*
X73270988Y-109022388D01*
X73198517Y-109147911D01*
X73198516Y-109147915D01*
X73161000Y-109287925D01*
X73161000Y-109432875D01*
X73198516Y-109572885D01*
X73198517Y-109572888D01*
X73270988Y-109698411D01*
X73270990Y-109698413D01*
X73270991Y-109698415D01*
X73373485Y-109800909D01*
X73373486Y-109800910D01*
X73373488Y-109800911D01*
X73499011Y-109873382D01*
X73499012Y-109873382D01*
X73499015Y-109873384D01*
X73639025Y-109910900D01*
X73639028Y-109910900D01*
X73783972Y-109910900D01*
X73783975Y-109910900D01*
X73923985Y-109873384D01*
X74049515Y-109800909D01*
X74152009Y-109698415D01*
X74224484Y-109572885D01*
X74262000Y-109432875D01*
X74262000Y-109356943D01*
X74281685Y-109289904D01*
X74298310Y-109269271D01*
X74382707Y-109184874D01*
X74444025Y-109151392D01*
X74513717Y-109156376D01*
X74517852Y-109158003D01*
X74519955Y-109158873D01*
X74519975Y-109158884D01*
X74668940Y-109207286D01*
X74707173Y-109219709D01*
X74825871Y-109238509D01*
X74889006Y-109268438D01*
X74925937Y-109327750D01*
X74924939Y-109397612D01*
X74894154Y-109448663D01*
X73729637Y-110613181D01*
X73668314Y-110646666D01*
X73641956Y-110649500D01*
X67145544Y-110649500D01*
X67078505Y-110629815D01*
X67032750Y-110577011D01*
X67022806Y-110507853D01*
X67051831Y-110444297D01*
X67057863Y-110437819D01*
X67478716Y-110016965D01*
X67540039Y-109983480D01*
X67609730Y-109988464D01*
X67665664Y-110030335D01*
X67673780Y-110042640D01*
X67691491Y-110073315D01*
X67793985Y-110175809D01*
X67793986Y-110175810D01*
X67793988Y-110175811D01*
X67919511Y-110248282D01*
X67919512Y-110248282D01*
X67919515Y-110248284D01*
X68059525Y-110285800D01*
X68059528Y-110285800D01*
X68204472Y-110285800D01*
X68204475Y-110285800D01*
X68344485Y-110248284D01*
X68470015Y-110175809D01*
X68523705Y-110122119D01*
X68585028Y-110088634D01*
X68611386Y-110085800D01*
X69265442Y-110085800D01*
X69265444Y-110085800D01*
X69354588Y-110061914D01*
X69385297Y-110044184D01*
X69434512Y-110015770D01*
X70780469Y-108669812D01*
X70826614Y-108589888D01*
X70827847Y-108585288D01*
X70850500Y-108500744D01*
X70850500Y-107174500D01*
X70870185Y-107107461D01*
X70922989Y-107061706D01*
X70974500Y-107050500D01*
X73900785Y-107050500D01*
X73967824Y-107070185D01*
G37*
G04 #@! TD.AperFunction*
G04 #@! TA.AperFunction,Conductor*
G36*
X115309520Y-101870185D02*
G01*
X115352966Y-101918205D01*
X115381650Y-101974500D01*
X115433768Y-102076788D01*
X115535586Y-102216928D01*
X115658072Y-102339414D01*
X115798212Y-102441232D01*
X115952555Y-102519873D01*
X116117299Y-102573402D01*
X116288389Y-102600500D01*
X116288390Y-102600500D01*
X116711610Y-102600500D01*
X116711611Y-102600500D01*
X116882701Y-102573402D01*
X117047445Y-102519873D01*
X117201788Y-102441232D01*
X117300915Y-102369211D01*
X117366720Y-102345732D01*
X117434774Y-102361557D01*
X117483469Y-102411663D01*
X117497800Y-102469530D01*
X117497800Y-105530469D01*
X117478115Y-105597508D01*
X117425311Y-105643263D01*
X117356153Y-105653207D01*
X117300915Y-105630787D01*
X117201791Y-105558770D01*
X117201790Y-105558769D01*
X117201788Y-105558768D01*
X117047445Y-105480127D01*
X116882701Y-105426598D01*
X116882699Y-105426597D01*
X116882698Y-105426597D01*
X116736588Y-105403456D01*
X116711611Y-105399500D01*
X116288389Y-105399500D01*
X116263412Y-105403456D01*
X116117302Y-105426597D01*
X115952552Y-105480128D01*
X115798211Y-105558768D01*
X115718256Y-105616859D01*
X115658072Y-105660586D01*
X115658070Y-105660588D01*
X115658069Y-105660588D01*
X115535588Y-105783069D01*
X115535588Y-105783070D01*
X115535586Y-105783072D01*
X115532864Y-105786819D01*
X115433768Y-105923211D01*
X115355128Y-106077552D01*
X115301597Y-106242302D01*
X115274500Y-106413389D01*
X115274500Y-106586611D01*
X115274499Y-106586611D01*
X115285506Y-106656103D01*
X115276551Y-106725396D01*
X115231555Y-106778848D01*
X115164803Y-106799487D01*
X115163033Y-106799500D01*
X100495544Y-106799500D01*
X100428505Y-106779815D01*
X100382750Y-106727011D01*
X100372806Y-106657853D01*
X100401831Y-106594297D01*
X100407863Y-106587819D01*
X101208863Y-105786819D01*
X101270186Y-105753334D01*
X101296544Y-105750500D01*
X109224676Y-105750500D01*
X109224677Y-105750499D01*
X109297740Y-105735966D01*
X109380601Y-105680601D01*
X109435966Y-105597740D01*
X109450500Y-105524674D01*
X109450500Y-101974500D01*
X109470185Y-101907461D01*
X109522989Y-101861706D01*
X109574500Y-101850500D01*
X115242481Y-101850500D01*
X115309520Y-101870185D01*
G37*
G04 #@! TD.AperFunction*
G04 #@! TA.AperFunction,Conductor*
G36*
X113218795Y-96218485D02*
G01*
X113239437Y-96235119D01*
X115240505Y-98236187D01*
X115273990Y-98297510D01*
X115276113Y-98337117D01*
X115274500Y-98352127D01*
X115274500Y-98352134D01*
X115274500Y-98352135D01*
X115274500Y-99647870D01*
X115274501Y-99647876D01*
X115280908Y-99707483D01*
X115331202Y-99842328D01*
X115331206Y-99842335D01*
X115417452Y-99957544D01*
X115417455Y-99957547D01*
X115532664Y-100043793D01*
X115532671Y-100043797D01*
X115667517Y-100094091D01*
X115667516Y-100094091D01*
X115674444Y-100094835D01*
X115727127Y-100100500D01*
X117272872Y-100100499D01*
X117332483Y-100094091D01*
X117332485Y-100094090D01*
X117332487Y-100094090D01*
X117340031Y-100092308D01*
X117340461Y-100094128D01*
X117400156Y-100089858D01*
X117461480Y-100123342D01*
X117494966Y-100184665D01*
X117497800Y-100211025D01*
X117497800Y-100530469D01*
X117478115Y-100597508D01*
X117425311Y-100643263D01*
X117356153Y-100653207D01*
X117300915Y-100630787D01*
X117201791Y-100558770D01*
X117201790Y-100558769D01*
X117201788Y-100558768D01*
X117047445Y-100480127D01*
X116882701Y-100426598D01*
X116882699Y-100426597D01*
X116882698Y-100426597D01*
X116751271Y-100405781D01*
X116711611Y-100399500D01*
X116288389Y-100399500D01*
X116248728Y-100405781D01*
X116117302Y-100426597D01*
X115952552Y-100480128D01*
X115798211Y-100558768D01*
X115757340Y-100588463D01*
X115658072Y-100660586D01*
X115658070Y-100660588D01*
X115658069Y-100660588D01*
X115535588Y-100783069D01*
X115535588Y-100783070D01*
X115535586Y-100783072D01*
X115502201Y-100829023D01*
X115433768Y-100923211D01*
X115352966Y-101081795D01*
X115304991Y-101132591D01*
X115242481Y-101149500D01*
X109574500Y-101149500D01*
X109507461Y-101129815D01*
X109461706Y-101077011D01*
X109450500Y-101025500D01*
X109450500Y-97475323D01*
X109450499Y-97475321D01*
X109435967Y-97402264D01*
X109435966Y-97402260D01*
X109380601Y-97319399D01*
X109297740Y-97264034D01*
X109297739Y-97264033D01*
X109297735Y-97264032D01*
X109224677Y-97249500D01*
X109224674Y-97249500D01*
X100775326Y-97249500D01*
X100775323Y-97249500D01*
X100702264Y-97264032D01*
X100702260Y-97264033D01*
X100619399Y-97319399D01*
X100564033Y-97402260D01*
X100564032Y-97402264D01*
X100549500Y-97475321D01*
X100549500Y-105403456D01*
X100529815Y-105470495D01*
X100513181Y-105491137D01*
X100114584Y-105889733D01*
X100053261Y-105923218D01*
X99983569Y-105918234D01*
X99927636Y-105876362D01*
X99903219Y-105810898D01*
X99907128Y-105769962D01*
X99917200Y-105732375D01*
X99917200Y-105587425D01*
X99879684Y-105447415D01*
X99874757Y-105438882D01*
X99807211Y-105321888D01*
X99807206Y-105321882D01*
X99704717Y-105219393D01*
X99704711Y-105219388D01*
X99579188Y-105146917D01*
X99579189Y-105146917D01*
X99464989Y-105116317D01*
X99439175Y-105109400D01*
X99439174Y-105109400D01*
X99434804Y-105108229D01*
X99379217Y-105076135D01*
X97124311Y-102821229D01*
X97062499Y-102785542D01*
X97014284Y-102734975D01*
X97000500Y-102678155D01*
X97000500Y-100175323D01*
X97000499Y-100175321D01*
X96985967Y-100102264D01*
X96985966Y-100102260D01*
X96977679Y-100089858D01*
X96930601Y-100019399D01*
X96847740Y-99964034D01*
X96847739Y-99964033D01*
X96847735Y-99964032D01*
X96774677Y-99949500D01*
X96774674Y-99949500D01*
X94618944Y-99949500D01*
X94551905Y-99929815D01*
X94506150Y-99877011D01*
X94496206Y-99807853D01*
X94525231Y-99744297D01*
X94531263Y-99737819D01*
X98033963Y-96235119D01*
X98095286Y-96201634D01*
X98121644Y-96198800D01*
X113151756Y-96198800D01*
X113218795Y-96218485D01*
G37*
G04 #@! TD.AperFunction*
G04 #@! TA.AperFunction,Conductor*
G36*
X56644182Y-88520185D02*
G01*
X56689937Y-88572989D01*
X56699881Y-88642147D01*
X56677461Y-88697385D01*
X56631132Y-88761151D01*
X56516760Y-88985616D01*
X56438910Y-89225214D01*
X56399500Y-89474038D01*
X56399500Y-89725961D01*
X56438910Y-89974785D01*
X56516760Y-90214383D01*
X56631132Y-90438848D01*
X56779201Y-90642649D01*
X56779205Y-90642654D01*
X56957345Y-90820794D01*
X56957350Y-90820798D01*
X57135117Y-90949952D01*
X57161155Y-90968870D01*
X57304184Y-91041747D01*
X57385616Y-91083239D01*
X57385618Y-91083239D01*
X57385621Y-91083241D01*
X57625215Y-91161090D01*
X57874038Y-91200500D01*
X57874039Y-91200500D01*
X58125961Y-91200500D01*
X58125962Y-91200500D01*
X58374785Y-91161090D01*
X58614379Y-91083241D01*
X58838845Y-90968870D01*
X59042656Y-90820793D01*
X59220793Y-90642656D01*
X59368870Y-90438845D01*
X59483241Y-90214379D01*
X59561090Y-89974785D01*
X59600500Y-89725962D01*
X59600500Y-89474038D01*
X59561090Y-89225215D01*
X59483241Y-88985621D01*
X59483239Y-88985618D01*
X59483239Y-88985616D01*
X59441747Y-88904184D01*
X59368870Y-88761155D01*
X59361602Y-88751152D01*
X59322539Y-88697385D01*
X59299059Y-88631579D01*
X59314884Y-88563525D01*
X59364990Y-88514830D01*
X59422857Y-88500500D01*
X114577143Y-88500500D01*
X114644182Y-88520185D01*
X114689937Y-88572989D01*
X114699881Y-88642147D01*
X114677461Y-88697385D01*
X114631132Y-88761151D01*
X114516760Y-88985616D01*
X114438910Y-89225214D01*
X114399500Y-89474038D01*
X114399500Y-89725961D01*
X114438910Y-89974785D01*
X114516760Y-90214383D01*
X114631132Y-90438848D01*
X114779201Y-90642649D01*
X114779205Y-90642654D01*
X114957345Y-90820794D01*
X114957350Y-90820798D01*
X115135117Y-90949952D01*
X115161155Y-90968870D01*
X115304184Y-91041747D01*
X115385616Y-91083239D01*
X115385618Y-91083239D01*
X115385621Y-91083241D01*
X115625215Y-91161090D01*
X115874038Y-91200500D01*
X115874039Y-91200500D01*
X116125961Y-91200500D01*
X116125962Y-91200500D01*
X116374785Y-91161090D01*
X116614379Y-91083241D01*
X116838845Y-90968870D01*
X117042656Y-90820793D01*
X117220793Y-90642656D01*
X117368870Y-90438845D01*
X117483241Y-90214379D01*
X117561090Y-89974785D01*
X117600500Y-89725962D01*
X117600500Y-89474038D01*
X117561090Y-89225215D01*
X117483241Y-88985621D01*
X117483239Y-88985618D01*
X117483239Y-88985616D01*
X117441747Y-88904184D01*
X117368870Y-88761155D01*
X117361602Y-88751152D01*
X117322539Y-88697385D01*
X117299059Y-88631579D01*
X117314884Y-88563525D01*
X117364990Y-88514830D01*
X117422857Y-88500500D01*
X118375500Y-88500500D01*
X118442539Y-88520185D01*
X118488294Y-88572989D01*
X118499500Y-88624500D01*
X118499500Y-123375500D01*
X118479815Y-123442539D01*
X118427011Y-123488294D01*
X118375500Y-123499500D01*
X117422857Y-123499500D01*
X117355818Y-123479815D01*
X117310063Y-123427011D01*
X117300119Y-123357853D01*
X117322539Y-123302615D01*
X117340183Y-123278329D01*
X117368870Y-123238845D01*
X117483241Y-123014379D01*
X117561090Y-122774785D01*
X117600500Y-122525962D01*
X117600500Y-122274038D01*
X117561090Y-122025215D01*
X117483241Y-121785621D01*
X117483239Y-121785618D01*
X117483239Y-121785616D01*
X117441747Y-121704184D01*
X117368870Y-121561155D01*
X117349952Y-121535117D01*
X117220798Y-121357350D01*
X117220794Y-121357345D01*
X117042654Y-121179205D01*
X117042649Y-121179201D01*
X116838848Y-121031132D01*
X116838847Y-121031131D01*
X116838845Y-121031130D01*
X116768747Y-120995413D01*
X116614383Y-120916760D01*
X116374785Y-120838910D01*
X116125962Y-120799500D01*
X115874038Y-120799500D01*
X115749626Y-120819205D01*
X115625214Y-120838910D01*
X115385616Y-120916760D01*
X115161151Y-121031132D01*
X114957350Y-121179201D01*
X114957345Y-121179205D01*
X114779205Y-121357345D01*
X114779201Y-121357350D01*
X114631132Y-121561151D01*
X114516760Y-121785616D01*
X114438910Y-122025214D01*
X114399500Y-122274038D01*
X114399500Y-122525961D01*
X114438910Y-122774785D01*
X114516760Y-123014383D01*
X114631132Y-123238848D01*
X114677461Y-123302615D01*
X114700941Y-123368421D01*
X114685116Y-123436475D01*
X114635010Y-123485170D01*
X114577143Y-123499500D01*
X59422857Y-123499500D01*
X59355818Y-123479815D01*
X59310063Y-123427011D01*
X59300119Y-123357853D01*
X59322539Y-123302615D01*
X59340183Y-123278329D01*
X59368870Y-123238845D01*
X59483241Y-123014379D01*
X59561090Y-122774785D01*
X59600500Y-122525962D01*
X59600500Y-122274038D01*
X59561090Y-122025215D01*
X59483241Y-121785621D01*
X59483239Y-121785618D01*
X59483239Y-121785616D01*
X59441747Y-121704184D01*
X59368870Y-121561155D01*
X59349952Y-121535117D01*
X59220798Y-121357350D01*
X59220794Y-121357345D01*
X59042654Y-121179205D01*
X59042649Y-121179201D01*
X58838848Y-121031132D01*
X58838847Y-121031131D01*
X58838845Y-121031130D01*
X58768747Y-120995413D01*
X58614383Y-120916760D01*
X58374785Y-120838910D01*
X58125962Y-120799500D01*
X57874038Y-120799500D01*
X57749626Y-120819205D01*
X57625214Y-120838910D01*
X57385616Y-120916760D01*
X57161151Y-121031132D01*
X56957350Y-121179201D01*
X56957345Y-121179205D01*
X56779205Y-121357345D01*
X56779201Y-121357350D01*
X56631132Y-121561151D01*
X56516760Y-121785616D01*
X56438910Y-122025214D01*
X56399500Y-122274038D01*
X56399500Y-122525961D01*
X56438910Y-122774785D01*
X56516760Y-123014383D01*
X56631132Y-123238848D01*
X56677461Y-123302615D01*
X56700941Y-123368421D01*
X56685116Y-123436475D01*
X56635010Y-123485170D01*
X56577143Y-123499500D01*
X55624500Y-123499500D01*
X55557461Y-123479815D01*
X55511706Y-123427011D01*
X55500500Y-123375500D01*
X55500500Y-115965321D01*
X59899500Y-115965321D01*
X59899500Y-117714678D01*
X59914032Y-117787735D01*
X59914033Y-117787739D01*
X59914034Y-117787740D01*
X59969399Y-117870601D01*
X60052260Y-117925966D01*
X60052264Y-117925967D01*
X60125321Y-117940499D01*
X60125324Y-117940500D01*
X60125326Y-117940500D01*
X61874676Y-117940500D01*
X61874677Y-117940499D01*
X61947740Y-117925966D01*
X62030601Y-117870601D01*
X62085966Y-117787740D01*
X62100500Y-117714674D01*
X62100500Y-116753389D01*
X62439500Y-116753389D01*
X62439500Y-116926611D01*
X62466598Y-117097701D01*
X62520127Y-117262445D01*
X62598768Y-117416788D01*
X62700586Y-117556928D01*
X62823072Y-117679414D01*
X62963212Y-117781232D01*
X63117555Y-117859873D01*
X63282299Y-117913402D01*
X63453389Y-117940500D01*
X63453390Y-117940500D01*
X63626610Y-117940500D01*
X63626611Y-117940500D01*
X63797701Y-117913402D01*
X63962445Y-117859873D01*
X64116788Y-117781232D01*
X64256928Y-117679414D01*
X64379414Y-117556928D01*
X64481232Y-117416788D01*
X64559873Y-117262445D01*
X64613402Y-117097701D01*
X64640500Y-116926611D01*
X64640500Y-116753389D01*
X64979500Y-116753389D01*
X64979500Y-116926611D01*
X65006598Y-117097701D01*
X65060127Y-117262445D01*
X65138768Y-117416788D01*
X65240586Y-117556928D01*
X65363072Y-117679414D01*
X65503212Y-117781232D01*
X65657555Y-117859873D01*
X65822299Y-117913402D01*
X65993389Y-117940500D01*
X65993390Y-117940500D01*
X66166610Y-117940500D01*
X66166611Y-117940500D01*
X66337701Y-117913402D01*
X66502445Y-117859873D01*
X66656788Y-117781232D01*
X66796928Y-117679414D01*
X66919414Y-117556928D01*
X67021232Y-117416788D01*
X67099873Y-117262445D01*
X67153402Y-117097701D01*
X67180500Y-116926611D01*
X67180500Y-116753389D01*
X67519500Y-116753389D01*
X67519500Y-116926611D01*
X67546598Y-117097701D01*
X67600127Y-117262445D01*
X67678768Y-117416788D01*
X67780586Y-117556928D01*
X67903072Y-117679414D01*
X68043212Y-117781232D01*
X68197555Y-117859873D01*
X68362299Y-117913402D01*
X68533389Y-117940500D01*
X68533390Y-117940500D01*
X68706610Y-117940500D01*
X68706611Y-117940500D01*
X68877701Y-117913402D01*
X69042445Y-117859873D01*
X69196788Y-117781232D01*
X69336928Y-117679414D01*
X69459414Y-117556928D01*
X69561232Y-117416788D01*
X69639873Y-117262445D01*
X69693402Y-117097701D01*
X69720500Y-116926611D01*
X69720500Y-116753389D01*
X70059500Y-116753389D01*
X70059500Y-116926611D01*
X70086598Y-117097701D01*
X70140127Y-117262445D01*
X70218768Y-117416788D01*
X70320586Y-117556928D01*
X70443072Y-117679414D01*
X70583212Y-117781232D01*
X70737555Y-117859873D01*
X70902299Y-117913402D01*
X71073389Y-117940500D01*
X71073390Y-117940500D01*
X71246610Y-117940500D01*
X71246611Y-117940500D01*
X71417701Y-117913402D01*
X71582445Y-117859873D01*
X71736788Y-117781232D01*
X71876928Y-117679414D01*
X71999414Y-117556928D01*
X72101232Y-117416788D01*
X72179873Y-117262445D01*
X72233402Y-117097701D01*
X72260500Y-116926611D01*
X72260500Y-116753389D01*
X72599500Y-116753389D01*
X72599500Y-116926611D01*
X72626598Y-117097701D01*
X72680127Y-117262445D01*
X72758768Y-117416788D01*
X72860586Y-117556928D01*
X72983072Y-117679414D01*
X73123212Y-117781232D01*
X73277555Y-117859873D01*
X73442299Y-117913402D01*
X73613389Y-117940500D01*
X73613390Y-117940500D01*
X73786610Y-117940500D01*
X73786611Y-117940500D01*
X73957701Y-117913402D01*
X74122445Y-117859873D01*
X74276788Y-117781232D01*
X74416928Y-117679414D01*
X74539414Y-117556928D01*
X74641232Y-117416788D01*
X74719873Y-117262445D01*
X74773402Y-117097701D01*
X74800500Y-116926611D01*
X74800500Y-116753389D01*
X75139500Y-116753389D01*
X75139500Y-116926611D01*
X75166598Y-117097701D01*
X75220127Y-117262445D01*
X75298768Y-117416788D01*
X75400586Y-117556928D01*
X75523072Y-117679414D01*
X75663212Y-117781232D01*
X75817555Y-117859873D01*
X75982299Y-117913402D01*
X76153389Y-117940500D01*
X76153390Y-117940500D01*
X76326610Y-117940500D01*
X76326611Y-117940500D01*
X76497701Y-117913402D01*
X76662445Y-117859873D01*
X76816788Y-117781232D01*
X76956928Y-117679414D01*
X77079414Y-117556928D01*
X77181232Y-117416788D01*
X77259873Y-117262445D01*
X77313402Y-117097701D01*
X77340500Y-116926611D01*
X77340500Y-116753389D01*
X77679500Y-116753389D01*
X77679500Y-116926611D01*
X77706598Y-117097701D01*
X77760127Y-117262445D01*
X77838768Y-117416788D01*
X77940586Y-117556928D01*
X78063072Y-117679414D01*
X78203212Y-117781232D01*
X78357555Y-117859873D01*
X78522299Y-117913402D01*
X78693389Y-117940500D01*
X78693390Y-117940500D01*
X78866610Y-117940500D01*
X78866611Y-117940500D01*
X79037701Y-117913402D01*
X79202445Y-117859873D01*
X79356788Y-117781232D01*
X79496928Y-117679414D01*
X79619414Y-117556928D01*
X79721232Y-117416788D01*
X79799873Y-117262445D01*
X79853402Y-117097701D01*
X79880500Y-116926611D01*
X79880500Y-116753389D01*
X80219500Y-116753389D01*
X80219500Y-116926611D01*
X80246598Y-117097701D01*
X80300127Y-117262445D01*
X80378768Y-117416788D01*
X80480586Y-117556928D01*
X80603072Y-117679414D01*
X80743212Y-117781232D01*
X80897555Y-117859873D01*
X81062299Y-117913402D01*
X81233389Y-117940500D01*
X81233390Y-117940500D01*
X81406610Y-117940500D01*
X81406611Y-117940500D01*
X81577701Y-117913402D01*
X81742445Y-117859873D01*
X81896788Y-117781232D01*
X82036928Y-117679414D01*
X82159414Y-117556928D01*
X82261232Y-117416788D01*
X82339873Y-117262445D01*
X82393402Y-117097701D01*
X82420500Y-116926611D01*
X82420500Y-116753389D01*
X82759500Y-116753389D01*
X82759500Y-116926611D01*
X82786598Y-117097701D01*
X82840127Y-117262445D01*
X82918768Y-117416788D01*
X83020586Y-117556928D01*
X83143072Y-117679414D01*
X83283212Y-117781232D01*
X83437555Y-117859873D01*
X83602299Y-117913402D01*
X83773389Y-117940500D01*
X83773390Y-117940500D01*
X83946610Y-117940500D01*
X83946611Y-117940500D01*
X84117701Y-117913402D01*
X84282445Y-117859873D01*
X84436788Y-117781232D01*
X84576928Y-117679414D01*
X84699414Y-117556928D01*
X84801232Y-117416788D01*
X84879873Y-117262445D01*
X84933402Y-117097701D01*
X84960500Y-116926611D01*
X84960500Y-116753389D01*
X85299500Y-116753389D01*
X85299500Y-116926611D01*
X85326598Y-117097701D01*
X85380127Y-117262445D01*
X85458768Y-117416788D01*
X85560586Y-117556928D01*
X85683072Y-117679414D01*
X85823212Y-117781232D01*
X85977555Y-117859873D01*
X86142299Y-117913402D01*
X86313389Y-117940500D01*
X86313390Y-117940500D01*
X86486610Y-117940500D01*
X86486611Y-117940500D01*
X86657701Y-117913402D01*
X86822445Y-117859873D01*
X86976788Y-117781232D01*
X87116928Y-117679414D01*
X87239414Y-117556928D01*
X87341232Y-117416788D01*
X87419873Y-117262445D01*
X87473402Y-117097701D01*
X87500500Y-116926611D01*
X87500500Y-116753389D01*
X87839500Y-116753389D01*
X87839500Y-116926611D01*
X87866598Y-117097701D01*
X87920127Y-117262445D01*
X87998768Y-117416788D01*
X88100586Y-117556928D01*
X88223072Y-117679414D01*
X88363212Y-117781232D01*
X88517555Y-117859873D01*
X88682299Y-117913402D01*
X88853389Y-117940500D01*
X88853390Y-117940500D01*
X89026610Y-117940500D01*
X89026611Y-117940500D01*
X89197701Y-117913402D01*
X89362445Y-117859873D01*
X89516788Y-117781232D01*
X89656928Y-117679414D01*
X89779414Y-117556928D01*
X89881232Y-117416788D01*
X89959873Y-117262445D01*
X90013402Y-117097701D01*
X90040500Y-116926611D01*
X90040500Y-116753389D01*
X90379500Y-116753389D01*
X90379500Y-116926611D01*
X90406598Y-117097701D01*
X90460127Y-117262445D01*
X90538768Y-117416788D01*
X90640586Y-117556928D01*
X90763072Y-117679414D01*
X90903212Y-117781232D01*
X91057555Y-117859873D01*
X91222299Y-117913402D01*
X91393389Y-117940500D01*
X91393390Y-117940500D01*
X91566610Y-117940500D01*
X91566611Y-117940500D01*
X91737701Y-117913402D01*
X91902445Y-117859873D01*
X92056788Y-117781232D01*
X92196928Y-117679414D01*
X92319414Y-117556928D01*
X92421232Y-117416788D01*
X92499873Y-117262445D01*
X92553402Y-117097701D01*
X92580500Y-116926611D01*
X92580500Y-116753389D01*
X92919500Y-116753389D01*
X92919500Y-116926611D01*
X92946598Y-117097701D01*
X93000127Y-117262445D01*
X93078768Y-117416788D01*
X93180586Y-117556928D01*
X93303072Y-117679414D01*
X93443212Y-117781232D01*
X93597555Y-117859873D01*
X93762299Y-117913402D01*
X93933389Y-117940500D01*
X93933390Y-117940500D01*
X94106610Y-117940500D01*
X94106611Y-117940500D01*
X94277701Y-117913402D01*
X94442445Y-117859873D01*
X94596788Y-117781232D01*
X94736928Y-117679414D01*
X94859414Y-117556928D01*
X94961232Y-117416788D01*
X95039873Y-117262445D01*
X95093402Y-117097701D01*
X95120500Y-116926611D01*
X95120500Y-116753389D01*
X95459500Y-116753389D01*
X95459500Y-116926611D01*
X95486598Y-117097701D01*
X95540127Y-117262445D01*
X95618768Y-117416788D01*
X95720586Y-117556928D01*
X95843072Y-117679414D01*
X95983212Y-117781232D01*
X96137555Y-117859873D01*
X96302299Y-117913402D01*
X96473389Y-117940500D01*
X96473390Y-117940500D01*
X96646610Y-117940500D01*
X96646611Y-117940500D01*
X96817701Y-117913402D01*
X96982445Y-117859873D01*
X97136788Y-117781232D01*
X97276928Y-117679414D01*
X97399414Y-117556928D01*
X97501232Y-117416788D01*
X97579873Y-117262445D01*
X97633402Y-117097701D01*
X97660500Y-116926611D01*
X97660500Y-116753389D01*
X97999500Y-116753389D01*
X97999500Y-116926611D01*
X98026598Y-117097701D01*
X98080127Y-117262445D01*
X98158768Y-117416788D01*
X98260586Y-117556928D01*
X98383072Y-117679414D01*
X98523212Y-117781232D01*
X98677555Y-117859873D01*
X98842299Y-117913402D01*
X99013389Y-117940500D01*
X99013390Y-117940500D01*
X99186610Y-117940500D01*
X99186611Y-117940500D01*
X99357701Y-117913402D01*
X99522445Y-117859873D01*
X99676788Y-117781232D01*
X99816928Y-117679414D01*
X99939414Y-117556928D01*
X100041232Y-117416788D01*
X100119873Y-117262445D01*
X100173402Y-117097701D01*
X100200500Y-116926611D01*
X100200500Y-116753389D01*
X100539500Y-116753389D01*
X100539500Y-116926611D01*
X100566598Y-117097701D01*
X100620127Y-117262445D01*
X100698768Y-117416788D01*
X100800586Y-117556928D01*
X100923072Y-117679414D01*
X101063212Y-117781232D01*
X101217555Y-117859873D01*
X101382299Y-117913402D01*
X101553389Y-117940500D01*
X101553390Y-117940500D01*
X101726610Y-117940500D01*
X101726611Y-117940500D01*
X101897701Y-117913402D01*
X102062445Y-117859873D01*
X102216788Y-117781232D01*
X102356928Y-117679414D01*
X102479414Y-117556928D01*
X102581232Y-117416788D01*
X102659873Y-117262445D01*
X102713402Y-117097701D01*
X102740500Y-116926611D01*
X102740500Y-116753389D01*
X103079500Y-116753389D01*
X103079500Y-116926611D01*
X103106598Y-117097701D01*
X103160127Y-117262445D01*
X103238768Y-117416788D01*
X103340586Y-117556928D01*
X103463072Y-117679414D01*
X103603212Y-117781232D01*
X103757555Y-117859873D01*
X103922299Y-117913402D01*
X104093389Y-117940500D01*
X104093390Y-117940500D01*
X104266610Y-117940500D01*
X104266611Y-117940500D01*
X104437701Y-117913402D01*
X104602445Y-117859873D01*
X104756788Y-117781232D01*
X104896928Y-117679414D01*
X105019414Y-117556928D01*
X105121232Y-117416788D01*
X105199873Y-117262445D01*
X105253402Y-117097701D01*
X105280500Y-116926611D01*
X105280500Y-116753389D01*
X105253402Y-116582299D01*
X105199873Y-116417555D01*
X105121232Y-116263212D01*
X105019414Y-116123072D01*
X104896928Y-116000586D01*
X104756788Y-115898768D01*
X104602445Y-115820127D01*
X104437701Y-115766598D01*
X104437699Y-115766597D01*
X104437698Y-115766597D01*
X104306271Y-115745781D01*
X104266611Y-115739500D01*
X104093389Y-115739500D01*
X104053728Y-115745781D01*
X103922302Y-115766597D01*
X103757552Y-115820128D01*
X103603211Y-115898768D01*
X103523256Y-115956859D01*
X103463072Y-116000586D01*
X103463070Y-116000588D01*
X103463069Y-116000588D01*
X103340588Y-116123069D01*
X103340588Y-116123070D01*
X103340586Y-116123072D01*
X103330765Y-116136590D01*
X103238768Y-116263211D01*
X103160128Y-116417552D01*
X103106597Y-116582302D01*
X103079500Y-116753389D01*
X102740500Y-116753389D01*
X102713402Y-116582299D01*
X102659873Y-116417555D01*
X102581232Y-116263212D01*
X102479414Y-116123072D01*
X102356928Y-116000586D01*
X102216788Y-115898768D01*
X102062445Y-115820127D01*
X101897701Y-115766598D01*
X101897699Y-115766597D01*
X101897698Y-115766597D01*
X101766271Y-115745781D01*
X101726611Y-115739500D01*
X101553389Y-115739500D01*
X101513728Y-115745781D01*
X101382302Y-115766597D01*
X101217552Y-115820128D01*
X101063211Y-115898768D01*
X100983256Y-115956859D01*
X100923072Y-116000586D01*
X100923070Y-116000588D01*
X100923069Y-116000588D01*
X100800588Y-116123069D01*
X100800588Y-116123070D01*
X100800586Y-116123072D01*
X100790765Y-116136590D01*
X100698768Y-116263211D01*
X100620128Y-116417552D01*
X100566597Y-116582302D01*
X100539500Y-116753389D01*
X100200500Y-116753389D01*
X100173402Y-116582299D01*
X100119873Y-116417555D01*
X100041232Y-116263212D01*
X99939414Y-116123072D01*
X99816928Y-116000586D01*
X99676788Y-115898768D01*
X99522445Y-115820127D01*
X99357701Y-115766598D01*
X99357699Y-115766597D01*
X99357698Y-115766597D01*
X99226271Y-115745781D01*
X99186611Y-115739500D01*
X99013389Y-115739500D01*
X98973728Y-115745781D01*
X98842302Y-115766597D01*
X98677552Y-115820128D01*
X98523211Y-115898768D01*
X98443256Y-115956859D01*
X98383072Y-116000586D01*
X98383070Y-116000588D01*
X98383069Y-116000588D01*
X98260588Y-116123069D01*
X98260588Y-116123070D01*
X98260586Y-116123072D01*
X98250765Y-116136590D01*
X98158768Y-116263211D01*
X98080128Y-116417552D01*
X98026597Y-116582302D01*
X97999500Y-116753389D01*
X97660500Y-116753389D01*
X97633402Y-116582299D01*
X97579873Y-116417555D01*
X97501232Y-116263212D01*
X97399414Y-116123072D01*
X97276928Y-116000586D01*
X97136788Y-115898768D01*
X96982445Y-115820127D01*
X96817701Y-115766598D01*
X96817699Y-115766597D01*
X96817698Y-115766597D01*
X96686271Y-115745781D01*
X96646611Y-115739500D01*
X96473389Y-115739500D01*
X96433728Y-115745781D01*
X96302302Y-115766597D01*
X96137552Y-115820128D01*
X95983211Y-115898768D01*
X95903256Y-115956859D01*
X95843072Y-116000586D01*
X95843070Y-116000588D01*
X95843069Y-116000588D01*
X95720588Y-116123069D01*
X95720588Y-116123070D01*
X95720586Y-116123072D01*
X95710765Y-116136590D01*
X95618768Y-116263211D01*
X95540128Y-116417552D01*
X95486597Y-116582302D01*
X95459500Y-116753389D01*
X95120500Y-116753389D01*
X95093402Y-116582299D01*
X95039873Y-116417555D01*
X94961232Y-116263212D01*
X94859414Y-116123072D01*
X94736928Y-116000586D01*
X94596788Y-115898768D01*
X94442445Y-115820127D01*
X94277701Y-115766598D01*
X94277699Y-115766597D01*
X94277698Y-115766597D01*
X94146271Y-115745781D01*
X94106611Y-115739500D01*
X93933389Y-115739500D01*
X93893728Y-115745781D01*
X93762302Y-115766597D01*
X93597552Y-115820128D01*
X93443211Y-115898768D01*
X93363256Y-115956859D01*
X93303072Y-116000586D01*
X93303070Y-116000588D01*
X93303069Y-116000588D01*
X93180588Y-116123069D01*
X93180588Y-116123070D01*
X93180586Y-116123072D01*
X93170765Y-116136590D01*
X93078768Y-116263211D01*
X93000128Y-116417552D01*
X92946597Y-116582302D01*
X92919500Y-116753389D01*
X92580500Y-116753389D01*
X92553402Y-116582299D01*
X92499873Y-116417555D01*
X92421232Y-116263212D01*
X92319414Y-116123072D01*
X92196928Y-116000586D01*
X92056788Y-115898768D01*
X91902445Y-115820127D01*
X91737701Y-115766598D01*
X91737699Y-115766597D01*
X91737698Y-115766597D01*
X91606271Y-115745781D01*
X91566611Y-115739500D01*
X91393389Y-115739500D01*
X91353728Y-115745781D01*
X91222302Y-115766597D01*
X91057552Y-115820128D01*
X90903211Y-115898768D01*
X90823256Y-115956859D01*
X90763072Y-116000586D01*
X90763070Y-116000588D01*
X90763069Y-116000588D01*
X90640588Y-116123069D01*
X90640588Y-116123070D01*
X90640586Y-116123072D01*
X90630765Y-116136590D01*
X90538768Y-116263211D01*
X90460128Y-116417552D01*
X90406597Y-116582302D01*
X90379500Y-116753389D01*
X90040500Y-116753389D01*
X90013402Y-116582299D01*
X89959873Y-116417555D01*
X89881232Y-116263212D01*
X89779414Y-116123072D01*
X89656928Y-116000586D01*
X89516788Y-115898768D01*
X89362445Y-115820127D01*
X89197701Y-115766598D01*
X89197699Y-115766597D01*
X89197698Y-115766597D01*
X89066271Y-115745781D01*
X89026611Y-115739500D01*
X88853389Y-115739500D01*
X88813728Y-115745781D01*
X88682302Y-115766597D01*
X88517552Y-115820128D01*
X88363211Y-115898768D01*
X88283256Y-115956859D01*
X88223072Y-116000586D01*
X88223070Y-116000588D01*
X88223069Y-116000588D01*
X88100588Y-116123069D01*
X88100588Y-116123070D01*
X88100586Y-116123072D01*
X88090765Y-116136590D01*
X87998768Y-116263211D01*
X87920128Y-116417552D01*
X87866597Y-116582302D01*
X87839500Y-116753389D01*
X87500500Y-116753389D01*
X87473402Y-116582299D01*
X87419873Y-116417555D01*
X87341232Y-116263212D01*
X87239414Y-116123072D01*
X87116928Y-116000586D01*
X86976788Y-115898768D01*
X86822445Y-115820127D01*
X86657701Y-115766598D01*
X86657699Y-115766597D01*
X86657698Y-115766597D01*
X86526271Y-115745781D01*
X86486611Y-115739500D01*
X86313389Y-115739500D01*
X86273728Y-115745781D01*
X86142302Y-115766597D01*
X85977552Y-115820128D01*
X85823211Y-115898768D01*
X85743256Y-115956859D01*
X85683072Y-116000586D01*
X85683070Y-116000588D01*
X85683069Y-116000588D01*
X85560588Y-116123069D01*
X85560588Y-116123070D01*
X85560586Y-116123072D01*
X85550765Y-116136590D01*
X85458768Y-116263211D01*
X85380128Y-116417552D01*
X85326597Y-116582302D01*
X85299500Y-116753389D01*
X84960500Y-116753389D01*
X84933402Y-116582299D01*
X84879873Y-116417555D01*
X84801232Y-116263212D01*
X84699414Y-116123072D01*
X84576928Y-116000586D01*
X84436788Y-115898768D01*
X84282445Y-115820127D01*
X84117701Y-115766598D01*
X84117699Y-115766597D01*
X84117698Y-115766597D01*
X83986271Y-115745781D01*
X83946611Y-115739500D01*
X83773389Y-115739500D01*
X83733728Y-115745781D01*
X83602302Y-115766597D01*
X83437552Y-115820128D01*
X83283211Y-115898768D01*
X83203256Y-115956859D01*
X83143072Y-116000586D01*
X83143070Y-116000588D01*
X83143069Y-116000588D01*
X83020588Y-116123069D01*
X83020588Y-116123070D01*
X83020586Y-116123072D01*
X83010765Y-116136590D01*
X82918768Y-116263211D01*
X82840128Y-116417552D01*
X82786597Y-116582302D01*
X82759500Y-116753389D01*
X82420500Y-116753389D01*
X82393402Y-116582299D01*
X82339873Y-116417555D01*
X82261232Y-116263212D01*
X82159414Y-116123072D01*
X82036928Y-116000586D01*
X81896788Y-115898768D01*
X81742445Y-115820127D01*
X81577701Y-115766598D01*
X81577699Y-115766597D01*
X81577698Y-115766597D01*
X81446271Y-115745781D01*
X81406611Y-115739500D01*
X81233389Y-115739500D01*
X81193728Y-115745781D01*
X81062302Y-115766597D01*
X80897552Y-115820128D01*
X80743211Y-115898768D01*
X80663256Y-115956859D01*
X80603072Y-116000586D01*
X80603070Y-116000588D01*
X80603069Y-116000588D01*
X80480588Y-116123069D01*
X80480588Y-116123070D01*
X80480586Y-116123072D01*
X80470765Y-116136590D01*
X80378768Y-116263211D01*
X80300128Y-116417552D01*
X80246597Y-116582302D01*
X80219500Y-116753389D01*
X79880500Y-116753389D01*
X79853402Y-116582299D01*
X79799873Y-116417555D01*
X79721232Y-116263212D01*
X79619414Y-116123072D01*
X79496928Y-116000586D01*
X79356788Y-115898768D01*
X79202445Y-115820127D01*
X79037701Y-115766598D01*
X79037699Y-115766597D01*
X79037698Y-115766597D01*
X78906271Y-115745781D01*
X78866611Y-115739500D01*
X78693389Y-115739500D01*
X78653728Y-115745781D01*
X78522302Y-115766597D01*
X78357552Y-115820128D01*
X78203211Y-115898768D01*
X78123256Y-115956859D01*
X78063072Y-116000586D01*
X78063070Y-116000588D01*
X78063069Y-116000588D01*
X77940588Y-116123069D01*
X77940588Y-116123070D01*
X77940586Y-116123072D01*
X77930765Y-116136590D01*
X77838768Y-116263211D01*
X77760128Y-116417552D01*
X77706597Y-116582302D01*
X77679500Y-116753389D01*
X77340500Y-116753389D01*
X77313402Y-116582299D01*
X77259873Y-116417555D01*
X77181232Y-116263212D01*
X77079414Y-116123072D01*
X76956928Y-116000586D01*
X76816788Y-115898768D01*
X76662445Y-115820127D01*
X76497701Y-115766598D01*
X76497699Y-115766597D01*
X76497698Y-115766597D01*
X76366271Y-115745781D01*
X76326611Y-115739500D01*
X76153389Y-115739500D01*
X76113728Y-115745781D01*
X75982302Y-115766597D01*
X75817552Y-115820128D01*
X75663211Y-115898768D01*
X75583256Y-115956859D01*
X75523072Y-116000586D01*
X75523070Y-116000588D01*
X75523069Y-116000588D01*
X75400588Y-116123069D01*
X75400588Y-116123070D01*
X75400586Y-116123072D01*
X75390765Y-116136590D01*
X75298768Y-116263211D01*
X75220128Y-116417552D01*
X75166597Y-116582302D01*
X75139500Y-116753389D01*
X74800500Y-116753389D01*
X74773402Y-116582299D01*
X74719873Y-116417555D01*
X74641232Y-116263212D01*
X74539414Y-116123072D01*
X74416928Y-116000586D01*
X74276788Y-115898768D01*
X74122445Y-115820127D01*
X73957701Y-115766598D01*
X73957699Y-115766597D01*
X73957698Y-115766597D01*
X73826271Y-115745781D01*
X73786611Y-115739500D01*
X73613389Y-115739500D01*
X73573728Y-115745781D01*
X73442302Y-115766597D01*
X73277552Y-115820128D01*
X73123211Y-115898768D01*
X73043256Y-115956859D01*
X72983072Y-116000586D01*
X72983070Y-116000588D01*
X72983069Y-116000588D01*
X72860588Y-116123069D01*
X72860588Y-116123070D01*
X72860586Y-116123072D01*
X72850765Y-116136590D01*
X72758768Y-116263211D01*
X72680128Y-116417552D01*
X72626597Y-116582302D01*
X72599500Y-116753389D01*
X72260500Y-116753389D01*
X72233402Y-116582299D01*
X72179873Y-116417555D01*
X72101232Y-116263212D01*
X71999414Y-116123072D01*
X71876928Y-116000586D01*
X71736788Y-115898768D01*
X71582445Y-115820127D01*
X71417701Y-115766598D01*
X71417699Y-115766597D01*
X71417698Y-115766597D01*
X71286271Y-115745781D01*
X71246611Y-115739500D01*
X71073389Y-115739500D01*
X71033728Y-115745781D01*
X70902302Y-115766597D01*
X70737552Y-115820128D01*
X70583211Y-115898768D01*
X70503256Y-115956859D01*
X70443072Y-116000586D01*
X70443070Y-116000588D01*
X70443069Y-116000588D01*
X70320588Y-116123069D01*
X70320588Y-116123070D01*
X70320586Y-116123072D01*
X70310765Y-116136590D01*
X70218768Y-116263211D01*
X70140128Y-116417552D01*
X70086597Y-116582302D01*
X70059500Y-116753389D01*
X69720500Y-116753389D01*
X69693402Y-116582299D01*
X69639873Y-116417555D01*
X69561232Y-116263212D01*
X69459414Y-116123072D01*
X69336928Y-116000586D01*
X69196788Y-115898768D01*
X69042445Y-115820127D01*
X68877701Y-115766598D01*
X68877699Y-115766597D01*
X68877698Y-115766597D01*
X68746271Y-115745781D01*
X68706611Y-115739500D01*
X68533389Y-115739500D01*
X68493728Y-115745781D01*
X68362302Y-115766597D01*
X68197552Y-115820128D01*
X68043211Y-115898768D01*
X67963256Y-115956859D01*
X67903072Y-116000586D01*
X67903070Y-116000588D01*
X67903069Y-116000588D01*
X67780588Y-116123069D01*
X67780588Y-116123070D01*
X67780586Y-116123072D01*
X67770765Y-116136590D01*
X67678768Y-116263211D01*
X67600128Y-116417552D01*
X67546597Y-116582302D01*
X67519500Y-116753389D01*
X67180500Y-116753389D01*
X67153402Y-116582299D01*
X67099873Y-116417555D01*
X67021232Y-116263212D01*
X66919414Y-116123072D01*
X66796928Y-116000586D01*
X66656788Y-115898768D01*
X66502445Y-115820127D01*
X66337701Y-115766598D01*
X66337699Y-115766597D01*
X66337698Y-115766597D01*
X66206271Y-115745781D01*
X66166611Y-115739500D01*
X65993389Y-115739500D01*
X65953728Y-115745781D01*
X65822302Y-115766597D01*
X65657552Y-115820128D01*
X65503211Y-115898768D01*
X65423256Y-115956859D01*
X65363072Y-116000586D01*
X65363070Y-116000588D01*
X65363069Y-116000588D01*
X65240588Y-116123069D01*
X65240588Y-116123070D01*
X65240586Y-116123072D01*
X65230765Y-116136590D01*
X65138768Y-116263211D01*
X65060128Y-116417552D01*
X65006597Y-116582302D01*
X64979500Y-116753389D01*
X64640500Y-116753389D01*
X64613402Y-116582299D01*
X64559873Y-116417555D01*
X64481232Y-116263212D01*
X64379414Y-116123072D01*
X64256928Y-116000586D01*
X64116788Y-115898768D01*
X63962445Y-115820127D01*
X63797701Y-115766598D01*
X63797699Y-115766597D01*
X63797698Y-115766597D01*
X63666271Y-115745781D01*
X63626611Y-115739500D01*
X63453389Y-115739500D01*
X63413728Y-115745781D01*
X63282302Y-115766597D01*
X63117552Y-115820128D01*
X62963211Y-115898768D01*
X62883256Y-115956859D01*
X62823072Y-116000586D01*
X62823070Y-116000588D01*
X62823069Y-116000588D01*
X62700588Y-116123069D01*
X62700588Y-116123070D01*
X62700586Y-116123072D01*
X62690765Y-116136590D01*
X62598768Y-116263211D01*
X62520128Y-116417552D01*
X62466597Y-116582302D01*
X62439500Y-116753389D01*
X62100500Y-116753389D01*
X62100500Y-115965326D01*
X62100500Y-115965323D01*
X62100499Y-115965321D01*
X62085967Y-115892264D01*
X62085966Y-115892260D01*
X62030601Y-115809399D01*
X61966542Y-115766597D01*
X61947739Y-115754033D01*
X61947735Y-115754032D01*
X61874677Y-115739500D01*
X61874674Y-115739500D01*
X60125326Y-115739500D01*
X60125323Y-115739500D01*
X60052264Y-115754032D01*
X60052260Y-115754033D01*
X59969399Y-115809399D01*
X59914033Y-115892260D01*
X59914032Y-115892264D01*
X59899500Y-115965321D01*
X55500500Y-115965321D01*
X55500500Y-111112322D01*
X64749496Y-111112322D01*
X64749500Y-111156346D01*
X64749500Y-111212158D01*
X64759154Y-111248176D01*
X64759155Y-111248187D01*
X64759157Y-111248187D01*
X64773386Y-111301292D01*
X64773393Y-111301308D01*
X64798883Y-111345449D01*
X64798887Y-111345457D01*
X64819538Y-111381224D01*
X64819546Y-111381232D01*
X64819548Y-111381235D01*
X64856195Y-111417876D01*
X64856202Y-111417883D01*
X64891041Y-111452722D01*
X64891085Y-111452760D01*
X66688571Y-113249952D01*
X66719110Y-113280491D01*
X66719175Y-113280541D01*
X66720204Y-113281118D01*
X66751077Y-113298939D01*
X66759644Y-113303884D01*
X66759654Y-113303890D01*
X66797644Y-113325825D01*
X66799142Y-113326718D01*
X66799202Y-113326742D01*
X66801938Y-113327401D01*
X66831229Y-113335247D01*
X66838366Y-113337159D01*
X66838368Y-113337159D01*
X66888156Y-113350500D01*
X66888163Y-113350500D01*
X66888183Y-113350503D01*
X66888184Y-113350502D01*
X66888185Y-113350503D01*
X66927737Y-113350500D01*
X99765500Y-113350500D01*
X99832539Y-113370185D01*
X99878294Y-113422989D01*
X99889500Y-113474500D01*
X99889500Y-114431144D01*
X99904613Y-114487544D01*
X99913386Y-114520287D01*
X99913387Y-114520290D01*
X99959527Y-114600208D01*
X99959529Y-114600211D01*
X99959530Y-114600212D01*
X100274531Y-114915212D01*
X100339788Y-114980469D01*
X100339791Y-114980470D01*
X100339794Y-114980473D01*
X100419706Y-115026611D01*
X100419707Y-115026611D01*
X100419712Y-115026614D01*
X100508856Y-115050500D01*
X106870940Y-115050500D01*
X106873893Y-115050688D01*
X106925176Y-115050501D01*
X106925628Y-115050500D01*
X106971152Y-115050500D01*
X106971337Y-115050475D01*
X106971718Y-115050424D01*
X106978713Y-115049500D01*
X106979045Y-115049434D01*
X106980513Y-115049236D01*
X106980658Y-115050311D01*
X106980781Y-115050303D01*
X106980946Y-115050303D01*
X106980946Y-115051886D01*
X107037509Y-115053007D01*
X107087906Y-115083588D01*
X107723181Y-115718863D01*
X107756666Y-115780186D01*
X107759500Y-115806544D01*
X107759500Y-116023796D01*
X107739815Y-116090835D01*
X107687011Y-116136590D01*
X107617853Y-116146534D01*
X107554297Y-116117509D01*
X107547819Y-116111477D01*
X107436930Y-116000588D01*
X107436928Y-116000586D01*
X107296788Y-115898768D01*
X107142445Y-115820127D01*
X106977701Y-115766598D01*
X106977699Y-115766597D01*
X106977698Y-115766597D01*
X106846271Y-115745781D01*
X106806611Y-115739500D01*
X106633389Y-115739500D01*
X106593728Y-115745781D01*
X106462302Y-115766597D01*
X106297552Y-115820128D01*
X106143211Y-115898768D01*
X106063256Y-115956859D01*
X106003072Y-116000586D01*
X106003070Y-116000588D01*
X106003069Y-116000588D01*
X105880588Y-116123069D01*
X105880588Y-116123070D01*
X105880586Y-116123072D01*
X105870765Y-116136590D01*
X105778768Y-116263211D01*
X105700128Y-116417552D01*
X105646597Y-116582302D01*
X105619500Y-116753389D01*
X105619500Y-116926611D01*
X105646598Y-117097701D01*
X105700127Y-117262445D01*
X105778768Y-117416788D01*
X105880586Y-117556928D01*
X106003072Y-117679414D01*
X106143212Y-117781232D01*
X106297555Y-117859873D01*
X106462299Y-117913402D01*
X106633389Y-117940500D01*
X106633390Y-117940500D01*
X106806610Y-117940500D01*
X106806611Y-117940500D01*
X106977701Y-117913402D01*
X107142445Y-117859873D01*
X107296788Y-117781232D01*
X107436928Y-117679414D01*
X107559414Y-117556928D01*
X107605966Y-117492854D01*
X107661293Y-117450190D01*
X107730906Y-117444211D01*
X107792701Y-117476816D01*
X107813669Y-117503740D01*
X107829530Y-117531212D01*
X108568788Y-118270470D01*
X108568789Y-118270471D01*
X108568791Y-118270472D01*
X108586112Y-118280472D01*
X108648712Y-118316614D01*
X108737856Y-118340500D01*
X112400214Y-118340500D01*
X112432300Y-118344723D01*
X112453856Y-118350499D01*
X112453860Y-118350499D01*
X112546144Y-118350499D01*
X112546149Y-118350498D01*
X112635285Y-118326615D01*
X112635285Y-118326614D01*
X112635288Y-118326614D01*
X112715212Y-118280470D01*
X113470469Y-117525212D01*
X113516614Y-117445288D01*
X113519143Y-117435845D01*
X113522600Y-117422950D01*
X113529151Y-117398497D01*
X113540500Y-117356144D01*
X113540500Y-112506543D01*
X113560185Y-112439504D01*
X113576814Y-112418867D01*
X115279601Y-110716079D01*
X115340922Y-110682596D01*
X115410614Y-110687580D01*
X115466547Y-110729452D01*
X115490964Y-110794916D01*
X115476112Y-110863189D01*
X115467599Y-110876646D01*
X115433769Y-110923209D01*
X115355128Y-111077552D01*
X115301597Y-111242302D01*
X115274500Y-111413389D01*
X115274500Y-111586610D01*
X115289871Y-111683663D01*
X115301598Y-111757701D01*
X115350048Y-111906815D01*
X115355128Y-111922447D01*
X115399386Y-112009309D01*
X115433768Y-112076788D01*
X115535586Y-112216928D01*
X115658072Y-112339414D01*
X115798212Y-112441232D01*
X115952555Y-112519873D01*
X116117299Y-112573402D01*
X116288389Y-112600500D01*
X116288390Y-112600500D01*
X116711610Y-112600500D01*
X116711611Y-112600500D01*
X116882701Y-112573402D01*
X117047445Y-112519873D01*
X117201788Y-112441232D01*
X117341928Y-112339414D01*
X117464414Y-112216928D01*
X117566232Y-112076788D01*
X117644873Y-111922445D01*
X117698402Y-111757701D01*
X117725500Y-111586611D01*
X117725500Y-111413389D01*
X117698402Y-111242299D01*
X117644873Y-111077555D01*
X117566232Y-110923212D01*
X117464414Y-110783072D01*
X117341928Y-110660586D01*
X117201788Y-110558768D01*
X117047445Y-110480127D01*
X116882701Y-110426598D01*
X116882699Y-110426597D01*
X116882698Y-110426597D01*
X116743805Y-110404599D01*
X116711611Y-110399500D01*
X116288389Y-110399500D01*
X116256195Y-110404599D01*
X116117302Y-110426597D01*
X115952552Y-110480128D01*
X115798209Y-110558769D01*
X115751646Y-110592599D01*
X115685840Y-110616078D01*
X115617786Y-110600252D01*
X115569092Y-110550146D01*
X115555217Y-110481667D01*
X115580567Y-110416559D01*
X115591072Y-110404608D01*
X115916376Y-110079304D01*
X115977697Y-110045821D01*
X116042370Y-110049055D01*
X116117299Y-110073402D01*
X116288389Y-110100500D01*
X116288390Y-110100500D01*
X116711610Y-110100500D01*
X116711611Y-110100500D01*
X116882701Y-110073402D01*
X117047445Y-110019873D01*
X117201788Y-109941232D01*
X117341928Y-109839414D01*
X117464414Y-109716928D01*
X117566232Y-109576788D01*
X117644873Y-109422445D01*
X117698402Y-109257701D01*
X117725500Y-109086611D01*
X117725500Y-108913389D01*
X117698402Y-108742299D01*
X117644873Y-108577555D01*
X117566232Y-108423212D01*
X117464414Y-108283072D01*
X117341928Y-108160586D01*
X117341926Y-108160584D01*
X117338215Y-108157414D01*
X117339685Y-108155693D01*
X117302775Y-108107701D01*
X117296884Y-108038080D01*
X117329569Y-107976326D01*
X117330621Y-107975260D01*
X118128770Y-107177112D01*
X118174914Y-107097188D01*
X118198800Y-107008043D01*
X118198800Y-106915756D01*
X118198800Y-97406056D01*
X118174914Y-97316912D01*
X118174911Y-97316906D01*
X118128773Y-97236994D01*
X118128770Y-97236991D01*
X118128769Y-97236988D01*
X118063512Y-97171731D01*
X116086219Y-95194437D01*
X116052734Y-95133114D01*
X116049900Y-95106756D01*
X116049900Y-95030827D01*
X116049900Y-95030825D01*
X116012384Y-94890815D01*
X115992323Y-94856069D01*
X115939911Y-94765288D01*
X115939906Y-94765282D01*
X115837417Y-94662793D01*
X115837411Y-94662788D01*
X115711888Y-94590317D01*
X115711889Y-94590317D01*
X115700406Y-94587240D01*
X115571875Y-94552800D01*
X115481691Y-94552800D01*
X115414652Y-94533115D01*
X115368897Y-94480311D01*
X115358953Y-94411153D01*
X115363760Y-94390482D01*
X115413402Y-94237701D01*
X115440500Y-94066611D01*
X115440500Y-93893389D01*
X115413402Y-93722299D01*
X115359873Y-93557555D01*
X115281232Y-93403212D01*
X115179414Y-93263072D01*
X115056928Y-93140586D01*
X114916788Y-93038768D01*
X114762445Y-92960127D01*
X114597701Y-92906598D01*
X114597699Y-92906597D01*
X114597698Y-92906597D01*
X114466271Y-92885781D01*
X114426611Y-92879500D01*
X114253389Y-92879500D01*
X114213728Y-92885781D01*
X114082302Y-92906597D01*
X113917552Y-92960128D01*
X113763211Y-93038768D01*
X113683256Y-93096859D01*
X113623072Y-93140586D01*
X113623070Y-93140588D01*
X113623069Y-93140588D01*
X113500588Y-93263069D01*
X113500588Y-93263070D01*
X113500586Y-93263072D01*
X113456859Y-93323256D01*
X113398768Y-93403211D01*
X113320128Y-93557552D01*
X113266597Y-93722302D01*
X113239500Y-93893389D01*
X113239500Y-94066610D01*
X113266597Y-94237697D01*
X113266597Y-94237699D01*
X113266598Y-94237701D01*
X113320127Y-94402445D01*
X113398768Y-94556788D01*
X113500586Y-94696928D01*
X113623072Y-94819414D01*
X113763212Y-94921232D01*
X113917555Y-94999873D01*
X114082299Y-95053402D01*
X114253389Y-95080500D01*
X114253390Y-95080500D01*
X114426610Y-95080500D01*
X114426611Y-95080500D01*
X114597701Y-95053402D01*
X114762445Y-94999873D01*
X114768602Y-94996735D01*
X114837270Y-94983838D01*
X114902011Y-95010112D01*
X114942270Y-95067217D01*
X114948900Y-95107219D01*
X114948900Y-95175775D01*
X114953901Y-95194437D01*
X114986417Y-95315788D01*
X115058888Y-95441311D01*
X115058890Y-95441313D01*
X115058891Y-95441315D01*
X115161385Y-95543809D01*
X115161386Y-95543810D01*
X115161388Y-95543811D01*
X115286911Y-95616282D01*
X115286912Y-95616282D01*
X115286915Y-95616284D01*
X115426925Y-95653800D01*
X115502856Y-95653800D01*
X115569895Y-95673485D01*
X115590537Y-95690119D01*
X117461481Y-97561062D01*
X117494966Y-97622385D01*
X117497800Y-97648743D01*
X117497800Y-97788974D01*
X117478115Y-97856013D01*
X117425311Y-97901768D01*
X117356153Y-97911712D01*
X117340055Y-97907604D01*
X117340035Y-97907693D01*
X117332483Y-97905908D01*
X117272883Y-97899501D01*
X117272881Y-97899500D01*
X117272873Y-97899500D01*
X117272865Y-97899500D01*
X115946544Y-97899500D01*
X115879505Y-97879815D01*
X115858863Y-97863181D01*
X113563513Y-95567831D01*
X113563508Y-95567827D01*
X113483590Y-95521687D01*
X113483589Y-95521686D01*
X113483588Y-95521686D01*
X113394444Y-95497800D01*
X97971244Y-95497800D01*
X97878956Y-95497800D01*
X97789812Y-95521686D01*
X97789809Y-95521687D01*
X97709891Y-95567827D01*
X97709886Y-95567831D01*
X89262237Y-104015481D01*
X89200914Y-104048966D01*
X89174556Y-104051800D01*
X77598843Y-104051800D01*
X77531804Y-104032115D01*
X77511162Y-104015481D01*
X76160758Y-102665076D01*
X76127273Y-102603753D01*
X76132257Y-102534061D01*
X76137951Y-102521106D01*
X76158884Y-102480025D01*
X76219709Y-102292826D01*
X76239008Y-102170976D01*
X76250500Y-102098422D01*
X76250500Y-101901577D01*
X76219709Y-101707173D01*
X76158882Y-101519970D01*
X76111743Y-101427455D01*
X76069524Y-101344595D01*
X75953828Y-101185354D01*
X75814646Y-101046172D01*
X75655405Y-100930476D01*
X75641147Y-100923211D01*
X75480029Y-100841117D01*
X75292826Y-100780290D01*
X75098422Y-100749500D01*
X75098417Y-100749500D01*
X74901583Y-100749500D01*
X74901578Y-100749500D01*
X74707173Y-100780290D01*
X74519970Y-100841117D01*
X74344594Y-100930476D01*
X74331102Y-100940279D01*
X74185354Y-101046172D01*
X74185352Y-101046174D01*
X74185351Y-101046174D01*
X74046174Y-101185351D01*
X74046174Y-101185352D01*
X74046172Y-101185354D01*
X74024479Y-101215212D01*
X73930476Y-101344594D01*
X73841117Y-101519970D01*
X73780290Y-101707173D01*
X73749500Y-101901577D01*
X73749500Y-102098422D01*
X73780290Y-102292826D01*
X73841117Y-102480029D01*
X73915368Y-102625754D01*
X73930476Y-102655405D01*
X74046172Y-102814646D01*
X74185354Y-102953828D01*
X74344595Y-103069524D01*
X74427455Y-103111743D01*
X74519970Y-103158882D01*
X74519972Y-103158882D01*
X74519975Y-103158884D01*
X74620317Y-103191487D01*
X74707173Y-103219709D01*
X74901578Y-103250500D01*
X74901583Y-103250500D01*
X75098422Y-103250500D01*
X75292826Y-103219709D01*
X75480025Y-103158884D01*
X75521100Y-103137954D01*
X75589769Y-103125058D01*
X75654509Y-103151334D01*
X75665076Y-103160758D01*
X76796038Y-104291719D01*
X76829523Y-104353042D01*
X76824539Y-104422734D01*
X76782667Y-104478667D01*
X76717203Y-104503084D01*
X76708357Y-104503400D01*
X75050444Y-104503400D01*
X74983405Y-104483715D01*
X74962763Y-104467081D01*
X73160758Y-102665076D01*
X73127273Y-102603753D01*
X73132257Y-102534061D01*
X73137951Y-102521106D01*
X73158884Y-102480025D01*
X73219709Y-102292826D01*
X73239008Y-102170976D01*
X73250500Y-102098422D01*
X73250500Y-101901577D01*
X73219709Y-101707173D01*
X73158882Y-101519970D01*
X73111743Y-101427455D01*
X73069524Y-101344595D01*
X72953828Y-101185354D01*
X72814646Y-101046172D01*
X72655405Y-100930476D01*
X72641147Y-100923211D01*
X72480029Y-100841117D01*
X72292826Y-100780290D01*
X72098422Y-100749500D01*
X72098417Y-100749500D01*
X71901583Y-100749500D01*
X71901578Y-100749500D01*
X71707173Y-100780290D01*
X71519970Y-100841117D01*
X71344594Y-100930476D01*
X71331102Y-100940279D01*
X71185354Y-101046172D01*
X71185352Y-101046174D01*
X71185351Y-101046174D01*
X71046174Y-101185351D01*
X71046174Y-101185352D01*
X71046172Y-101185354D01*
X71024479Y-101215212D01*
X70930476Y-101344594D01*
X70841117Y-101519970D01*
X70780290Y-101707173D01*
X70749500Y-101901577D01*
X70749500Y-102098422D01*
X70780290Y-102292826D01*
X70841117Y-102480029D01*
X70915368Y-102625754D01*
X70930476Y-102655405D01*
X71046172Y-102814646D01*
X71185354Y-102953828D01*
X71344595Y-103069524D01*
X71427455Y-103111743D01*
X71519970Y-103158882D01*
X71519972Y-103158882D01*
X71519975Y-103158884D01*
X71620317Y-103191487D01*
X71707173Y-103219709D01*
X71901578Y-103250500D01*
X71901583Y-103250500D01*
X72098422Y-103250500D01*
X72292826Y-103219709D01*
X72480025Y-103158884D01*
X72521100Y-103137954D01*
X72589769Y-103125058D01*
X72654509Y-103151334D01*
X72665076Y-103160758D01*
X74638688Y-105134370D01*
X74718612Y-105180514D01*
X74807756Y-105204400D01*
X74807758Y-105204400D01*
X79515514Y-105204400D01*
X79582553Y-105224085D01*
X79628308Y-105276889D01*
X79638252Y-105346047D01*
X79609227Y-105409603D01*
X79603195Y-105416081D01*
X79580393Y-105438882D01*
X79580388Y-105438888D01*
X79507917Y-105564411D01*
X79503972Y-105579135D01*
X79470400Y-105704425D01*
X79470400Y-105849375D01*
X79502003Y-105967317D01*
X79507917Y-105989388D01*
X79580388Y-106114911D01*
X79580393Y-106114917D01*
X79603295Y-106137819D01*
X79636780Y-106199142D01*
X79631796Y-106268834D01*
X79589924Y-106324767D01*
X79524460Y-106349184D01*
X79515614Y-106349500D01*
X70546144Y-106349500D01*
X70453856Y-106349500D01*
X70364712Y-106373386D01*
X70364711Y-106373386D01*
X70364709Y-106373387D01*
X70364706Y-106373388D01*
X70284794Y-106419526D01*
X70284785Y-106419533D01*
X70219533Y-106484785D01*
X70219526Y-106484794D01*
X70173388Y-106564706D01*
X70173387Y-106564709D01*
X70149500Y-106653856D01*
X70149500Y-107081664D01*
X70129815Y-107148703D01*
X70077011Y-107194458D01*
X70007853Y-107204402D01*
X69944297Y-107175377D01*
X69937819Y-107169345D01*
X69814648Y-107046174D01*
X69814646Y-107046172D01*
X69655405Y-106930476D01*
X69480029Y-106841117D01*
X69292826Y-106780290D01*
X69098422Y-106749500D01*
X69098417Y-106749500D01*
X68901583Y-106749500D01*
X68901578Y-106749500D01*
X68707173Y-106780290D01*
X68519970Y-106841117D01*
X68344594Y-106930476D01*
X68253741Y-106996485D01*
X68185354Y-107046172D01*
X68185352Y-107046174D01*
X68185351Y-107046174D01*
X68046174Y-107185351D01*
X68046174Y-107185352D01*
X68046172Y-107185354D01*
X68041237Y-107192147D01*
X67930476Y-107344594D01*
X67841117Y-107519970D01*
X67780290Y-107707173D01*
X67749500Y-107901577D01*
X67749500Y-108098422D01*
X67780290Y-108292826D01*
X67841118Y-108480032D01*
X67862044Y-108521101D01*
X67874940Y-108589771D01*
X67848663Y-108654511D01*
X67839240Y-108665076D01*
X66779894Y-109724422D01*
X66718571Y-109757907D01*
X66648879Y-109752923D01*
X66592946Y-109711051D01*
X66568529Y-109645587D01*
X66571761Y-109611747D01*
X66571639Y-109611731D01*
X66572091Y-109608293D01*
X66572440Y-109604644D01*
X66572700Y-109603675D01*
X66572700Y-109458725D01*
X66535184Y-109318715D01*
X66535182Y-109318712D01*
X66535182Y-109318710D01*
X66535181Y-109318709D01*
X66516678Y-109286661D01*
X66500204Y-109218761D01*
X66523056Y-109152734D01*
X66567766Y-109114177D01*
X66655405Y-109069524D01*
X66814646Y-108953828D01*
X66953828Y-108814646D01*
X67069524Y-108655405D01*
X67158884Y-108480025D01*
X67219709Y-108292826D01*
X67233162Y-108207888D01*
X67250500Y-108098422D01*
X67250500Y-107901577D01*
X67219709Y-107707173D01*
X67158882Y-107519970D01*
X67069523Y-107344594D01*
X66953828Y-107185354D01*
X66814646Y-107046172D01*
X66655405Y-106930476D01*
X66480029Y-106841117D01*
X66292826Y-106780290D01*
X66098422Y-106749500D01*
X66098417Y-106749500D01*
X65901583Y-106749500D01*
X65901578Y-106749500D01*
X65707173Y-106780290D01*
X65519970Y-106841117D01*
X65344594Y-106930476D01*
X65253741Y-106996485D01*
X65185354Y-107046172D01*
X65185352Y-107046174D01*
X65185351Y-107046174D01*
X65046174Y-107185351D01*
X65046174Y-107185352D01*
X65046172Y-107185354D01*
X65041237Y-107192147D01*
X64930476Y-107344594D01*
X64841117Y-107519970D01*
X64780290Y-107707173D01*
X64749500Y-107901577D01*
X64749500Y-108098422D01*
X64780290Y-108292826D01*
X64841118Y-108480032D01*
X64862044Y-108521101D01*
X64874940Y-108589771D01*
X64848663Y-108654511D01*
X64839242Y-108665075D01*
X64819532Y-108684784D01*
X64819530Y-108684788D01*
X64774653Y-108762517D01*
X64774650Y-108762523D01*
X64774649Y-108762522D01*
X64773386Y-108764710D01*
X64749500Y-108853856D01*
X64749500Y-111112256D01*
X64749496Y-111112322D01*
X55500500Y-111112322D01*
X55500500Y-101901577D01*
X64749500Y-101901577D01*
X64749500Y-102098422D01*
X64780290Y-102292826D01*
X64841117Y-102480029D01*
X64915368Y-102625754D01*
X64930476Y-102655405D01*
X65046172Y-102814646D01*
X65185354Y-102953828D01*
X65344595Y-103069524D01*
X65427455Y-103111743D01*
X65519970Y-103158882D01*
X65519972Y-103158882D01*
X65519975Y-103158884D01*
X65620317Y-103191487D01*
X65707173Y-103219709D01*
X65901578Y-103250500D01*
X65901583Y-103250500D01*
X66098422Y-103250500D01*
X66292826Y-103219709D01*
X66480025Y-103158884D01*
X66655405Y-103069524D01*
X66814646Y-102953828D01*
X66953828Y-102814646D01*
X67069524Y-102655405D01*
X67113315Y-102569460D01*
X67161289Y-102518663D01*
X67229110Y-102501868D01*
X67295245Y-102524405D01*
X67338697Y-102579120D01*
X67347800Y-102625754D01*
X67347800Y-105326644D01*
X67348303Y-105328519D01*
X67371686Y-105415787D01*
X67371687Y-105415790D01*
X67417827Y-105495708D01*
X67417831Y-105495713D01*
X67460281Y-105538163D01*
X67493766Y-105599486D01*
X67496600Y-105625844D01*
X67496600Y-105701775D01*
X67534116Y-105841785D01*
X67534117Y-105841788D01*
X67606588Y-105967311D01*
X67606590Y-105967313D01*
X67606591Y-105967315D01*
X67709085Y-106069809D01*
X67709086Y-106069810D01*
X67709088Y-106069811D01*
X67834611Y-106142282D01*
X67834612Y-106142282D01*
X67834615Y-106142284D01*
X67974625Y-106179800D01*
X67974628Y-106179800D01*
X68119572Y-106179800D01*
X68119575Y-106179800D01*
X68259585Y-106142284D01*
X68385115Y-106069809D01*
X68487609Y-105967315D01*
X68560084Y-105841785D01*
X68597600Y-105701775D01*
X68597600Y-105556825D01*
X68560084Y-105416815D01*
X68559660Y-105416081D01*
X68487611Y-105291288D01*
X68487606Y-105291282D01*
X68385117Y-105188793D01*
X68385111Y-105188788D01*
X68259589Y-105116317D01*
X68224009Y-105106783D01*
X68140704Y-105084461D01*
X68081045Y-105048096D01*
X68050517Y-104985249D01*
X68048800Y-104964687D01*
X68048800Y-103097979D01*
X68068485Y-103030940D01*
X68121289Y-102985185D01*
X68190447Y-102975241D01*
X68245686Y-102997662D01*
X68344590Y-103069521D01*
X68344592Y-103069522D01*
X68344595Y-103069524D01*
X68423930Y-103109946D01*
X68519970Y-103158882D01*
X68519972Y-103158882D01*
X68519975Y-103158884D01*
X68620317Y-103191487D01*
X68707173Y-103219709D01*
X68901578Y-103250500D01*
X68901583Y-103250500D01*
X69098422Y-103250500D01*
X69292826Y-103219709D01*
X69480025Y-103158884D01*
X69655405Y-103069524D01*
X69814646Y-102953828D01*
X69953828Y-102814646D01*
X70069524Y-102655405D01*
X70158884Y-102480025D01*
X70219709Y-102292826D01*
X70239008Y-102170976D01*
X70250500Y-102098422D01*
X70250500Y-101901577D01*
X70219709Y-101707173D01*
X70158882Y-101519970D01*
X70108008Y-101420124D01*
X70069524Y-101344595D01*
X70069522Y-101344593D01*
X70069519Y-101344586D01*
X70068228Y-101342479D01*
X70067981Y-101341568D01*
X70067312Y-101340254D01*
X70067588Y-101340113D01*
X70049982Y-101275034D01*
X70071097Y-101208431D01*
X70086267Y-101190013D01*
X70476163Y-100800119D01*
X70537486Y-100766634D01*
X70563844Y-100763800D01*
X70639772Y-100763800D01*
X70639775Y-100763800D01*
X70779785Y-100726284D01*
X70905315Y-100653809D01*
X71007809Y-100551315D01*
X71080284Y-100425785D01*
X71117800Y-100285775D01*
X71117800Y-100140825D01*
X71080284Y-100000815D01*
X71059048Y-99964034D01*
X71007811Y-99875288D01*
X71007806Y-99875282D01*
X70905317Y-99772793D01*
X70905311Y-99772788D01*
X70779788Y-99700317D01*
X70779789Y-99700317D01*
X70768306Y-99697240D01*
X70639775Y-99662800D01*
X70494825Y-99662800D01*
X70366293Y-99697240D01*
X70354811Y-99700317D01*
X70229288Y-99772788D01*
X70229282Y-99772793D01*
X70126793Y-99875282D01*
X70126788Y-99875288D01*
X70054317Y-100000811D01*
X70054316Y-100000815D01*
X70016800Y-100140825D01*
X70016800Y-100140827D01*
X70016800Y-100216755D01*
X69997115Y-100283794D01*
X69980481Y-100304436D01*
X69506416Y-100778500D01*
X69445093Y-100811985D01*
X69380418Y-100808750D01*
X69292828Y-100780291D01*
X69292829Y-100780291D01*
X69098422Y-100749500D01*
X69098417Y-100749500D01*
X68901583Y-100749500D01*
X68901577Y-100749500D01*
X68731234Y-100776479D01*
X68661941Y-100767524D01*
X68608489Y-100722528D01*
X68587850Y-100655776D01*
X68606575Y-100588463D01*
X68624152Y-100566329D01*
X70908663Y-98281819D01*
X70969986Y-98248334D01*
X70996344Y-98245500D01*
X71072272Y-98245500D01*
X71072275Y-98245500D01*
X71212285Y-98207984D01*
X71337815Y-98135509D01*
X71440309Y-98033015D01*
X71512784Y-97907485D01*
X71550300Y-97767475D01*
X71550300Y-97622525D01*
X71512784Y-97482515D01*
X71508633Y-97475326D01*
X71440311Y-97356988D01*
X71440306Y-97356982D01*
X71337817Y-97254493D01*
X71337811Y-97254488D01*
X71212288Y-97182017D01*
X71212289Y-97182017D01*
X71173901Y-97171731D01*
X71072275Y-97144500D01*
X70927325Y-97144500D01*
X70825699Y-97171731D01*
X70787311Y-97182017D01*
X70661788Y-97254488D01*
X70661782Y-97254493D01*
X70559293Y-97356982D01*
X70559288Y-97356988D01*
X70486817Y-97482511D01*
X70486816Y-97482515D01*
X70449300Y-97622525D01*
X70449300Y-97622527D01*
X70449300Y-97698456D01*
X70429615Y-97765495D01*
X70412981Y-97786137D01*
X67562181Y-100636937D01*
X67500858Y-100670422D01*
X67431166Y-100665438D01*
X67375233Y-100623566D01*
X67350816Y-100558102D01*
X67350500Y-100549256D01*
X67350500Y-99196544D01*
X67370185Y-99129505D01*
X67386819Y-99108863D01*
X70108863Y-96386819D01*
X70170186Y-96353334D01*
X70196544Y-96350500D01*
X72803456Y-96350500D01*
X72870495Y-96370185D01*
X72891137Y-96386819D01*
X79060927Y-102556609D01*
X79094412Y-102617932D01*
X79089428Y-102687624D01*
X79071627Y-102719769D01*
X79069394Y-102722678D01*
X78996917Y-102848211D01*
X78996916Y-102848215D01*
X78959400Y-102988225D01*
X78959400Y-103133175D01*
X78996916Y-103273185D01*
X78996917Y-103273188D01*
X79069388Y-103398711D01*
X79069390Y-103398713D01*
X79069391Y-103398715D01*
X79171885Y-103501209D01*
X79171886Y-103501210D01*
X79171888Y-103501211D01*
X79297411Y-103573682D01*
X79297412Y-103573682D01*
X79297415Y-103573684D01*
X79437425Y-103611200D01*
X79437428Y-103611200D01*
X79582372Y-103611200D01*
X79582375Y-103611200D01*
X79722385Y-103573684D01*
X79847915Y-103501209D01*
X79950409Y-103398715D01*
X80022884Y-103273185D01*
X80060400Y-103133175D01*
X80060400Y-103045224D01*
X80077013Y-102983224D01*
X80081622Y-102975241D01*
X80112714Y-102921388D01*
X80122065Y-102886488D01*
X80136600Y-102832244D01*
X80136600Y-102739957D01*
X80112714Y-102650812D01*
X80084170Y-102601372D01*
X80066572Y-102570891D01*
X80066568Y-102570886D01*
X73215213Y-95719531D01*
X73215208Y-95719527D01*
X73135290Y-95673387D01*
X73135289Y-95673386D01*
X73135288Y-95673386D01*
X73046144Y-95649500D01*
X69953856Y-95649500D01*
X69864712Y-95673386D01*
X69864709Y-95673387D01*
X69784791Y-95719527D01*
X69784786Y-95719531D01*
X66719531Y-98784786D01*
X66719527Y-98784791D01*
X66673387Y-98864709D01*
X66673386Y-98864712D01*
X66649500Y-98953856D01*
X66649500Y-100725735D01*
X66629815Y-100792774D01*
X66577011Y-100838529D01*
X66507853Y-100848473D01*
X66484809Y-100842155D01*
X66484658Y-100842622D01*
X66480028Y-100841117D01*
X66480025Y-100841116D01*
X66390370Y-100811985D01*
X66292826Y-100780290D01*
X66098422Y-100749500D01*
X66098417Y-100749500D01*
X65901583Y-100749500D01*
X65901578Y-100749500D01*
X65707173Y-100780290D01*
X65519970Y-100841117D01*
X65344594Y-100930476D01*
X65331102Y-100940279D01*
X65185354Y-101046172D01*
X65185352Y-101046174D01*
X65185351Y-101046174D01*
X65046174Y-101185351D01*
X65046174Y-101185352D01*
X65046172Y-101185354D01*
X65024479Y-101215212D01*
X64930476Y-101344594D01*
X64841117Y-101519970D01*
X64780290Y-101707173D01*
X64749500Y-101901577D01*
X55500500Y-101901577D01*
X55500500Y-93105321D01*
X59899500Y-93105321D01*
X59899500Y-94854678D01*
X59914032Y-94927735D01*
X59914033Y-94927739D01*
X59914034Y-94927740D01*
X59969399Y-95010601D01*
X60052260Y-95065966D01*
X60052264Y-95065967D01*
X60125321Y-95080499D01*
X60125324Y-95080500D01*
X60125326Y-95080500D01*
X61874676Y-95080500D01*
X61874677Y-95080499D01*
X61947740Y-95065966D01*
X62030601Y-95010601D01*
X62085966Y-94927740D01*
X62100500Y-94854674D01*
X62100500Y-93893389D01*
X62439500Y-93893389D01*
X62439500Y-94066610D01*
X62466597Y-94237697D01*
X62466597Y-94237699D01*
X62466598Y-94237701D01*
X62520127Y-94402445D01*
X62598768Y-94556788D01*
X62700586Y-94696928D01*
X62823072Y-94819414D01*
X62963212Y-94921232D01*
X63117555Y-94999873D01*
X63282299Y-95053402D01*
X63453389Y-95080500D01*
X63453390Y-95080500D01*
X63626610Y-95080500D01*
X63626611Y-95080500D01*
X63797701Y-95053402D01*
X63962445Y-94999873D01*
X64116788Y-94921232D01*
X64256928Y-94819414D01*
X64379414Y-94696928D01*
X64481232Y-94556788D01*
X64559873Y-94402445D01*
X64613402Y-94237701D01*
X64640500Y-94066611D01*
X64640500Y-93893389D01*
X64979500Y-93893389D01*
X64979500Y-94066610D01*
X65006597Y-94237697D01*
X65006597Y-94237699D01*
X65006598Y-94237701D01*
X65060127Y-94402445D01*
X65138768Y-94556788D01*
X65240586Y-94696928D01*
X65363072Y-94819414D01*
X65503212Y-94921232D01*
X65657555Y-94999873D01*
X65822299Y-95053402D01*
X65993389Y-95080500D01*
X65993390Y-95080500D01*
X66166610Y-95080500D01*
X66166611Y-95080500D01*
X66337701Y-95053402D01*
X66502445Y-94999873D01*
X66656788Y-94921232D01*
X66796928Y-94819414D01*
X66919414Y-94696928D01*
X67021232Y-94556788D01*
X67099873Y-94402445D01*
X67153402Y-94237701D01*
X67180500Y-94066611D01*
X67180500Y-93893389D01*
X67519500Y-93893389D01*
X67519500Y-94066610D01*
X67546597Y-94237697D01*
X67546597Y-94237699D01*
X67546598Y-94237701D01*
X67600127Y-94402445D01*
X67678768Y-94556788D01*
X67780586Y-94696928D01*
X67903072Y-94819414D01*
X68043212Y-94921232D01*
X68197555Y-94999873D01*
X68362299Y-95053402D01*
X68533389Y-95080500D01*
X68533390Y-95080500D01*
X68706610Y-95080500D01*
X68706611Y-95080500D01*
X68877701Y-95053402D01*
X69042445Y-94999873D01*
X69196788Y-94921232D01*
X69336928Y-94819414D01*
X69459414Y-94696928D01*
X69561232Y-94556788D01*
X69639873Y-94402445D01*
X69693402Y-94237701D01*
X69720500Y-94066611D01*
X69720500Y-93893389D01*
X70059500Y-93893389D01*
X70059500Y-94066610D01*
X70086597Y-94237697D01*
X70086597Y-94237699D01*
X70086598Y-94237701D01*
X70140127Y-94402445D01*
X70218768Y-94556788D01*
X70320586Y-94696928D01*
X70443072Y-94819414D01*
X70583212Y-94921232D01*
X70737555Y-94999873D01*
X70902299Y-95053402D01*
X71073389Y-95080500D01*
X71073390Y-95080500D01*
X71246610Y-95080500D01*
X71246611Y-95080500D01*
X71417701Y-95053402D01*
X71582445Y-94999873D01*
X71736788Y-94921232D01*
X71876928Y-94819414D01*
X71999414Y-94696928D01*
X72101232Y-94556788D01*
X72179873Y-94402445D01*
X72233402Y-94237701D01*
X72260500Y-94066611D01*
X72260500Y-93893389D01*
X72599500Y-93893389D01*
X72599500Y-94066610D01*
X72626597Y-94237697D01*
X72626597Y-94237699D01*
X72626598Y-94237701D01*
X72680127Y-94402445D01*
X72758768Y-94556788D01*
X72860586Y-94696928D01*
X72983072Y-94819414D01*
X73123212Y-94921232D01*
X73277555Y-94999873D01*
X73442299Y-95053402D01*
X73613389Y-95080500D01*
X73613390Y-95080500D01*
X73786610Y-95080500D01*
X73786611Y-95080500D01*
X73957701Y-95053402D01*
X74122445Y-94999873D01*
X74276788Y-94921232D01*
X74416928Y-94819414D01*
X74539414Y-94696928D01*
X74641232Y-94556788D01*
X74719873Y-94402445D01*
X74773402Y-94237701D01*
X74800500Y-94066611D01*
X74800500Y-93893389D01*
X75139500Y-93893389D01*
X75139500Y-94066610D01*
X75166597Y-94237697D01*
X75166597Y-94237699D01*
X75166598Y-94237701D01*
X75220127Y-94402445D01*
X75298768Y-94556788D01*
X75400586Y-94696928D01*
X75523072Y-94819414D01*
X75663212Y-94921232D01*
X75817555Y-94999873D01*
X75982299Y-95053402D01*
X76153389Y-95080500D01*
X76153390Y-95080500D01*
X76326610Y-95080500D01*
X76326611Y-95080500D01*
X76497701Y-95053402D01*
X76662445Y-94999873D01*
X76816788Y-94921232D01*
X76956928Y-94819414D01*
X77079414Y-94696928D01*
X77181232Y-94556788D01*
X77259873Y-94402445D01*
X77313402Y-94237701D01*
X77340500Y-94066611D01*
X77340500Y-93893389D01*
X77679500Y-93893389D01*
X77679500Y-94066610D01*
X77706597Y-94237697D01*
X77706597Y-94237699D01*
X77706598Y-94237701D01*
X77760127Y-94402445D01*
X77838768Y-94556788D01*
X77940586Y-94696928D01*
X78063072Y-94819414D01*
X78203212Y-94921232D01*
X78357555Y-94999873D01*
X78522299Y-95053402D01*
X78693389Y-95080500D01*
X78693390Y-95080500D01*
X78866610Y-95080500D01*
X78866611Y-95080500D01*
X79037701Y-95053402D01*
X79202445Y-94999873D01*
X79356788Y-94921232D01*
X79496928Y-94819414D01*
X79619414Y-94696928D01*
X79721232Y-94556788D01*
X79799873Y-94402445D01*
X79853402Y-94237701D01*
X79880500Y-94066611D01*
X79880500Y-93893389D01*
X80219500Y-93893389D01*
X80219500Y-94066610D01*
X80246597Y-94237697D01*
X80246597Y-94237699D01*
X80246598Y-94237701D01*
X80300127Y-94402445D01*
X80378768Y-94556788D01*
X80480586Y-94696928D01*
X80603072Y-94819414D01*
X80743212Y-94921232D01*
X80897555Y-94999873D01*
X81062299Y-95053402D01*
X81233389Y-95080500D01*
X81233390Y-95080500D01*
X81406610Y-95080500D01*
X81406611Y-95080500D01*
X81577701Y-95053402D01*
X81742445Y-94999873D01*
X81896788Y-94921232D01*
X82036928Y-94819414D01*
X82159414Y-94696928D01*
X82261232Y-94556788D01*
X82339873Y-94402445D01*
X82393402Y-94237701D01*
X82420500Y-94066611D01*
X82420500Y-93893389D01*
X82759500Y-93893389D01*
X82759500Y-94066610D01*
X82786597Y-94237697D01*
X82786597Y-94237699D01*
X82786598Y-94237701D01*
X82840127Y-94402445D01*
X82918768Y-94556788D01*
X83020586Y-94696928D01*
X83143072Y-94819414D01*
X83283212Y-94921232D01*
X83437555Y-94999873D01*
X83602299Y-95053402D01*
X83773389Y-95080500D01*
X83773390Y-95080500D01*
X83946610Y-95080500D01*
X83946611Y-95080500D01*
X84117701Y-95053402D01*
X84282445Y-94999873D01*
X84436788Y-94921232D01*
X84576928Y-94819414D01*
X84699414Y-94696928D01*
X84801232Y-94556788D01*
X84879873Y-94402445D01*
X84933402Y-94237701D01*
X84960500Y-94066611D01*
X84960500Y-93893389D01*
X85299500Y-93893389D01*
X85299500Y-94066610D01*
X85326597Y-94237697D01*
X85326597Y-94237699D01*
X85326598Y-94237701D01*
X85380127Y-94402445D01*
X85458768Y-94556788D01*
X85560586Y-94696928D01*
X85683072Y-94819414D01*
X85823212Y-94921232D01*
X85977555Y-94999873D01*
X86142299Y-95053402D01*
X86313389Y-95080500D01*
X86313390Y-95080500D01*
X86486610Y-95080500D01*
X86486611Y-95080500D01*
X86657701Y-95053402D01*
X86822445Y-94999873D01*
X86976788Y-94921232D01*
X87116928Y-94819414D01*
X87239414Y-94696928D01*
X87341232Y-94556788D01*
X87419873Y-94402445D01*
X87473402Y-94237701D01*
X87500500Y-94066611D01*
X87500500Y-93893389D01*
X87839500Y-93893389D01*
X87839500Y-94066610D01*
X87866597Y-94237697D01*
X87866597Y-94237699D01*
X87866598Y-94237701D01*
X87920127Y-94402445D01*
X87998768Y-94556788D01*
X88100586Y-94696928D01*
X88223072Y-94819414D01*
X88363212Y-94921232D01*
X88517555Y-94999873D01*
X88682299Y-95053402D01*
X88853389Y-95080500D01*
X88853390Y-95080500D01*
X89026610Y-95080500D01*
X89026611Y-95080500D01*
X89197701Y-95053402D01*
X89362445Y-94999873D01*
X89516788Y-94921232D01*
X89656928Y-94819414D01*
X89779414Y-94696928D01*
X89881232Y-94556788D01*
X89959873Y-94402445D01*
X90013402Y-94237701D01*
X90040500Y-94066611D01*
X90040500Y-93893389D01*
X90379500Y-93893389D01*
X90379500Y-94066610D01*
X90406597Y-94237697D01*
X90406597Y-94237699D01*
X90406598Y-94237701D01*
X90460127Y-94402445D01*
X90538768Y-94556788D01*
X90640586Y-94696928D01*
X90763072Y-94819414D01*
X90903212Y-94921232D01*
X91057555Y-94999873D01*
X91222299Y-95053402D01*
X91393389Y-95080500D01*
X91393390Y-95080500D01*
X91566610Y-95080500D01*
X91566611Y-95080500D01*
X91737701Y-95053402D01*
X91902445Y-94999873D01*
X92056788Y-94921232D01*
X92196928Y-94819414D01*
X92319414Y-94696928D01*
X92421232Y-94556788D01*
X92499873Y-94402445D01*
X92553402Y-94237701D01*
X92580500Y-94066611D01*
X92580500Y-93893389D01*
X92919500Y-93893389D01*
X92919500Y-94066610D01*
X92946597Y-94237697D01*
X92946597Y-94237699D01*
X92946598Y-94237701D01*
X93000127Y-94402445D01*
X93078768Y-94556788D01*
X93180586Y-94696928D01*
X93303072Y-94819414D01*
X93443212Y-94921232D01*
X93597555Y-94999873D01*
X93762299Y-95053402D01*
X93933389Y-95080500D01*
X93933390Y-95080500D01*
X94106610Y-95080500D01*
X94106611Y-95080500D01*
X94277701Y-95053402D01*
X94442445Y-94999873D01*
X94596788Y-94921232D01*
X94736928Y-94819414D01*
X94859414Y-94696928D01*
X94961232Y-94556788D01*
X95039873Y-94402445D01*
X95093402Y-94237701D01*
X95120500Y-94066611D01*
X95120500Y-93893389D01*
X95459500Y-93893389D01*
X95459500Y-94066610D01*
X95486597Y-94237697D01*
X95486597Y-94237699D01*
X95486598Y-94237701D01*
X95540127Y-94402445D01*
X95618768Y-94556788D01*
X95720586Y-94696928D01*
X95843072Y-94819414D01*
X95983212Y-94921232D01*
X96137555Y-94999873D01*
X96302299Y-95053402D01*
X96473389Y-95080500D01*
X96473390Y-95080500D01*
X96646610Y-95080500D01*
X96646611Y-95080500D01*
X96817701Y-95053402D01*
X96982445Y-94999873D01*
X97136788Y-94921232D01*
X97276928Y-94819414D01*
X97399414Y-94696928D01*
X97501232Y-94556788D01*
X97579873Y-94402445D01*
X97633402Y-94237701D01*
X97660500Y-94066611D01*
X97660500Y-93893389D01*
X97999500Y-93893389D01*
X97999500Y-94066610D01*
X98026597Y-94237697D01*
X98026597Y-94237699D01*
X98026598Y-94237701D01*
X98080127Y-94402445D01*
X98158768Y-94556788D01*
X98260586Y-94696928D01*
X98383072Y-94819414D01*
X98523212Y-94921232D01*
X98677555Y-94999873D01*
X98842299Y-95053402D01*
X99013389Y-95080500D01*
X99013390Y-95080500D01*
X99186610Y-95080500D01*
X99186611Y-95080500D01*
X99357701Y-95053402D01*
X99522445Y-94999873D01*
X99676788Y-94921232D01*
X99816928Y-94819414D01*
X99939414Y-94696928D01*
X100041232Y-94556788D01*
X100119873Y-94402445D01*
X100173402Y-94237701D01*
X100200500Y-94066611D01*
X100200500Y-93893389D01*
X100539500Y-93893389D01*
X100539500Y-94066610D01*
X100566597Y-94237697D01*
X100566597Y-94237699D01*
X100566598Y-94237701D01*
X100620127Y-94402445D01*
X100698768Y-94556788D01*
X100800586Y-94696928D01*
X100923072Y-94819414D01*
X101063212Y-94921232D01*
X101217555Y-94999873D01*
X101382299Y-95053402D01*
X101553389Y-95080500D01*
X101553390Y-95080500D01*
X101726610Y-95080500D01*
X101726611Y-95080500D01*
X101897701Y-95053402D01*
X102062445Y-94999873D01*
X102216788Y-94921232D01*
X102356928Y-94819414D01*
X102479414Y-94696928D01*
X102581232Y-94556788D01*
X102659873Y-94402445D01*
X102713402Y-94237701D01*
X102740500Y-94066611D01*
X102740500Y-93893389D01*
X103079500Y-93893389D01*
X103079500Y-94066610D01*
X103106597Y-94237697D01*
X103106597Y-94237699D01*
X103106598Y-94237701D01*
X103160127Y-94402445D01*
X103238768Y-94556788D01*
X103340586Y-94696928D01*
X103463072Y-94819414D01*
X103603212Y-94921232D01*
X103757555Y-94999873D01*
X103922299Y-95053402D01*
X104093389Y-95080500D01*
X104093390Y-95080500D01*
X104266610Y-95080500D01*
X104266611Y-95080500D01*
X104437701Y-95053402D01*
X104602445Y-94999873D01*
X104756788Y-94921232D01*
X104896928Y-94819414D01*
X105019414Y-94696928D01*
X105121232Y-94556788D01*
X105199873Y-94402445D01*
X105253402Y-94237701D01*
X105280500Y-94066611D01*
X105280500Y-93893389D01*
X105619500Y-93893389D01*
X105619500Y-94066610D01*
X105646597Y-94237697D01*
X105646597Y-94237699D01*
X105646598Y-94237701D01*
X105700127Y-94402445D01*
X105778768Y-94556788D01*
X105880586Y-94696928D01*
X106003072Y-94819414D01*
X106143212Y-94921232D01*
X106297555Y-94999873D01*
X106462299Y-95053402D01*
X106633389Y-95080500D01*
X106633390Y-95080500D01*
X106806610Y-95080500D01*
X106806611Y-95080500D01*
X106977701Y-95053402D01*
X107142445Y-94999873D01*
X107296788Y-94921232D01*
X107436928Y-94819414D01*
X107559414Y-94696928D01*
X107661232Y-94556788D01*
X107739873Y-94402445D01*
X107793402Y-94237701D01*
X107820500Y-94066611D01*
X107820500Y-93893389D01*
X108159500Y-93893389D01*
X108159500Y-94066610D01*
X108186597Y-94237697D01*
X108186597Y-94237699D01*
X108186598Y-94237701D01*
X108240127Y-94402445D01*
X108318768Y-94556788D01*
X108420586Y-94696928D01*
X108543072Y-94819414D01*
X108683212Y-94921232D01*
X108837555Y-94999873D01*
X109002299Y-95053402D01*
X109173389Y-95080500D01*
X109173390Y-95080500D01*
X109346610Y-95080500D01*
X109346611Y-95080500D01*
X109517701Y-95053402D01*
X109682445Y-94999873D01*
X109836788Y-94921232D01*
X109976928Y-94819414D01*
X110099414Y-94696928D01*
X110201232Y-94556788D01*
X110279873Y-94402445D01*
X110333402Y-94237701D01*
X110360500Y-94066611D01*
X110360500Y-93893389D01*
X110699500Y-93893389D01*
X110699500Y-94066610D01*
X110726597Y-94237697D01*
X110726597Y-94237699D01*
X110726598Y-94237701D01*
X110780127Y-94402445D01*
X110858768Y-94556788D01*
X110960586Y-94696928D01*
X111083072Y-94819414D01*
X111223212Y-94921232D01*
X111377555Y-94999873D01*
X111542299Y-95053402D01*
X111713389Y-95080500D01*
X111713390Y-95080500D01*
X111886610Y-95080500D01*
X111886611Y-95080500D01*
X112057701Y-95053402D01*
X112222445Y-94999873D01*
X112376788Y-94921232D01*
X112516928Y-94819414D01*
X112639414Y-94696928D01*
X112741232Y-94556788D01*
X112819873Y-94402445D01*
X112873402Y-94237701D01*
X112900500Y-94066611D01*
X112900500Y-93893389D01*
X112873402Y-93722299D01*
X112819873Y-93557555D01*
X112741232Y-93403212D01*
X112639414Y-93263072D01*
X112516928Y-93140586D01*
X112376788Y-93038768D01*
X112222445Y-92960127D01*
X112057701Y-92906598D01*
X112057699Y-92906597D01*
X112057698Y-92906597D01*
X111926271Y-92885781D01*
X111886611Y-92879500D01*
X111713389Y-92879500D01*
X111673728Y-92885781D01*
X111542302Y-92906597D01*
X111377552Y-92960128D01*
X111223211Y-93038768D01*
X111143256Y-93096859D01*
X111083072Y-93140586D01*
X111083070Y-93140588D01*
X111083069Y-93140588D01*
X110960588Y-93263069D01*
X110960588Y-93263070D01*
X110960586Y-93263072D01*
X110916859Y-93323256D01*
X110858768Y-93403211D01*
X110780128Y-93557552D01*
X110726597Y-93722302D01*
X110699500Y-93893389D01*
X110360500Y-93893389D01*
X110333402Y-93722299D01*
X110279873Y-93557555D01*
X110201232Y-93403212D01*
X110099414Y-93263072D01*
X109976928Y-93140586D01*
X109836788Y-93038768D01*
X109682445Y-92960127D01*
X109517701Y-92906598D01*
X109517699Y-92906597D01*
X109517698Y-92906597D01*
X109386271Y-92885781D01*
X109346611Y-92879500D01*
X109173389Y-92879500D01*
X109133728Y-92885781D01*
X109002302Y-92906597D01*
X108837552Y-92960128D01*
X108683211Y-93038768D01*
X108603256Y-93096859D01*
X108543072Y-93140586D01*
X108543070Y-93140588D01*
X108543069Y-93140588D01*
X108420588Y-93263069D01*
X108420588Y-93263070D01*
X108420586Y-93263072D01*
X108376859Y-93323256D01*
X108318768Y-93403211D01*
X108240128Y-93557552D01*
X108186597Y-93722302D01*
X108159500Y-93893389D01*
X107820500Y-93893389D01*
X107793402Y-93722299D01*
X107739873Y-93557555D01*
X107661232Y-93403212D01*
X107559414Y-93263072D01*
X107436928Y-93140586D01*
X107296788Y-93038768D01*
X107142445Y-92960127D01*
X106977701Y-92906598D01*
X106977699Y-92906597D01*
X106977698Y-92906597D01*
X106846271Y-92885781D01*
X106806611Y-92879500D01*
X106633389Y-92879500D01*
X106593728Y-92885781D01*
X106462302Y-92906597D01*
X106297552Y-92960128D01*
X106143211Y-93038768D01*
X106063256Y-93096859D01*
X106003072Y-93140586D01*
X106003070Y-93140588D01*
X106003069Y-93140588D01*
X105880588Y-93263069D01*
X105880588Y-93263070D01*
X105880586Y-93263072D01*
X105836859Y-93323256D01*
X105778768Y-93403211D01*
X105700128Y-93557552D01*
X105646597Y-93722302D01*
X105619500Y-93893389D01*
X105280500Y-93893389D01*
X105253402Y-93722299D01*
X105199873Y-93557555D01*
X105121232Y-93403212D01*
X105019414Y-93263072D01*
X104896928Y-93140586D01*
X104756788Y-93038768D01*
X104602445Y-92960127D01*
X104437701Y-92906598D01*
X104437699Y-92906597D01*
X104437698Y-92906597D01*
X104306271Y-92885781D01*
X104266611Y-92879500D01*
X104093389Y-92879500D01*
X104053728Y-92885781D01*
X103922302Y-92906597D01*
X103757552Y-92960128D01*
X103603211Y-93038768D01*
X103523256Y-93096859D01*
X103463072Y-93140586D01*
X103463070Y-93140588D01*
X103463069Y-93140588D01*
X103340588Y-93263069D01*
X103340588Y-93263070D01*
X103340586Y-93263072D01*
X103296859Y-93323256D01*
X103238768Y-93403211D01*
X103160128Y-93557552D01*
X103106597Y-93722302D01*
X103079500Y-93893389D01*
X102740500Y-93893389D01*
X102713402Y-93722299D01*
X102659873Y-93557555D01*
X102581232Y-93403212D01*
X102479414Y-93263072D01*
X102356928Y-93140586D01*
X102216788Y-93038768D01*
X102062445Y-92960127D01*
X101897701Y-92906598D01*
X101897699Y-92906597D01*
X101897698Y-92906597D01*
X101766271Y-92885781D01*
X101726611Y-92879500D01*
X101553389Y-92879500D01*
X101513728Y-92885781D01*
X101382302Y-92906597D01*
X101217552Y-92960128D01*
X101063211Y-93038768D01*
X100983256Y-93096859D01*
X100923072Y-93140586D01*
X100923070Y-93140588D01*
X100923069Y-93140588D01*
X100800588Y-93263069D01*
X100800588Y-93263070D01*
X100800586Y-93263072D01*
X100756859Y-93323256D01*
X100698768Y-93403211D01*
X100620128Y-93557552D01*
X100566597Y-93722302D01*
X100539500Y-93893389D01*
X100200500Y-93893389D01*
X100173402Y-93722299D01*
X100119873Y-93557555D01*
X100041232Y-93403212D01*
X99939414Y-93263072D01*
X99816928Y-93140586D01*
X99676788Y-93038768D01*
X99522445Y-92960127D01*
X99357701Y-92906598D01*
X99357699Y-92906597D01*
X99357698Y-92906597D01*
X99226271Y-92885781D01*
X99186611Y-92879500D01*
X99013389Y-92879500D01*
X98973728Y-92885781D01*
X98842302Y-92906597D01*
X98677552Y-92960128D01*
X98523211Y-93038768D01*
X98443256Y-93096859D01*
X98383072Y-93140586D01*
X98383070Y-93140588D01*
X98383069Y-93140588D01*
X98260588Y-93263069D01*
X98260588Y-93263070D01*
X98260586Y-93263072D01*
X98216859Y-93323256D01*
X98158768Y-93403211D01*
X98080128Y-93557552D01*
X98026597Y-93722302D01*
X97999500Y-93893389D01*
X97660500Y-93893389D01*
X97633402Y-93722299D01*
X97579873Y-93557555D01*
X97501232Y-93403212D01*
X97399414Y-93263072D01*
X97276928Y-93140586D01*
X97136788Y-93038768D01*
X96982445Y-92960127D01*
X96817701Y-92906598D01*
X96817699Y-92906597D01*
X96817698Y-92906597D01*
X96686271Y-92885781D01*
X96646611Y-92879500D01*
X96473389Y-92879500D01*
X96433728Y-92885781D01*
X96302302Y-92906597D01*
X96137552Y-92960128D01*
X95983211Y-93038768D01*
X95903256Y-93096859D01*
X95843072Y-93140586D01*
X95843070Y-93140588D01*
X95843069Y-93140588D01*
X95720588Y-93263069D01*
X95720588Y-93263070D01*
X95720586Y-93263072D01*
X95676859Y-93323256D01*
X95618768Y-93403211D01*
X95540128Y-93557552D01*
X95486597Y-93722302D01*
X95459500Y-93893389D01*
X95120500Y-93893389D01*
X95093402Y-93722299D01*
X95039873Y-93557555D01*
X94961232Y-93403212D01*
X94859414Y-93263072D01*
X94736928Y-93140586D01*
X94596788Y-93038768D01*
X94442445Y-92960127D01*
X94277701Y-92906598D01*
X94277699Y-92906597D01*
X94277698Y-92906597D01*
X94146271Y-92885781D01*
X94106611Y-92879500D01*
X93933389Y-92879500D01*
X93893728Y-92885781D01*
X93762302Y-92906597D01*
X93597552Y-92960128D01*
X93443211Y-93038768D01*
X93363256Y-93096859D01*
X93303072Y-93140586D01*
X93303070Y-93140588D01*
X93303069Y-93140588D01*
X93180588Y-93263069D01*
X93180588Y-93263070D01*
X93180586Y-93263072D01*
X93136859Y-93323256D01*
X93078768Y-93403211D01*
X93000128Y-93557552D01*
X92946597Y-93722302D01*
X92919500Y-93893389D01*
X92580500Y-93893389D01*
X92553402Y-93722299D01*
X92499873Y-93557555D01*
X92421232Y-93403212D01*
X92319414Y-93263072D01*
X92196928Y-93140586D01*
X92056788Y-93038768D01*
X91902445Y-92960127D01*
X91737701Y-92906598D01*
X91737699Y-92906597D01*
X91737698Y-92906597D01*
X91606271Y-92885781D01*
X91566611Y-92879500D01*
X91393389Y-92879500D01*
X91353728Y-92885781D01*
X91222302Y-92906597D01*
X91057552Y-92960128D01*
X90903211Y-93038768D01*
X90823256Y-93096859D01*
X90763072Y-93140586D01*
X90763070Y-93140588D01*
X90763069Y-93140588D01*
X90640588Y-93263069D01*
X90640588Y-93263070D01*
X90640586Y-93263072D01*
X90596859Y-93323256D01*
X90538768Y-93403211D01*
X90460128Y-93557552D01*
X90406597Y-93722302D01*
X90379500Y-93893389D01*
X90040500Y-93893389D01*
X90013402Y-93722299D01*
X89959873Y-93557555D01*
X89881232Y-93403212D01*
X89779414Y-93263072D01*
X89656928Y-93140586D01*
X89516788Y-93038768D01*
X89362445Y-92960127D01*
X89197701Y-92906598D01*
X89197699Y-92906597D01*
X89197698Y-92906597D01*
X89066271Y-92885781D01*
X89026611Y-92879500D01*
X88853389Y-92879500D01*
X88813728Y-92885781D01*
X88682302Y-92906597D01*
X88517552Y-92960128D01*
X88363211Y-93038768D01*
X88283256Y-93096859D01*
X88223072Y-93140586D01*
X88223070Y-93140588D01*
X88223069Y-93140588D01*
X88100588Y-93263069D01*
X88100588Y-93263070D01*
X88100586Y-93263072D01*
X88056859Y-93323256D01*
X87998768Y-93403211D01*
X87920128Y-93557552D01*
X87866597Y-93722302D01*
X87839500Y-93893389D01*
X87500500Y-93893389D01*
X87473402Y-93722299D01*
X87419873Y-93557555D01*
X87341232Y-93403212D01*
X87239414Y-93263072D01*
X87116928Y-93140586D01*
X86976788Y-93038768D01*
X86822445Y-92960127D01*
X86657701Y-92906598D01*
X86657699Y-92906597D01*
X86657698Y-92906597D01*
X86526271Y-92885781D01*
X86486611Y-92879500D01*
X86313389Y-92879500D01*
X86273728Y-92885781D01*
X86142302Y-92906597D01*
X85977552Y-92960128D01*
X85823211Y-93038768D01*
X85743256Y-93096859D01*
X85683072Y-93140586D01*
X85683070Y-93140588D01*
X85683069Y-93140588D01*
X85560588Y-93263069D01*
X85560588Y-93263070D01*
X85560586Y-93263072D01*
X85516859Y-93323256D01*
X85458768Y-93403211D01*
X85380128Y-93557552D01*
X85326597Y-93722302D01*
X85299500Y-93893389D01*
X84960500Y-93893389D01*
X84933402Y-93722299D01*
X84879873Y-93557555D01*
X84801232Y-93403212D01*
X84699414Y-93263072D01*
X84576928Y-93140586D01*
X84436788Y-93038768D01*
X84282445Y-92960127D01*
X84117701Y-92906598D01*
X84117699Y-92906597D01*
X84117698Y-92906597D01*
X83986271Y-92885781D01*
X83946611Y-92879500D01*
X83773389Y-92879500D01*
X83733728Y-92885781D01*
X83602302Y-92906597D01*
X83437552Y-92960128D01*
X83283211Y-93038768D01*
X83203256Y-93096859D01*
X83143072Y-93140586D01*
X83143070Y-93140588D01*
X83143069Y-93140588D01*
X83020588Y-93263069D01*
X83020588Y-93263070D01*
X83020586Y-93263072D01*
X82976859Y-93323256D01*
X82918768Y-93403211D01*
X82840128Y-93557552D01*
X82786597Y-93722302D01*
X82759500Y-93893389D01*
X82420500Y-93893389D01*
X82393402Y-93722299D01*
X82339873Y-93557555D01*
X82261232Y-93403212D01*
X82159414Y-93263072D01*
X82036928Y-93140586D01*
X81896788Y-93038768D01*
X81742445Y-92960127D01*
X81577701Y-92906598D01*
X81577699Y-92906597D01*
X81577698Y-92906597D01*
X81446271Y-92885781D01*
X81406611Y-92879500D01*
X81233389Y-92879500D01*
X81193728Y-92885781D01*
X81062302Y-92906597D01*
X80897552Y-92960128D01*
X80743211Y-93038768D01*
X80663256Y-93096859D01*
X80603072Y-93140586D01*
X80603070Y-93140588D01*
X80603069Y-93140588D01*
X80480588Y-93263069D01*
X80480588Y-93263070D01*
X80480586Y-93263072D01*
X80436859Y-93323256D01*
X80378768Y-93403211D01*
X80300128Y-93557552D01*
X80246597Y-93722302D01*
X80219500Y-93893389D01*
X79880500Y-93893389D01*
X79853402Y-93722299D01*
X79799873Y-93557555D01*
X79721232Y-93403212D01*
X79619414Y-93263072D01*
X79496928Y-93140586D01*
X79356788Y-93038768D01*
X79202445Y-92960127D01*
X79037701Y-92906598D01*
X79037699Y-92906597D01*
X79037698Y-92906597D01*
X78906271Y-92885781D01*
X78866611Y-92879500D01*
X78693389Y-92879500D01*
X78653728Y-92885781D01*
X78522302Y-92906597D01*
X78357552Y-92960128D01*
X78203211Y-93038768D01*
X78123256Y-93096859D01*
X78063072Y-93140586D01*
X78063070Y-93140588D01*
X78063069Y-93140588D01*
X77940588Y-93263069D01*
X77940588Y-93263070D01*
X77940586Y-93263072D01*
X77896859Y-93323256D01*
X77838768Y-93403211D01*
X77760128Y-93557552D01*
X77706597Y-93722302D01*
X77679500Y-93893389D01*
X77340500Y-93893389D01*
X77313402Y-93722299D01*
X77259873Y-93557555D01*
X77181232Y-93403212D01*
X77079414Y-93263072D01*
X76956928Y-93140586D01*
X76816788Y-93038768D01*
X76662445Y-92960127D01*
X76497701Y-92906598D01*
X76497699Y-92906597D01*
X76497698Y-92906597D01*
X76366271Y-92885781D01*
X76326611Y-92879500D01*
X76153389Y-92879500D01*
X76113728Y-92885781D01*
X75982302Y-92906597D01*
X75817552Y-92960128D01*
X75663211Y-93038768D01*
X75583256Y-93096859D01*
X75523072Y-93140586D01*
X75523070Y-93140588D01*
X75523069Y-93140588D01*
X75400588Y-93263069D01*
X75400588Y-93263070D01*
X75400586Y-93263072D01*
X75356859Y-93323256D01*
X75298768Y-93403211D01*
X75220128Y-93557552D01*
X75166597Y-93722302D01*
X75139500Y-93893389D01*
X74800500Y-93893389D01*
X74773402Y-93722299D01*
X74719873Y-93557555D01*
X74641232Y-93403212D01*
X74539414Y-93263072D01*
X74416928Y-93140586D01*
X74276788Y-93038768D01*
X74122445Y-92960127D01*
X73957701Y-92906598D01*
X73957699Y-92906597D01*
X73957698Y-92906597D01*
X73826271Y-92885781D01*
X73786611Y-92879500D01*
X73613389Y-92879500D01*
X73573728Y-92885781D01*
X73442302Y-92906597D01*
X73277552Y-92960128D01*
X73123211Y-93038768D01*
X73043256Y-93096859D01*
X72983072Y-93140586D01*
X72983070Y-93140588D01*
X72983069Y-93140588D01*
X72860588Y-93263069D01*
X72860588Y-93263070D01*
X72860586Y-93263072D01*
X72816859Y-93323256D01*
X72758768Y-93403211D01*
X72680128Y-93557552D01*
X72626597Y-93722302D01*
X72599500Y-93893389D01*
X72260500Y-93893389D01*
X72233402Y-93722299D01*
X72179873Y-93557555D01*
X72101232Y-93403212D01*
X71999414Y-93263072D01*
X71876928Y-93140586D01*
X71736788Y-93038768D01*
X71582445Y-92960127D01*
X71417701Y-92906598D01*
X71417699Y-92906597D01*
X71417698Y-92906597D01*
X71286271Y-92885781D01*
X71246611Y-92879500D01*
X71073389Y-92879500D01*
X71033728Y-92885781D01*
X70902302Y-92906597D01*
X70737552Y-92960128D01*
X70583211Y-93038768D01*
X70503256Y-93096859D01*
X70443072Y-93140586D01*
X70443070Y-93140588D01*
X70443069Y-93140588D01*
X70320588Y-93263069D01*
X70320588Y-93263070D01*
X70320586Y-93263072D01*
X70276859Y-93323256D01*
X70218768Y-93403211D01*
X70140128Y-93557552D01*
X70086597Y-93722302D01*
X70059500Y-93893389D01*
X69720500Y-93893389D01*
X69693402Y-93722299D01*
X69639873Y-93557555D01*
X69561232Y-93403212D01*
X69459414Y-93263072D01*
X69336928Y-93140586D01*
X69196788Y-93038768D01*
X69042445Y-92960127D01*
X68877701Y-92906598D01*
X68877699Y-92906597D01*
X68877698Y-92906597D01*
X68746271Y-92885781D01*
X68706611Y-92879500D01*
X68533389Y-92879500D01*
X68493728Y-92885781D01*
X68362302Y-92906597D01*
X68197552Y-92960128D01*
X68043211Y-93038768D01*
X67963256Y-93096859D01*
X67903072Y-93140586D01*
X67903070Y-93140588D01*
X67903069Y-93140588D01*
X67780588Y-93263069D01*
X67780588Y-93263070D01*
X67780586Y-93263072D01*
X67736859Y-93323256D01*
X67678768Y-93403211D01*
X67600128Y-93557552D01*
X67546597Y-93722302D01*
X67519500Y-93893389D01*
X67180500Y-93893389D01*
X67153402Y-93722299D01*
X67099873Y-93557555D01*
X67021232Y-93403212D01*
X66919414Y-93263072D01*
X66796928Y-93140586D01*
X66656788Y-93038768D01*
X66502445Y-92960127D01*
X66337701Y-92906598D01*
X66337699Y-92906597D01*
X66337698Y-92906597D01*
X66206271Y-92885781D01*
X66166611Y-92879500D01*
X65993389Y-92879500D01*
X65953728Y-92885781D01*
X65822302Y-92906597D01*
X65657552Y-92960128D01*
X65503211Y-93038768D01*
X65423256Y-93096859D01*
X65363072Y-93140586D01*
X65363070Y-93140588D01*
X65363069Y-93140588D01*
X65240588Y-93263069D01*
X65240588Y-93263070D01*
X65240586Y-93263072D01*
X65196859Y-93323256D01*
X65138768Y-93403211D01*
X65060128Y-93557552D01*
X65006597Y-93722302D01*
X64979500Y-93893389D01*
X64640500Y-93893389D01*
X64613402Y-93722299D01*
X64559873Y-93557555D01*
X64481232Y-93403212D01*
X64379414Y-93263072D01*
X64256928Y-93140586D01*
X64116788Y-93038768D01*
X63962445Y-92960127D01*
X63797701Y-92906598D01*
X63797699Y-92906597D01*
X63797698Y-92906597D01*
X63666271Y-92885781D01*
X63626611Y-92879500D01*
X63453389Y-92879500D01*
X63413728Y-92885781D01*
X63282302Y-92906597D01*
X63117552Y-92960128D01*
X62963211Y-93038768D01*
X62883256Y-93096859D01*
X62823072Y-93140586D01*
X62823070Y-93140588D01*
X62823069Y-93140588D01*
X62700588Y-93263069D01*
X62700588Y-93263070D01*
X62700586Y-93263072D01*
X62656859Y-93323256D01*
X62598768Y-93403211D01*
X62520128Y-93557552D01*
X62466597Y-93722302D01*
X62439500Y-93893389D01*
X62100500Y-93893389D01*
X62100500Y-93105326D01*
X62100500Y-93105323D01*
X62100499Y-93105321D01*
X62085967Y-93032264D01*
X62085966Y-93032260D01*
X62030601Y-92949399D01*
X61947740Y-92894034D01*
X61947739Y-92894033D01*
X61947735Y-92894032D01*
X61874677Y-92879500D01*
X61874674Y-92879500D01*
X60125326Y-92879500D01*
X60125323Y-92879500D01*
X60052264Y-92894032D01*
X60052260Y-92894033D01*
X59969399Y-92949399D01*
X59914033Y-93032260D01*
X59914032Y-93032264D01*
X59899500Y-93105321D01*
X55500500Y-93105321D01*
X55500500Y-88624500D01*
X55520185Y-88557461D01*
X55572989Y-88511706D01*
X55624500Y-88500500D01*
X56577143Y-88500500D01*
X56644182Y-88520185D01*
G37*
G04 #@! TD.AperFunction*
M02*
