M48
; DRILL file KiCad 10.0.5 date 2026-08-10T23:46:28
; FORMAT={3:3/ absolute / metric / keep zeros}
; #@! TF.CreationDate,2026-08-10T23:46:28+09:00
; #@! TF.GenerationSoftware,Kicad,Pcbnew,10.0.5
; #@! TF.FileFunction,MixedPlating,1,2
FMAT,2
METRIC
; #@! TA.AperFunction,Plated,PTH,ComponentDrill
T1C0.200
; #@! TA.AperFunction,Plated,PTH,ViaDrill
T2C0.300
; #@! TA.AperFunction,Plated,PTH,ComponentDrill
T3C0.950
; #@! TA.AperFunction,Plated,PTH,ComponentDrill
T4C1.000
; #@! TA.AperFunction,NonPlated,NPTH,ComponentDrill
T5C2.700
%
G90
G05
T1
X086045Y-099266
X086045Y-100566
X086045Y-101866
X087955Y-099266
X087955Y-100566
X087955Y-101866
T2
X062770Y-102161
X066022Y-109531
X067614Y-112314
X068047Y-105629
X068132Y-109735
X070567Y-100213
X071000Y-097695
X071875Y-109270
X073712Y-109360
X079510Y-103061
X080021Y-105777
X090775Y-099718
X093001Y-097402
X097698Y-104742
X097941Y-098118
X099367Y-105660
X101065Y-107995
X103813Y-096720
X106924Y-107983
X107700Y-109580
X109000Y-110330
X109023Y-111569
X115499Y-095103
T3
X116500Y-099000
X116500Y-101500
X116500Y-104000
X116500Y-106500
X116500Y-109000
X116500Y-111500
T4
X061000Y-093980
X061000Y-116840
X063540Y-093980
X063540Y-116840
X066080Y-093980
X066080Y-116840
X068620Y-093980
X068620Y-116840
X071160Y-093980
X071160Y-116840
X073700Y-093980
X073700Y-116840
X076240Y-093980
X076240Y-116840
X078780Y-093980
X078780Y-116840
X081320Y-093980
X081320Y-116840
X083860Y-093980
X083860Y-116840
X086400Y-093980
X086400Y-116840
X088940Y-093980
X088940Y-116840
X091480Y-093980
X091480Y-116840
X094020Y-093980
X094020Y-116840
X096560Y-093980
X096560Y-116840
X099100Y-093980
X099100Y-116840
X101640Y-093980
X101640Y-116840
X104180Y-093980
X104180Y-116840
X106720Y-093980
X106720Y-116840
X109260Y-093980
X109260Y-116840
X111800Y-093980
X111800Y-116840
X114340Y-093980
X114340Y-116840
T5
X058000Y-089600
X058000Y-122400
X116000Y-089600
X116000Y-122400
M30
